<?xml version="1.0" encoding="UTF-8"?>
<!DOCTYPE svg PUBLIC "-//W3C//DTD SVG 1.1//EN" "http://www.w3.org/Graphics/SVG/1.1/DTD/svg11.dtd">
<!-- Creator: CorelDRAW 2020 (64-Bit) -->
<svg xmlns="http://www.w3.org/2000/svg" xml:space="preserve" width="2029px" height="3027px" version="1.1" shape-rendering="geometricPrecision" text-rendering="geometricPrecision" image-rendering="optimizeQuality" fill-rule="evenodd" clip-rule="evenodd"
viewBox="0 0 1945.35 2902.03"
 xmlns:xlink="http://www.w3.org/1999/xlink"
 xmlns:xodm="http://www.corel.com/coreldraw/odm/2003">
 <defs>
   <clipPath id="id0">
    <path d="M0 985.9l0 -169.85 169.85 0 0 169.85 -169.85 0z"/>
   </clipPath>
   <clipPath id="id1" clip-rule="nonzero">
    <path d="M1026.49 1908.87l-117.51 -457.86 117.51 -457.85 -337.76 330.69 -272.04 -471.18 455.28 -127.16 -455.28 -127.16 272.04 -471.19 337.76 330.7 -117.51 -457.86 544.08 0 -117.51 457.86 337.76 -330.7 272.04 471.19 -455.27 127.16 455.27 127.16 -272.04 471.18 -337.76 -330.69 117.51 457.85 -117.51 457.86 337.76 -330.7 272.04 471.19 -455.27 127.16 455.27 127.16 -272.04 471.19 -337.76 -330.7 117.51 457.86 -544.08 0 117.51 -457.86 -337.76 330.7 -272.04 -471.19 455.28 -127.16 -455.28 -127.16 272.04 -471.19 337.76 330.7z"/>
   </clipPath>
    <clipPath id="id2">
     <path d="M1181.02 2030.75c80.48,0 145.77,65.29 145.77,145.77 0,80.48 -65.29,145.77 -145.77,145.77 -80.48,0 -145.77,-65.29 -145.77,-145.77 0,-80.48 65.29,-145.77 145.77,-145.77z"/>
    </clipPath>
    <clipPath id="id3">
     <path d="M1026.49 1908.87l-117.51 -457.86 117.51 -457.85 -337.76 330.69 -272.04 -471.18 455.28 -127.16 -455.28 -127.16 272.04 -471.19 337.76 330.7 -117.51 -457.86 544.08 0 -117.51 457.86 337.76 -330.7 272.04 471.19 -455.27 127.16 455.27 127.16 -272.04 471.18 -337.76 -330.69 117.51 457.85 -117.51 457.86 337.76 -330.7 272.04 471.19 -455.27 127.16 455.27 127.16 -272.04 471.19 -337.76 -330.7 117.51 457.86 -544.08 0 117.51 -457.86 -337.76 330.7 -272.04 -471.19 455.28 -127.16 -455.28 -127.16 272.04 -471.19 337.76 330.7z"/>
    </clipPath>
 </defs>
 <g id="Content">
  <metadata id="CorelCorpID_0Corel-Layer"/>
  <path id="Hanger" fill="none" d="M283.08 2760.48l0 84.93 -283.08 0 0 -84.93 84.93 0c-33.85,-19.57 -56.62,-56.17 -56.62,-98.08 0,-41.92 22.77,-78.51 56.62,-98.09 -33.85,-19.57 -56.62,-56.17 -56.62,-98.08 0,-41.92 22.77,-78.51 56.62,-98.09l-84.93 0 0 -84.92 283.08 0 0 84.92 -84.93 0c33.85,19.58 56.63,56.17 56.63,98.09 0,41.91 -22.78,78.51 -56.63,98.08 33.85,19.58 56.63,56.17 56.63,98.09 0,41.91 -22.78,78.51 -56.63,98.08l84.93 0zm-84.92 -294.25c0,-31.27 -25.35,-56.62 -56.62,-56.62 -31.27,0 -56.61,25.35 -56.61,56.62 0,31.27 25.34,56.61 56.61,56.61 31.27,0 56.62,-25.34 56.62,-56.61zm0 196.17c0,31.27 -25.35,56.62 -56.62,56.62 -31.27,0 -56.61,-25.35 -56.61,-56.62 0,-31.27 25.34,-56.62 56.61,-56.62 31.27,0 56.62,25.35 56.62,56.62z"/>
  <g>
  </g>
  <g clip-path="url(#id0)">
   <g>
    <rect fill="none" stroke="black" stroke-width="2" x="-23.26" y="859.59" width="216.37" height="82.75"/>
   </g>
  </g>
  <polygon fill="none" points="0,985.9 0,816.05 169.85,816.05 169.85,985.9 "/>
  <g>
  </g>
  <g clip-path="url(#id1)">
   <g>
    <circle fill="none" stroke="black" stroke-width="2" cx="1181.02" cy="1700.63" r="118.64"/>
    <g>
     <path fill="none" stroke="black" stroke-width="2" d="M1202.74 1675.43c5.5,7.64 12.44,19.87 17.42,30.56 4.05,8.68 12.09,24.85 -3.96,19.47 10.8,20.83 19.32,40.4 19.32,46.53 0,5.32 -2.09,9.08 -9.19,8.95 -8.36,-0.16 -20.6,-2.38 -29.21,-6.49l0 10.42 -32.2 0 0 -10.42c-8.61,4.11 -20.85,6.33 -29.2,6.49 -7.11,0.13 -9.2,-3.63 -9.2,-8.95 0,-6.13 8.52,-25.7 19.32,-46.53 -16.04,5.38 -8.01,-10.79 -3.96,-19.48 4.98,-10.68 11.92,-22.91 17.42,-30.55 -18.47,5.53 5.44,-28.13 16.67,-42.67l5.05 -3.13 5.06 3.13c11.23,14.54 35.14,48.2 16.66,42.67z"/>
     <polygon fill="none" stroke="black" stroke-width="2" points="1181.02,1602.8 1185.88,1614.68 1198.68,1615.63 1188.88,1623.92 1191.93,1636.38 1181.02,1629.63 1170.11,1636.38 1173.17,1623.92 1163.37,1615.63 1176.17,1614.68 "/>
    </g>
    <circle fill="none" stroke="black" stroke-width="2" transform="matrix(0.5 -0.866025 0.866025 0.5 768.888 1938.57)" r="118.64"/>
    <circle fill="none" stroke="black" stroke-width="2" transform="matrix(-0.5 -0.866025 0.866025 -0.5 768.888 2414.46)" r="118.64"/>
    <circle fill="none" stroke="black" stroke-width="2" cx="1181.02" cy="2652.41" r="118.64"/>
    <circle fill="none" stroke="black" stroke-width="2" transform="matrix(-0.5 0.866025 -0.866025 -0.5 1593.15 2414.46)" r="118.64"/>
    <circle fill="none" stroke="black" stroke-width="2" transform="matrix(0.5 0.866025 -0.866025 0.5 1593.15 1938.58)" r="118.64"/>
    <circle fill="none" stroke="black" stroke-width="2" cx="1181.02" cy="1201.4" r="118.64"/>
    <circle fill="none" stroke="black" stroke-width="2" transform="matrix(0.5 -0.866025 0.866025 0.5 1593.15 963.451)" r="118.64"/>
    <circle fill="none" stroke="black" stroke-width="2.26" transform="matrix(-0.5 -0.866025 0.866025 -0.5 1593.15 487.567)" r="118.64"/>
    <circle fill="none" stroke="black" stroke-width="2" cx="1181.02" cy="249.63" r="118.64"/>
    <g>
     <path fill="none" stroke="black" stroke-width="2" d="M1159.3 274.82c-5.5,-7.64 -12.44,-19.87 -17.42,-30.55 -4.05,-8.68 -12.09,-24.86 3.96,-19.47 -10.8,-20.83 -19.32,-40.4 -19.32,-46.54 0,-5.31 2.09,-9.08 9.19,-8.94 8.36,0.15 20.6,2.38 29.21,6.48l0 -10.41 32.2 0 0 10.41c8.61,-4.1 20.85,-6.33 29.2,-6.48 7.11,-0.14 9.2,3.63 9.2,8.94 0,6.14 -8.52,25.71 -19.32,46.54 16.04,-5.38 8.01,10.79 3.96,19.47 -4.98,10.68 -11.92,22.92 -17.42,30.55 18.47,-5.52 -5.44,28.14 -16.67,42.68l-5.05 3.13 -5.06 -3.13c-11.23,-14.54 -35.14,-48.2 -16.66,-42.68z"/>
     <polygon fill="none" stroke="black" stroke-width="2" points="1181.02,347.45 1176.16,335.57 1163.36,334.63 1173.16,326.34 1170.11,313.87 1181.02,320.63 1191.93,313.87 1188.87,326.34 1198.67,334.63 1185.87,335.57 "/>
    </g>
    <circle fill="none" stroke="black" stroke-width="2" transform="matrix(-0.5 0.866025 -0.866025 -0.5 768.891 487.569)" r="118.64"/>
    <circle fill="none" stroke="black" stroke-width="2" transform="matrix(0.5 0.866025 -0.866025 0.5 768.892 963.455)" r="118.64"/>
    <g>
     <path fill="none" stroke="black" stroke-width="2" d="M730.12 1895.73c6.94,-2.66 14.84,-2.34 21.63,1.58 5.26,3.04 8.99,7.74 10.94,13.13 6.58,-3.68 14,-5.32 21.23,-4.57l4.57 0.79c2.89,0.72 5.73,1.84 8.42,3.4 3.32,1.92 6.18,4.34 8.56,7.15 10.75,-2.72 22.22,-1.53 32.21,4.24 10.08,5.82 16.87,15.27 19.86,26.06 -1.29,25.33 -14.67,48.51 -35.96,62.29 -10.84,2.81 -22.43,1.65 -32.51,-4.17 -9.99,-5.77 -16.75,-15.1 -19.78,-25.77 -3.61,-0.66 -7.14,-1.92 -10.47,-3.84 -3.34,-1.93 -6.21,-4.37 -8.59,-7.19l-2.64 -3.59c-3.55,-5.58 -5.45,-12.19 -5.54,-19.05 -5.64,1.01 -11.58,0.13 -16.85,-2.91 -4.26,-2.46 -7.52,-6.01 -9.64,-10.14l14.56 -37.41z"/>
     <path fill="white" stroke="black" stroke-width="2" d="M750.23 1968.83l-32.63 22.67 -2.54 -3.65 13.3 -9.24 -8.54 -4.44 2.04 -3.95 10.63 5.52 15.1 -10.5 2.64 -1.84c1.71,0.63 2.55,1.84 2.54,3.66l-2.54 1.77z"/>
     <path fill="white" stroke="black" stroke-width="2" d="M782.28 1890.96l-12.75 -13.97 3.28 -3 8.64 9.47 -2.02 -18.3 4.43 -0.49 2.68 24.37c0.72,6.51 1.44,13.02 2.16,19.53 -1.36,1.2 -2.84,1.36 -4.42,0.49l-2 -18.1z"/>
     <path fill="white" stroke="black" stroke-width="2" d="M774.52 1937.47c-0.7,0.19 -1.33,0.65 -1.72,1.32 -0.4,0.68 -0.47,1.45 -0.29,2.15l0 0c0.19,0.7 0.64,1.33 1.32,1.72 0.68,0.39 1.45,0.47 2.15,0.28 0.7,-0.18 1.33,-0.64 1.72,-1.32 0.39,-0.67 0.47,-1.44 0.28,-2.14l0 0c-0.19,-0.7 -0.64,-1.33 -1.32,-1.72 -0.68,-0.39 -1.45,-0.47 -2.14,-0.29z"/>
     <path fill="none" stroke="black" stroke-width="2" d="M783.41 1943.37c-0.7,0.18 -1.32,0.64 -1.71,1.32 -0.4,0.67 -0.48,1.45 -0.29,2.14l0 0.01c0.19,0.69 0.64,1.32 1.32,1.71 0.68,0.4 1.45,0.47 2.15,0.29 0.7,-0.19 1.33,-0.65 1.72,-1.32 0.39,-0.68 0.47,-1.45 0.28,-2.15l0 0c-0.19,-0.7 -0.64,-1.33 -1.32,-1.72 -0.67,-0.39 -1.45,-0.47 -2.15,-0.28z"/>
     <path fill="none" stroke="black" stroke-width="2" d="M764.98 1933.28c-0.7,0.19 -1.33,0.65 -1.72,1.32 -0.39,0.68 -0.47,1.45 -0.28,2.15l0 0c0.18,0.7 0.64,1.33 1.31,1.72 0.68,0.39 1.45,0.47 2.15,0.28 0.7,-0.18 1.33,-0.64 1.72,-1.32 0.39,-0.67 0.47,-1.44 0.28,-2.14l0 0c-0.18,-0.7 -0.64,-1.33 -1.31,-1.72 -0.68,-0.39 -1.45,-0.47 -2.15,-0.29z"/>
     <path fill="none" stroke="black" stroke-width="2" d="M736.8 1918.06c-0.74,0.88 -1.18,1.99 -0.96,3.04 0.39,1.85 2.42,3.57 4.5,3.79 1.06,0.1 2.09,-0.59 2.83,-1.47 1.48,-1.77 5.8,-9.78 4.03,-11.26 -1.76,-1.48 -8.92,4.14 -10.4,5.9z"/>
     <path fill="none" stroke="black" stroke-width="2" d="M736.94 1907.11c-0.7,0.18 -1.33,0.64 -1.72,1.32 -0.39,0.67 -0.47,1.44 -0.28,2.14 0.18,0.7 0.64,1.33 1.31,1.72 0.68,0.39 1.45,0.47 2.15,0.29 0.7,-0.19 1.33,-0.65 1.72,-1.32 0.39,-0.68 0.47,-1.45 0.28,-2.15 -0.18,-0.7 -0.64,-1.33 -1.32,-1.72 -0.67,-0.39 -1.45,-0.47 -2.14,-0.28z"/>
     <path fill="none" stroke="black" stroke-width="2" d="M728.29 1922.09c-0.7,0.19 -1.33,0.64 -1.72,1.32 -0.39,0.67 -0.47,1.45 -0.29,2.15 0.19,0.7 0.65,1.32 1.32,1.71 0.68,0.4 1.45,0.47 2.15,0.29 0.7,-0.19 1.33,-0.64 1.72,-1.32 0.39,-0.68 0.47,-1.45 0.28,-2.15 -0.18,-0.7 -0.64,-1.33 -1.32,-1.72 -0.67,-0.39 -1.44,-0.47 -2.14,-0.28z"/>
     <path fill="black" d="M740.67 1933.39c-0.42,0.11 -0.8,0.38 -1.03,0.79 -0.24,0.41 -0.28,0.87 -0.17,1.29l0 0c0.11,0.42 0.38,0.8 0.79,1.03 0.41,0.23 0.87,0.28 1.29,0.17 0.42,-0.11 0.8,-0.39 1.03,-0.79 0.23,-0.41 0.28,-0.87 0.17,-1.29l0 0c-0.11,-0.42 -0.39,-0.8 -0.79,-1.03 -0.41,-0.24 -0.87,-0.28 -1.29,-0.17z"/>
     <path fill="black" d="M746.09 1930.24c-0.42,0.12 -0.79,0.39 -1.03,0.79 -0.23,0.41 -0.28,0.87 -0.17,1.29l0 0c0.12,0.42 0.39,0.8 0.79,1.03 0.41,0.24 0.87,0.29 1.29,0.17 0.42,-0.11 0.8,-0.38 1.03,-0.79 0.24,-0.4 0.29,-0.87 0.17,-1.29l0 0c-0.11,-0.42 -0.38,-0.79 -0.79,-1.03 -0.4,-0.23 -0.87,-0.28 -1.29,-0.17z"/>
     <path fill="black" d="M750.46 1925.5c-0.42,0.11 -0.8,0.38 -1.03,0.79 -0.24,0.4 -0.28,0.87 -0.17,1.29l0 0c0.11,0.42 0.38,0.79 0.79,1.03 0.41,0.23 0.87,0.28 1.29,0.17 0.42,-0.12 0.8,-0.39 1.03,-0.79 0.24,-0.41 0.28,-0.87 0.17,-1.29l0 0c-0.11,-0.42 -0.39,-0.8 -0.79,-1.03 -0.41,-0.24 -0.87,-0.29 -1.29,-0.17z"/>
     <path fill="black" d="M752.32 1919.57c-0.42,0.11 -0.8,0.38 -1.03,0.79 -0.24,0.4 -0.28,0.87 -0.17,1.29l0 0c0.11,0.42 0.38,0.79 0.79,1.03 0.41,0.23 0.87,0.28 1.29,0.17 0.42,-0.12 0.8,-0.39 1.03,-0.79 0.24,-0.41 0.28,-0.87 0.17,-1.29l0 0c-0.11,-0.42 -0.38,-0.8 -0.79,-1.03 -0.41,-0.24 -0.87,-0.29 -1.29,-0.17z"/>
     <path fill="black" d="M752.11 1913.18c-0.42,0.12 -0.8,0.39 -1.03,0.8 -0.24,0.4 -0.28,0.87 -0.17,1.28l0 0c0.11,0.42 0.38,0.8 0.79,1.04 0.41,0.23 0.87,0.28 1.29,0.17 0.42,-0.12 0.8,-0.39 1.03,-0.8 0.24,-0.4 0.28,-0.86 0.17,-1.28l0 0c-0.11,-0.42 -0.38,-0.8 -0.79,-1.04 -0.41,-0.23 -0.87,-0.28 -1.29,-0.17z"/>
     <path fill="white" stroke="black" stroke-width="2" d="M719.84 1896.6c3.37,-5.49 6.6,-8.63 8.57,-7.83 3.31,1.33 1.83,13.2 -3.29,26.5 -5.12,13.31 -11.95,23.01 -15.26,21.67 -1.95,-0.79 -2.23,-5.26 -1.08,-11.54l-24.45 -8.37c-1.89,-0.73 -2.62,-2.11 -2.27,-4 1.73,-9.32 4.77,-17.17 9.76,-25.22 1.01,-1.63 2.48,-2.16 4.37,-1.43l23.65 10.22z"/>
     <path fill="none" stroke="black" stroke-width="2" d="M705.79 1924.39l7.27 2.5c1.96,0.79 6.03,-5.02 9.08,-12.92 3.04,-7.9 3.76,-14.57 1.8,-15.36l-6.97 -3.25 0 0c1.92,0.87 1.19,7.49 -1.83,15.35 -3.05,7.9 -7.39,14.48 -9.35,13.68z"/>
    </g>
    <g>
     <circle fill="white" stroke="black" stroke-width="2" transform="matrix(0.738429 1.279 -1.279 0.738428 1540.06 1969.23)" r="9.59"/>
     <path fill="white" stroke="black" stroke-width="2" d="M1668.31 1895.18c3.62,6.27 1.47,14.28 -4.79,17.89 -6.27,3.62 -14.28,1.47 -17.89,-4.79 -3.62,-6.27 -1.48,-14.28 4.79,-17.89 6.26,-3.62 14.28,-1.48 17.89,4.79zm-5.3 3.06c1.93,3.34 0.79,7.61 -2.55,9.54 -3.34,1.92 -7.61,0.78 -9.54,-2.56 -1.92,-3.34 -0.78,-7.61 2.56,-9.54 3.34,-1.92 7.61,-0.78 9.53,2.56z"/>
     <path fill="white" stroke="black" stroke-width="2" d="M1648.27 1906.75c-18.2,-31.53 -39.92,-22.5 -73.46,-5.08 -27.88,14.48 -42.28,-1.26 -64,7.83 12.18,44.05 34.29,82.35 66.35,114.92 18.73,-14.27 12.3,-34.61 38.78,-51.51 31.86,-20.34 50.54,-34.63 32.33,-66.16z"/>
     <path fill="white" stroke="black" stroke-width="2" d="M1587.93 1895.08c-4.17,1.98 -8.53,4.21 -13.12,6.59 -6.18,3.21 -11.69,4.93 -16.77,5.77 10.36,28.29 25.2,53.99 44.52,77.11 3.26,-3.98 7.51,-7.9 13.38,-11.64 4.36,-2.78 8.47,-5.45 12.27,-8.06 -17.09,-21.14 -30.52,-44.4 -40.28,-69.77z"/>
    </g>
    <g>
     <path fill="none" stroke="#2B2A29" stroke-width="2" d="M1593.15 888.84c7.14,0 13.53,3.25 17.76,8.35 13.55,-5.02 28.32,3.51 30.75,17.76 14.21,2.42 22.76,17.23 17.75,30.75 11.1,9.2 11.1,26.3 0.01,35.51 4.94,13.69 -3.41,28.19 -17.76,30.75 -2.58,14.37 -17.09,22.7 -30.75,17.75 -9.36,11.12 -26.09,11.16 -35.51,0 -13.69,4.95 -28.19,-3.39 -30.76,-17.75 -14.35,-2.58 -22.71,-17.08 -17.75,-30.75 -11.12,-9.36 -11.16,-26.09 0,-35.51 -4.95,-13.69 3.4,-28.19 17.76,-30.76 2.42,-14.21 17.23,-22.75 30.75,-17.75 4.23,-5.1 10.61,-8.35 17.75,-8.35zm-21.89 52.71c-0.98,5.42 -3.74,10.41 -8.02,13.89 1.88,5.13 1.94,10.9 0,16.03 4.19,3.43 7.13,8.54 8.02,13.88 5.28,0.86 10.5,3.86 13.88,8.01 5.07,-1.9 10.97,-1.9 16.03,0 3.42,-4.17 8.55,-7.14 13.88,-8.01 0.89,-5.31 3.83,-10.48 8.02,-13.88 -1.91,-5.16 -1.91,-10.88 0,-16.03 -4.24,-3.51 -7.1,-8.47 -8.02,-13.89 -5.42,-0.92 -10.37,-3.78 -13.88,-8.01 -5.16,1.91 -10.88,1.91 -16.03,0 -3.51,4.23 -8.47,7.09 -13.88,8.01z"/>
     <g id="_1574404274336">
      <path fill="white" stroke="#2B2A29" stroke-width="2" d="M1621.29 982.59c14.33,13.52 23.48,22.65 33.5,39.6 0.19,-1.9 0.39,-3.79 0.56,-5.67 0.17,-1.88 0.33,-3.74 0.47,-5.59 1.6,0.46 3.18,0.94 4.75,1.42 1.57,0.49 3.14,0.99 4.69,1.49 -10.01,-16.62 -19.07,-27.6 -32.84,-41.2 -3.49,2.78 -7.64,7.17 -11.13,9.95z"/>
      <path fill="white" stroke="#2B2A29" stroke-width="2" d="M1630.46 962.11c19.59,-2.08 31.59,-2.84 49.82,-10.26 -0.99,1.63 -1.99,3.25 -2.99,4.85 -1,1.59 -2,3.17 -3.01,4.73 1.55,0.6 3.1,1.18 4.65,1.75 1.54,0.57 3.09,1.11 4.63,1.65 -18.04,7.17 -31.9,10.42 -51.09,12.91 -1.09,-4.33 -0.92,-11.3 -2.01,-15.63z"/>
      <path fill="white" stroke="#2B2A29" stroke-width="2" d="M1625.31 973.43c11.71,4.56 27.25,55.36 -16.46,42.74 -46,-13.28 4.74,-47.29 16.46,-42.74z"/>
      <path fill="white" stroke="#2B2A29" stroke-width="2" d="M1625.31 973.43c11.71,4.56 57.5,-22.39 16.74,-42.62 -42.88,-21.29 -28.46,38.07 -16.74,42.62z"/>
      <line fill="none" stroke="#2B2A29" stroke-width="2.26" stroke-linecap="round" x1="1616.53" y1="996.01" x2="1634.09" y2= "950.86" />
      <path fill="white" stroke="#2B2A29" stroke-width="2" d="M1613.99 969.03c4.05,-10.41 10.11,-10.96 16.37,-8.53 6.26,2.44 10.47,6.65 6.3,17.35 -4.16,10.7 -10.11,10.96 -16.37,8.53 -6.26,-2.44 -10.35,-6.94 -6.3,-17.35z"/>
     </g>
    </g>
    <path fill="none" stroke="#2B2A29" stroke-width="2" d="M1165.84 1239.49l0 35.76c0,2.18 -1.79,3.97 -3.97,3.97l-21.2 0c-2.18,0 -3.96,-1.79 -3.96,-3.97l0 -75.62c0,-0.22 0.01,-0.42 0.05,-0.64 2.61,-15.9 4,-29.78 -2.27,-28.86 -5.05,0.73 -3.53,16.66 -5.85,17.24 -3.33,0.59 -7.66,-16.89 -10.95,-31.6 -0.2,-0.91 0.24,-1.81 1.07,-2.22l33.08 -16.05c7.21,-12.29 20.55,-20.54 35.82,-20.54 22.91,0 41.49,18.58 41.49,41.5 0,5.04 -0.9,9.87 -2.54,14.34l3.25 0c1.09,0 1.98,0.89 1.98,1.98l0 13.51 0 47.23 0 39.73c0,2.18 -1.79,3.97 -3.97,3.97l-21.19 0c-2.18,0 -3.97,-1.79 -3.97,-3.97l0 -35.76c0,-2.19 -1.78,-3.97 -3.97,-3.97l-28.94 0c-2.18,0 -3.96,1.78 -3.96,3.97zm-7.28 -99.92c11.25,44.84 14.73,50.65 35.63,48.85 20.3,-1.74 19.02,-4.09 20.01,-13.83 0.1,-1.02 0.95,-1.79 1.97,-1.79l2.18 0c0.76,-2.87 1.16,-5.88 1.16,-8.99 0,-19.49 -15.8,-35.29 -35.29,-35.29 -10.11,0 -19.22,4.25 -25.66,11.05z"/>
    <path fill="none" stroke="black" stroke-width="2" d="M1197.85 2614.41l0 -35.76c0,-2.19 1.78,-3.97 3.97,-3.97l21.19 0c2.18,0 3.97,1.78 3.97,3.97l0 75.61c0,0.23 -0.02,0.42 -0.05,0.65 -2.62,15.9 -4,29.77 2.26,28.86 5.06,-0.74 3.54,-16.67 5.86,-17.25 3.33,-0.58 7.65,16.9 10.94,31.61 0.21,0.91 -0.23,1.81 -1.07,2.22l-33.08 16.05c-7.2,12.28 -20.54,20.53 -35.81,20.53 -22.92,0 -41.5,-18.58 -41.5,-41.49 0,-5.04 0.9,-9.87 2.55,-14.34l-3.25 0c-1.09,0 -1.98,-0.9 -1.98,-1.99l0 -13.5 0 -47.24 0 -39.72c0,-2.19 1.78,-3.97 3.96,-3.97l21.2 0c2.18,0 3.97,1.78 3.97,3.97l0 35.76c0,2.18 1.78,3.96 3.96,3.96l28.94 0c2.19,0 3.97,-1.78 3.97,-3.96zm7.28 99.91c-11.25,-44.84 -14.74,-50.64 -35.64,-48.85 -20.3,1.75 -19.02,4.09 -20,13.84 -0.1,1.02 -0.95,1.79 -1.97,1.79l-2.19 0c-0.75,2.87 -1.15,5.88 -1.15,8.99 0,19.49 15.8,35.29 35.29,35.29 10.11,0 19.22,-4.25 25.66,-11.06z"/>
    <path fill="white" stroke="black" stroke-width="2" d="M704.28 2451.77c-3.48,-6.02 -4.02,-13.01 -1.65,-19.55 -11.1,-9.21 -11.1,-26.3 0,-35.51 -5.01,-13.52 3.54,-28.33 17.75,-30.75 2.43,-14.25 17.2,-22.77 30.75,-17.76 9.21,-11.09 26.31,-11.09 35.51,0 13.52,-5 28.33,3.55 30.76,17.76 14.33,2.56 22.71,17.04 17.75,30.75 11.16,9.42 11.12,26.16 0,35.51 4.95,13.66 -3.38,28.17 -17.76,30.75 -2.55,14.33 -17.03,22.72 -30.75,17.76 -9.41,11.14 -26.14,11.13 -35.51,0 -13.66,4.95 -28.17,-3.39 -30.75,-17.76 -6.83,-1.22 -12.63,-5.17 -16.1,-11.2zm34.7 -29.29c4.19,3.56 7.14,8.44 8.01,13.88 5.38,0.94 10.41,3.78 13.88,8.02 5.07,-1.91 10.96,-1.9 16.03,0 3.39,-4.15 8.6,-7.17 13.89,-8.02 0.88,-5.34 3.83,-10.45 8.01,-13.88 -1.91,-5.05 -1.91,-10.98 0,-16.03 -4.15,-3.42 -7.16,-8.56 -8.02,-13.88 -5.41,-0.93 -10.37,-3.79 -13.88,-8.02 -5.15,1.91 -10.88,1.91 -16.03,0 -3.51,4.24 -8.46,7.09 -13.88,8.02 -0.92,5.42 -3.78,10.37 -8.01,13.88 1.9,5.15 1.91,10.88 0,16.03z"/>
    <path fill="white" stroke="black" stroke-width="2" d="M799.53 2399.67c18.87,-5.65 31.36,-9.01 51.05,-9.22 -1.55,-1.11 -3.1,-2.23 -4.64,-3.32 -1.53,-1.08 -3.07,-2.15 -4.61,-3.2 1.21,-1.15 2.41,-2.28 3.62,-3.4 1.2,-1.12 2.42,-2.22 3.63,-3.32 -19.4,0.36 -33.44,2.72 -52.1,7.84 0.66,4.41 2.38,10.21 3.05,14.62z"/>
    <path fill="white" stroke="black" stroke-width="2" d="M786.38 2381.49c8,-18.01 13.33,-28.78 16.03,-48.28 0.9,1.67 1.82,3.35 2.7,5.01 0.88,1.66 1.75,3.33 2.59,4.98 1.3,-1.05 2.57,-2.1 3.84,-3.15 1.26,-1.06 2.5,-2.13 3.75,-3.19 -2.82,19.2 -6.93,32.83 -14.37,50.69 -4.29,-1.21 -10.24,-4.85 -14.54,-6.06z"/>
    <path fill="white" stroke="black" stroke-width="2" d="M793.61 2391.61c9.8,-7.87 61.57,4.08 28.78,35.62 -34.5,33.2 -38.58,-27.75 -28.78,-35.62z"/>
    <path fill="white" stroke="black" stroke-width="2" d="M793.61 2391.61c9.8,-7.87 9.35,-60.99 -28.54,-35.82 -39.88,26.5 18.74,43.69 28.54,35.82z"/>
    <line fill="none" stroke="black" stroke-width="2.26" stroke-linecap="round" x1="808.77" y1="2410.5" x2="778.45" y2= "2372.72" />
    <path fill="white" stroke="black" stroke-width="2" d="M784.14 2399.21c-7,-8.71 -4.44,-14.24 0.8,-18.44 5.24,-4.21 10.99,-5.74 18.17,3.21 7.19,8.96 4.44,14.24 -0.8,18.44 -5.24,4.21 -11.18,5.5 -18.17,-3.21z"/>
    <g>
     <path fill="white" stroke="#2B2A29" stroke-width="2" d="M695.62 923.08c5.47,5.52 21.22,4.77 26.99,-3.5 3.6,9.63 20.17,16.6 29.11,14.02 -1.46,12.4 8.6,24.65 18.17,31.39 -1.13,3.41 -2.25,6.81 -3.37,10.22 -1.56,-0.83 -3.04,-1.61 -4.47,-2.37 -7.07,-2.7 -14.03,-0.6 -15.62,7.4 -5.87,-7.93 -16.47,-9.12 -19.58,-1.07 -2.88,-10.85 -12.98,-13.04 -23.57,-7.57 1.8,-11.02 -8.99,-18.79 -22.33,-16.92 4.3,-9.17 -3.76,-15.6 -11.9,-17.23 8.72,-0.68 22.66,-5.97 26.57,-14.37z"/>
     <path fill="white" stroke="#2B2A29" stroke-width="2" d="M803.8 1039.5c-3.92,-5.2 -1.35,-19.59 6.43,-24.62 -6.35,-2.91 -7.98,-12.27 -4.18,-19.66 -7.82,1.57 -13.56,-5.78 -14.26,-15.97 -7.93,4.94 -14.52,-3.27 -18.91,-10.12 -3.12,0.65 -6.23,1.3 -9.35,1.94 3.32,6.72 5.67,16.52 -5.16,17.16 6.77,6.12 9.11,19.18 1.25,23.77 7.07,5.31 13.15,18.29 7.31,22.96 9.17,1.62 19.56,22.03 20.67,28.14 1.87,-9.07 4.02,-21.83 16.2,-23.6z"/>
     <path fill="white" stroke="#2B2A29" stroke-width="2" d="M838.41 928.86c-8.75,1.04 -16.49,12.64 -11.98,20.84 -8.35,-1.24 -15.62,5.77 -16.34,14.54 -6.14,-5.59 -15.37,-0.78 -17.69,7.87 -6.35,-8.52 -14.6,-4.22 -20.73,1.86 -2.32,-2.58 -4.62,-5.16 -6.93,-7.74 5.29,-6.84 9.36,-15.65 1.74,-22.82 8.1,-2.01 13.23,-11.22 8.63,-18.32 8.28,0.43 16,-5.89 16.36,-14.52 7.09,5.95 20.16,0.53 22.76,-7.17 5.9,6.85 18.97,5.45 26.37,2.02 -5.47,6.02 -8.42,16.93 -2.19,23.44z"/>
     <path fill="white" stroke="#2B2A29" stroke-width="2" d="M800.87 954.66c6.06,6.78 5.47,17.19 -1.31,23.25 -6.78,6.06 -17.19,5.47 -23.25,-1.31 -6.06,-6.78 -5.47,-17.19 1.31,-23.25 6.78,-6.06 17.19,-5.48 23.25,1.31z"/>
     <path fill="white" stroke="#2B2A29" stroke-width="2" d="M778.63 938.75c5.67,6.35 5.12,16.09 -1.22,21.76 -6.35,5.67 -16.09,5.12 -21.76,-1.22 -5.67,-6.35 -5.12,-16.09 1.22,-21.77 6.35,-5.66 16.09,-5.12 21.76,1.23z"/>
     <path fill="white" stroke="#2B2A29" stroke-width="2" d="M777.71 964.06c5.5,6.15 4.97,15.59 -1.18,21.09 -6.15,5.49 -15.6,4.96 -21.09,-1.19 -5.5,-6.15 -4.97,-15.59 1.18,-21.09 6.16,-5.49 15.6,-4.96 21.09,1.19z"/>
    </g>
    <g>
     <path fill="white" stroke="black" stroke-width="2" d="M1591.48 2330.82c-2.04,7.5 6.48,20.77 16.53,21.62 -6.54,7.94 -4.29,25.78 2.41,32.23 -11.47,4.93 -17.04,19.77 -18.1,31.42 -3.52,0.74 -7.02,1.47 -10.53,2.2 -0.06,-1.77 -0.13,-3.44 -0.19,-5.06 -1.2,-7.47 -6.49,-12.45 -14.22,-9.82 3.94,-9.05 -0.34,-18.82 -8.86,-17.49 7.96,-7.93 4.8,-17.76 -5.23,-24.21 10.45,-3.94 11.78,-17.18 3.49,-27.79 10.09,-0.86 11.63,-11.06 8.97,-18.92 4.95,7.21 16.5,16.64 25.73,15.82z"/>
     <path fill="white" stroke="black" stroke-width="2" d="M1544.75 2482.72c2.54,-6 16.29,-10.96 24.53,-6.74 -0.65,-6.96 6.64,-13.05 14.94,-13.45 -5.27,-5.99 -1.77,-14.63 6.7,-20.33 -8.24,-4.4 -4.43,-14.21 -0.69,-21.45 -2.12,-2.37 -4.24,-4.74 -6.36,-7.12 -4.15,6.23 -11.47,13.17 -17.44,4.11 -1.91,8.92 -12.05,17.48 -19.95,12.97 -1.07,8.77 -9.27,20.53 -16.23,17.81 3.18,8.75 -9.31,27.95 -14.04,31.97 8.79,-2.92 20.92,-7.44 28.54,2.23z"/>
     <path fill="white" stroke="black" stroke-width="2" d="M1657.87 2457.37c-5.28,-7.06 -19.19,-7.96 -24.03,0.05 -3.11,-7.85 -12.82,-10.65 -20.77,-6.88 1.77,-8.12 -7.01,-13.71 -15.66,-11.39 4.21,-9.76 -3.65,-14.75 -11.98,-17.02 1.08,-3.3 2.16,-6.58 3.25,-9.87 8.56,1.16 18.23,0.27 20.62,-9.91 5.79,6.01 16.33,5.86 20.19,-1.68 3.76,7.39 13.09,10.91 20.75,6.91 -1.61,9.11 9.62,17.72 17.59,16.12 -2.98,8.54 4.76,19.15 11.43,23.85 -7.94,-1.73 -18.87,1.17 -21.39,9.82z"/>
     <path fill="white" stroke="black" stroke-width="2" d="M1616.76 2437.76c-2.84,8.64 -12.15,13.34 -20.79,10.49 -8.64,-2.84 -13.34,-12.15 -10.49,-20.79 2.84,-8.64 12.15,-13.33 20.79,-10.49 8.64,2.84 13.33,12.15 10.49,20.79z"/>
     <path fill="white" stroke="black" stroke-width="2" d="M1619.42 2410.55c-2.66,8.08 -11.38,12.48 -19.46,9.82 -8.08,-2.66 -12.48,-11.38 -9.82,-19.46 2.66,-8.08 11.37,-12.48 19.46,-9.82 8.08,2.66 12.48,11.37 9.82,19.46z"/>
     <path fill="white" stroke="black" stroke-width="2" d="M1597.04 2422.41c-2.58,7.83 -11.02,12.09 -18.86,9.51 -7.83,-2.57 -12.09,-11.02 -9.52,-18.85 2.58,-7.84 11.03,-12.1 18.86,-9.52 7.84,2.58 12.1,11.02 9.52,18.86z"/>
    </g>
    <g>
     <path fill="none" stroke="black" stroke-width="2" d="M1536.66 499.72c1.16,-7.34 5.4,-14.02 12.18,-17.94 5.27,-3.04 11.21,-3.92 16.85,-2.91 0.09,-7.54 2.39,-14.78 6.65,-20.68l2.97 -3.55c2.07,-2.15 4.46,-4.04 7.15,-5.6 3.32,-1.91 6.86,-3.18 10.47,-3.83 3.03,-10.68 9.79,-20.01 19.78,-25.78 10.08,-5.82 21.66,-6.98 32.5,-4.17 21.3,13.79 34.67,36.96 35.97,62.29 -2.99,10.8 -9.78,20.25 -19.87,26.07 -9.99,5.77 -21.45,6.95 -32.21,4.24 -2.37,2.8 -5.23,5.23 -8.55,7.15 -3.35,1.93 -6.9,3.19 -10.53,3.84l-4.43 0.49c-6.6,0.29 -13.28,-1.37 -19.26,-4.72 -1.95,5.39 -5.68,10.1 -10.95,13.13 -4.26,2.47 -8.97,3.51 -13.6,3.28l-25.12 -31.31z"/>
     <path fill="white" stroke="black" stroke-width="2" d="M1610.02 518.85l3.32 39.6 -4.43 0.37 -1.36 -16.14 -8.11 5.19 -2.39 -3.75 10.08 -6.45 -1.54 -18.33 -0.27 -3.2c1.39,-1.16 2.87,-1.29 4.44,-0.37l0.26 3.08z"/>
     <path fill="white" stroke="black" stroke-width="2" d="M1558.61 452.17l-18.48 4.05 -0.95 -4.34 12.52 -2.75 -16.86 -7.4 1.79 -4.07 22.44 9.85c6,2.63 12,5.27 18,7.9 0.36,1.78 -0.24,3.14 -1.79,4.07l-16.67 -7.31z"/>
     <path fill="white" stroke="black" stroke-width="2" d="M1595.01 482.15c-0.19,0.69 -0.11,1.47 0.28,2.14 0.39,0.68 1.02,1.14 1.72,1.32l0 0c0.7,0.19 1.47,0.11 2.15,-0.28 0.68,-0.39 1.13,-1.02 1.32,-1.72 0.19,-0.7 0.11,-1.47 -0.29,-2.15 -0.39,-0.67 -1.01,-1.13 -1.71,-1.32l0 0c-0.7,-0.18 -1.47,-0.1 -2.15,0.29 -0.68,0.39 -1.13,1.02 -1.32,1.72z"/>
     <path fill="white" stroke="black" stroke-width="2" d="M1604.56 477.38c-0.19,0.7 -0.11,1.48 0.29,2.15 0.39,0.68 1.01,1.14 1.71,1.32l0 0c0.7,0.19 1.48,0.11 2.15,-0.28 0.68,-0.39 1.13,-1.02 1.32,-1.72 0.19,-0.7 0.11,-1.47 -0.28,-2.15 -0.39,-0.67 -1.02,-1.13 -1.72,-1.32l0 0c-0.7,-0.18 -1.47,-0.1 -2.15,0.29 -0.68,0.39 -1.13,1.02 -1.32,1.71z"/>
     <path fill="white" stroke="black" stroke-width="2" d="M1586.61 488.31c-0.18,0.7 -0.11,1.47 0.29,2.15 0.39,0.68 1.02,1.13 1.71,1.32l0 0c0.7,0.18 1.48,0.11 2.15,-0.29 0.68,-0.39 1.13,-1.02 1.32,-1.71 0.19,-0.7 0.11,-1.48 -0.28,-2.15 -0.39,-0.68 -1.02,-1.13 -1.72,-1.32l0 0c-0.7,-0.19 -1.47,-0.11 -2.15,0.28 -0.68,0.39 -1.13,1.02 -1.32,1.72z"/>
     <path fill="none" stroke="black" stroke-width="2" d="M1559.34 505.1c0.39,1.08 1.13,2.02 2.15,2.35 1.8,0.59 4.3,-0.3 5.53,-2 0.62,-0.87 0.53,-2.1 0.14,-3.19 -0.78,-2.16 -5.57,-9.91 -7.73,-9.12 -2.17,0.78 -0.88,9.8 -0.09,11.96z"/>
     <path fill="none" stroke="black" stroke-width="2" d="M1549.92 499.51c-0.19,0.69 -0.11,1.47 0.28,2.14 0.39,0.68 1.02,1.14 1.72,1.32 0.7,0.19 1.47,0.11 2.15,-0.28 0.68,-0.39 1.13,-1.02 1.32,-1.72 0.19,-0.7 0.11,-1.47 -0.28,-2.15 -0.39,-0.67 -1.02,-1.13 -1.72,-1.31 -0.7,-0.19 -1.47,-0.11 -2.15,0.28 -0.68,0.39 -1.13,1.02 -1.32,1.72z"/>
     <path fill="none" stroke="black" stroke-width="2" d="M1558.57 514.49c-0.19,0.7 -0.11,1.47 0.28,2.15 0.4,0.67 1.02,1.13 1.72,1.32 0.7,0.18 1.47,0.1 2.15,-0.29 0.68,-0.39 1.13,-1.02 1.32,-1.72 0.19,-0.7 0.11,-1.47 -0.28,-2.14 -0.39,-0.68 -1.02,-1.14 -1.72,-1.32 -0.7,-0.19 -1.47,-0.11 -2.15,0.28 -0.68,0.39 -1.13,1.02 -1.32,1.72z"/>
     <path fill="black" d="M1574.55 509.41c-0.11,0.42 -0.07,0.89 0.17,1.29 0.23,0.41 0.61,0.68 1.03,0.79l0 0c0.42,0.12 0.88,0.07 1.29,-0.17 0.4,-0.23 0.68,-0.61 0.79,-1.03 0.11,-0.42 0.06,-0.88 -0.17,-1.29 -0.24,-0.4 -0.61,-0.68 -1.03,-0.79l0 0c-0.42,-0.11 -0.88,-0.06 -1.29,0.17 -0.41,0.24 -0.68,0.61 -0.79,1.03z"/>
     <path fill="black" d="M1574.54 503.14c-0.12,0.42 -0.07,0.89 0.17,1.29 0.23,0.41 0.61,0.68 1.03,0.79l0 0c0.42,0.12 0.88,0.07 1.29,-0.17 0.4,-0.23 0.67,-0.61 0.79,-1.03 0.11,-0.42 0.06,-0.88 -0.17,-1.29 -0.24,-0.4 -0.61,-0.68 -1.03,-0.79l0 0c-0.42,-0.11 -0.89,-0.06 -1.29,0.17 -0.41,0.24 -0.68,0.61 -0.79,1.03z"/>
     <path fill="black" d="M1572.61 496.99c-0.11,0.42 -0.07,0.88 0.17,1.29 0.23,0.4 0.61,0.68 1.03,0.79l0 0c0.42,0.11 0.88,0.06 1.29,-0.17 0.4,-0.24 0.68,-0.61 0.79,-1.03 0.11,-0.42 0.06,-0.89 -0.17,-1.29 -0.23,-0.41 -0.61,-0.68 -1.03,-0.79l0 0c-0.42,-0.12 -0.88,-0.07 -1.29,0.17 -0.41,0.23 -0.68,0.61 -0.79,1.03z"/>
     <path fill="black" d="M1568.4 492.41c-0.11,0.42 -0.06,0.89 0.17,1.29 0.24,0.41 0.61,0.68 1.03,0.79l0 0c0.42,0.12 0.89,0.07 1.29,-0.17 0.41,-0.23 0.68,-0.61 0.79,-1.03 0.12,-0.42 0.07,-0.88 -0.16,-1.29 -0.24,-0.4 -0.62,-0.68 -1.04,-0.79l0 0c-0.42,-0.11 -0.88,-0.06 -1.29,0.17 -0.4,0.24 -0.67,0.61 -0.79,1.03z"/>
     <path fill="black" d="M1562.77 489.4c-0.11,0.42 -0.06,0.89 0.17,1.29 0.24,0.41 0.61,0.68 1.03,0.79l0 0c0.42,0.12 0.88,0.07 1.29,-0.17 0.41,-0.23 0.68,-0.61 0.79,-1.03 0.12,-0.42 0.07,-0.88 -0.17,-1.29 -0.23,-0.4 -0.61,-0.68 -1.03,-0.79l0 0c-0.42,-0.11 -0.88,-0.06 -1.29,0.17 -0.4,0.24 -0.68,0.61 -0.79,1.03z"/>
     <path fill="white" stroke="black" stroke-width="2" d="M1532.27 509.06c-3.07,-5.67 -4.17,-10.03 -2.49,-11.34 2.81,-2.2 12.35,5.02 21.3,16.1 8.96,11.09 13.95,21.86 11.14,24.05 -1.66,1.29 -5.67,-0.7 -10.53,-4.84l-19.48 17c-1.57,1.27 -3.14,1.21 -4.59,-0.04 -7.21,-6.16 -12.49,-12.71 -16.97,-21.07 -0.91,-1.68 -0.63,-3.22 0.95,-4.49l20.67 -15.37z"/>
     <path fill="white" stroke="black" stroke-width="2" d="M1549.32 535.13l5.79 -5.05c1.67,-1.31 -1.32,-7.74 -6.65,-14.32 -5.32,-6.59 -10.73,-10.55 -12.4,-9.24l-6.29 4.4 0 0c1.7,-1.22 7.08,2.72 12.37,9.26 5.32,6.59 8.84,13.64 7.18,14.95z"/>
    </g>
    <g>
     <circle fill="white" stroke="black" stroke-width="2" transform="matrix(-0.738429 1.279 -1.279 -0.738428 715.799 456.916)" r="9.59"/>
     <path fill="white" stroke="black" stroke-width="2" d="M844.05 530.96c-3.62,6.27 -11.63,8.41 -17.89,4.8 -6.27,-3.62 -8.41,-11.63 -4.8,-17.9 3.62,-6.26 11.63,-8.41 17.9,-4.79 6.26,3.62 8.41,11.63 4.79,17.89zm-5.3 -3.06c-1.92,3.34 -6.19,4.49 -9.53,2.56 -3.34,-1.93 -4.49,-6.2 -2.56,-9.54 1.93,-3.34 6.2,-4.48 9.54,-2.55 3.34,1.93 4.48,6.19 2.55,9.53z"/>
     <path fill="white" stroke="black" stroke-width="2" d="M824.01 519.39c18.21,-31.53 -0.47,-45.82 -32.33,-66.16 -26.49,-16.9 -20.05,-37.24 -38.78,-51.51 -32.06,32.57 -54.17,70.88 -66.35,114.92 21.72,9.09 36.12,-6.65 64,7.83 33.54,17.43 55.25,26.46 73.46,-5.08z"/>
     <path fill="white" stroke="black" stroke-width="2" d="M803.95 461.3c-3.81,-2.62 -7.91,-5.29 -12.27,-8.07 -5.87,-3.74 -10.12,-7.66 -13.39,-11.64 -19.31,23.12 -34.15,48.83 -44.52,77.11 5.09,0.84 10.6,2.56 16.78,5.77 4.59,2.39 8.95,4.61 13.12,6.6 9.76,-25.38 23.19,-48.63 40.28,-69.77z"/>
    </g>
    <g>
     <g>
      <path fill="black" d="M1196.33 864.65c-6.44,7.51 -12,17.44 -14.72,28.01 -2.49,9.69 -2.59,19.91 1.28,29.21l2.38 5.75 -5.28 -3.3c-17.33,-10.8 -28.13,-21.87 -34.89,-33.42 -6.03,-10.31 -8.81,-20.93 -10.13,-32.06 -4.15,3.63 -8.41,5.64 -12.74,7.69 -4.15,1.95 -8.36,3.94 -12.44,7.46 -2.21,1.92 -4.37,5.16 -6.81,8.83 -6.57,9.88 -15.08,22.66 -33.93,24.88l-5.07 0.6 3.33 -3.87c12.81,-14.95 10.8,-23.44 8.39,-33.61 -2.59,-10.92 -5.59,-23.63 6.08,-46.59 -9.88,-0.35 -21.12,1.5 -31.07,5.96 -9.14,4.1 -17.19,10.4 -22.04,19.2l-3.01 5.46 -0.72 -6.19c-2.36,-20.28 -0.44,-35.63 4.38,-48.11 4.3,-11.14 10.88,-19.95 18.77,-27.93 -5.43,-0.98 -9.66,-3.06 -13.95,-5.17 -4.11,-2.02 -8.29,-4.08 -13.6,-5.07 -2.87,-0.54 -6.76,-0.2 -11.15,0.18l0 0c-11.83,1.02 -27.11,2.34 -40.61,-11.01l-3.63 -3.59 5.1 0.18c19.69,0.69 25.09,-6.19 31.54,-14.41 6.92,-8.84 14.98,-19.11 40.17,-24.27 -5.89,-7.93 -14.35,-15.56 -24.05,-20.56 -8.9,-4.59 -18.84,-6.95 -28.75,-5.25l-6.14 1.04 4.39 -4.41c14.39,-14.51 27.59,-22.57 40.35,-26.59 11.38,-3.58 22.37,-3.93 33.53,-2.74 -2.63,-4.86 -3.64,-9.47 -4.66,-14.14 -0.98,-4.47 -1.98,-9.01 -4.52,-13.79 -1.38,-2.6 -4.06,-5.42 -7.08,-8.61 -8.17,-8.6 -18.74,-19.73 -16.71,-38.61l0.54 -5.07 3.04 4.1c11.73,15.82 20.45,15.75 30.89,15.66 11.22,-0.09 24.28,-0.19 44.08,16.29 2.54,-9.54 3.24,-20.91 1.1,-31.63 -1.95,-9.82 -6.3,-19.06 -13.8,-25.75l-4.65 -4.15 6.19 0.68c20.31,2.21 34.85,7.5 45.94,14.97 9.89,6.66 17.01,15.04 23.03,24.5 2.16,-5.07 5.13,-8.74 8.15,-12.46 2.88,-3.56 5.82,-7.17 7.96,-12.12 1.16,-2.68 1.7,-6.54 2.31,-10.91 1.64,-11.75 3.75,-26.95 19.77,-37.14l4.31 -2.73 -1.31 4.92c-5.06,19.05 0.43,25.83 7.01,33.94 7.07,8.72 15.29,18.86 14.73,44.61 9.05,-3.97 18.38,-10.52 25.42,-18.86 6.46,-7.65 10.97,-16.82 11.53,-26.85l0.34 -6.22 3.33 5.26c10.94,17.27 15.86,31.92 16.93,45.25 0.96,11.89 -1.15,22.67 -4.79,33.28 5.31,-1.47 10.03,-1.43 14.82,-1.39 4.56,0.03 9.21,0.07 14.45,-1.34 2.81,-0.76 6.16,-2.75 9.94,-4.99 10.21,-6.05 23.43,-13.88 41.38,-7.7l4.83 1.66 -4.68 2.05c-18.03,7.91 -19.9,16.42 -22.14,26.63 -2.41,10.95 -5.21,23.71 -25.69,39.35 8.75,4.6 19.68,7.82 30.59,8.12 10.01,0.28 19.99,-1.9 28.19,-7.73l5.07 -3.61 -2.03 5.88c-6.68,19.31 -15.07,32.3 -24.82,41.45 -8.7,8.17 -18.45,13.24 -29.02,17 4.46,3.23 7.37,6.94 10.32,10.71 2.83,3.6 5.7,7.26 10.05,10.46 2.37,1.73 6.01,3.12 10.12,4.68 11.1,4.2 25.45,9.65 31.81,27.54l1.71 4.81 -4.52 -2.38c-17.4,-9.15 -25.26,-5.31 -34.66,-0.71 -10.08,4.94 -21.82,10.68 -46.74,4.45 1.86,9.71 6.16,20.26 12.73,28.98l0 0c6.03,8 13.96,14.44 23.62,17.22l5.99 1.72 -5.87 2.08c-19.26,6.81 -34.64,8.36 -47.88,6.44 -11.81,-1.72 -21.86,-6.17 -31.39,-12.09 0.26,5.51 -0.83,10.09 -1.93,14.74 -1.06,4.46 -2.13,9 -1.92,14.38 0.11,2.93 1.31,6.64 2.65,10.84 3.63,11.3 8.32,25.91 -1.7,42.03l-2.69 4.34 -0.96 -5.02c-3.7,-19.34 -11.6,-23.07 -21.05,-27.53 -10.15,-4.78 -21.96,-10.36 -32.62,-33.79zm0.58 -3.62c-13.78,14.58 -24.72,40.3 -15.87,61.6 -34.08,-21.24 -42.35,-43.34 -44.5,-68.13 -8.79,9.74 -18.51,9.74 -28.05,17.99 -8.54,7.38 -14.62,30.28 -39.67,33.23 27.33,-31.88 -9.47,-35.86 16.16,-83.3 -19.99,-1.67 -46.93,5.82 -58.06,26.01 -4.64,-39.88 7.48,-60.13 25.53,-77.29 -13.09,-0.8 -19.15,-8.4 -31.55,-10.72 -11.1,-2.07 -32.78,7.45 -50.72,-10.29 41.99,1.47 22.17,-29.81 75.19,-39.29 -11.17,-16.66 -33.82,-33.05 -56.55,-29.16 28.29,-28.5 51.68,-31.65 76.34,-28.24 -7.53,-10.74 -5.37,-20.22 -11.29,-31.35 -5.29,-9.98 -26.26,-20.99 -23.57,-46.08 25.02,33.75 37.03,-1.25 77.62,34.28 6.09,-19.11 4.79,-47.03 -12.43,-62.38 39.92,4.35 56.96,20.67 69.66,42.07 3.69,-12.58 12.45,-16.8 17.47,-28.37 4.49,-10.36 0.03,-33.62 21.32,-47.15 -10.78,40.59 24.1,28.21 21.58,82.06 18.74,-7.16 39.76,-25.59 41.03,-48.62 21.48,33.93 19.34,57.43 10.53,80.7 12.14,-4.96 20.9,-0.75 33.07,-4.04 10.87,-2.93 26.31,-20.94 50.17,-12.72 -38.46,16.87 -7.03,36.39 -50.7,68.04 17.29,10.19 44.8,15.14 63.59,1.77 -13.12,37.95 -32.83,50.93 -56.52,58.54 11.44,6.39 13.6,15.87 23.77,23.33 9.09,6.69 32.77,7.51 41.22,31.29 -37.1,-19.51 -32.95,17.16 -84.8,2.79 2.82,19.88 16.11,44.46 38.27,50.83 -37.85,13.4 -60.28,6.08 -81.01,-7.7 2.13,12.93 -3.93,20.53 -3.43,33.13 0.44,11.29 14.56,30.31 1.25,51.74 -7.89,-41.25 -33.96,-14.97 -55.05,-64.57z"/>
     </g>
     <circle fill="none" stroke="black" stroke-width="2" cx="1181.02" cy="725.51" r="107.88"/>
    </g>
    <g>
    </g>
   </g>
   <g clip-path="url(#id2)">
   </g>
   <g clip-path="url(#id3)">
    <path fill="none" stroke="black" stroke-width="2" d="M1181.02 2030.75c80.48,0 145.77,65.29 145.77,145.77 0,80.48 -65.29,145.77 -145.77,145.77 -80.48,0 -145.77,-65.29 -145.77,-145.77 0,-80.48 65.29,-145.77 145.77,-145.77z"/>
    <line fill="none" stroke="black" stroke-width="2" x1="1642.78" y1="157.05" x2="1904.2" y2= "609.84" />
    <line fill="none" stroke="black" stroke-width="2" x1="919.6" y1="41.38" x2="1442.44" y2= "41.38" />
    <line fill="none" stroke="black" stroke-width="2" x1="719.26" y1="157.05" x2="457.84" y2= "609.85" />
    <line fill="none" stroke="black" stroke-width="2" x1="457.84" y1="841.18" x2="719.26" y2= "1293.97" />
    <line fill="none" stroke="black" stroke-width="2" x1="919.6" y1="1409.64" x2="1442.44" y2= "1409.64" />
    <line fill="none" stroke="black" stroke-width="2" x1="1442.44" y1="1492.39" x2="919.6" y2= "1492.39" />
    <line fill="none" stroke="black" stroke-width="2" x1="1642.78" y1="1293.97" x2="1904.2" y2= "841.18" />
    <line fill="none" stroke="black" stroke-width="2" x1="1642.78" y1="1608.06" x2="1904.2" y2= "2060.85" />
    <line fill="none" stroke="black" stroke-width="2" x1="1904.2" y1="2292.19" x2="1642.78" y2= "2744.98" />
    <line fill="none" stroke="black" stroke-width="2" x1="919.6" y1="2860.65" x2="1442.44" y2= "2860.65" />
    <line fill="none" stroke="black" stroke-width="2" x1="457.83" y1="2292.19" x2="719.25" y2= "2744.98" />
    <line fill="none" stroke="black" stroke-width="2" x1="719.26" y1="1608.06" x2="457.84" y2= "2060.85" />
   </g>
  </g>
  <polygon fill="none" fill-rule="nonzero" points="1026.49,1908.87 908.98,1451.01 1026.49,993.16 688.73,1323.85 416.69,852.67 871.97,725.51 416.69,598.35 688.73,127.16 1026.49,457.86 908.98,0 1453.06,0 1335.55,457.86 1673.31,127.16 1945.35,598.35 1490.08,725.51 1945.35,852.67 1673.31,1323.85 1335.55,993.16 1453.06,1451.01 1335.55,1908.87 1673.31,1578.17 1945.35,2049.36 1490.08,2176.52 1945.35,2303.68 1673.31,2774.87 1335.55,2444.17 1453.06,2902.03 908.98,2902.03 1026.49,2444.17 688.73,2774.87 416.69,2303.68 871.97,2176.52 416.69,2049.36 688.73,1578.17 "/>
 </g>
</svg>
