<?xml version="1.0" encoding="UTF-8"?>
<!DOCTYPE svg PUBLIC "-//W3C//DTD SVG 1.1//EN" "http://www.w3.org/Graphics/SVG/1.1/DTD/svg11.dtd">
<!-- Creator: CorelDRAW 2020 (64-Bit) -->
<svg xmlns="http://www.w3.org/2000/svg" xml:space="preserve" width="2029px" height="3027px" version="1.1" shape-rendering="geometricPrecision" text-rendering="geometricPrecision" image-rendering="optimizeQuality" fill-rule="evenodd" clip-rule="evenodd"
viewBox="0 0 194535 290202"
 xmlns:xlink="http://www.w3.org/1999/xlink"
 xmlns:xodm="http://www.corel.com/coreldraw/odm/2003">
 <defs>
    <clipPath id="id0" clip-rule="nonzero">
     <path d="M102649 99316l-33775 33069 -27204 -47118 45527 -12716 15452 26765z"/>
    </clipPath>
    <clipPath id="id1" clip-rule="nonzero">
     <path d="M133555 45786l15453 26765 -15453 26765 -30906 0 -15452 -26765 15452 -26765 30906 0z"/>
    </clipPath>
    <clipPath id="id2" clip-rule="nonzero">
     <path d="M102649 45786l-11751 -45786 54408 0 -11751 45786 -30906 0z"/>
    </clipPath>
    <clipPath id="id3" clip-rule="nonzero">
     <path d="M133555 99316l11751 45785 -54408 0 11751 -45785 30906 0z"/>
    </clipPath>
    <clipPath id="id4" clip-rule="nonzero">
     <path d="M133555 45786l33776 -33070 27204 47119 -45527 12716 -15453 -26765z"/>
    </clipPath>
    <clipPath id="id5" clip-rule="nonzero">
     <path d="M102649 244417l-15452 -26765 15452 -26765 30906 0 15453 26765 -15453 26765 -30906 0z"/>
    </clipPath>
    <clipPath id="id6" clip-rule="nonzero">
     <path d="M102649 244417l-11751 45785 54408 0 -11751 -45785 -30906 0z"/>
    </clipPath>
    <clipPath id="id7" clip-rule="nonzero">
     <path d="M133555 190887l11751 -45786 -54408 0 11751 45786 30906 0z"/>
    </clipPath>
    <clipPath id="id8" clip-rule="nonzero">
     <path d="M87197 217652l-45528 12716 27204 47118 33776 -33069 -15452 -26765z"/>
    </clipPath>
    <clipPath id="id9" clip-rule="nonzero">
     <path d="M102649 190887l-33776 -33070 -27204 47119 45528 12716 15452 -26765z"/>
    </clipPath>
    <clipPath id="id10" clip-rule="nonzero">
     <path d="M149008 217652l45527 -12716 -27204 -47119 -33776 33070 15453 26765z"/>
    </clipPath>
    <clipPath id="id11" clip-rule="nonzero">
     <path d="M133555 244417l33776 33069 27204 -47118 -45527 -12716 -15453 26765z"/>
    </clipPath>
    <clipPath id="id12" clip-rule="nonzero">
     <path d="M149008 72551l45527 12716 -27204 47118 -33776 -33069 15453 -26765z"/>
    </clipPath>
    <clipPath id="id13" clip-rule="nonzero">
     <path d="M87197 72551l-45527 -12716 27204 -47119 33775 33070 -15452 26765z"/>
    </clipPath>
   <clipPath id="id14">
    <path d="M0 98590l0 -16985 16985 0 0 16985 -16985 0z"/>
   </clipPath>
 </defs>
<symbol id="Pattern_x0020_Lines" viewBox="62943 106514 77013 77013">
 <polygon fill="white" points="70944,122141 63317,114514 70944,106887 78570,114514 "/>
 <path id="1" fill="black" fill-rule="nonzero" d="M63504 114327l7626 7627 -373 373 -7627 -7626 0 -374 374 0zm-374 374l-187 -187 187 -187 0 374zm8000 -7627l-7626 7627 -374 -374 7627 -7626 373 0 0 373zm-373 -373l187 -187 186 187 -373 0zm7626 8000l-7626 -7627 373 -373 7627 7626 0 374 -374 0zm374 -374l187 187 -187 187 0 -374zm-8000 7627l7626 -7627 374 374 -7627 7626 -373 0 0 -373zm373 373l-186 187 -187 -187 373 0z"/>
 <path fill="black" fill-rule="nonzero" d="M70728 122293l-6301 -8953 432 -304 6300 8953 -431 304zm6732 -8953l-6301 8953 -431 -304 6300 -8953 432 304zm-1794 -1873l-4479 10775 -487 -203 4478 -10774 488 202zm-2097 -2166l-2366 12887 -519 -95 2366 -12887 519 95zm-2890 12840l0 -15254 529 0 0 15254 -529 0zm5 47l-2366 -12887 519 -95 2366 12887 -519 95zm16 54l-4479 -10775 488 -202 4478 10774 -487 203z"/>
 <polygon fill="white" points="70944,122141 67130,118327 70944,114514 74757,118327 "/>
 <path id="1" fill="black" fill-rule="nonzero" d="M67317 118141l3813 3813 -373 373 -3813 -3813 0 -373 373 0zm-373 373l-187 -187 187 -186 0 373zm4186 -3813l-3813 3813 -373 -373 3813 -3814 373 0 0 374zm-373 -374l187 -186 186 186 -373 0zm3813 4187l-3813 -3813 373 -374 3814 3814 0 373 -374 0zm374 -373l186 186 -186 187 0 -373zm-4187 3813l3813 -3813 374 373 -3814 3813 -373 0 0 -373zm373 373l-186 187 -187 -187 373 0z"/>
 <polygon fill="white" points="70944,137394 63317,129767 70944,122141 78570,129767 "/>
 <path id="1" fill="black" fill-rule="nonzero" d="M63504 129581l7626 7626 -373 374 -7627 -7627 0 -373 374 0zm-374 373l-187 -187 187 -186 0 373zm8000 -7627l-7626 7627 -374 -373 7627 -7627 373 0 0 373zm-373 -373l187 -187 186 187 -373 0zm7626 8000l-7626 -7627 373 -373 7627 7627 0 373 -374 0zm374 -373l187 186 -187 187 0 -373zm-8000 7626l7626 -7626 374 373 -7627 7627 -373 0 0 -374zm373 374l-186 186 -187 -186 373 0z"/>
 <path fill="black" fill-rule="nonzero" d="M70728 137546l-6301 -8953 432 -304 6300 8953 -431 304zm6732 -8953l-6301 8953 -431 -304 6300 -8953 432 304zm-1794 -1872l-4479 10774 -487 -202 4478 -10775 488 203zm-2097 -2166l-2366 12887 -519 -96 2366 -12887 519 96zm-2890 12839l0 -15253 529 0 0 15253 -529 0zm5 48l-2366 -12887 519 -96 2366 12887 -519 96zm16 53l-4479 -10774 488 -203 4478 10775 -487 202z"/>
 <polygon fill="white" points="70944,137394 67130,133581 70944,129767 74757,133581 "/>
 <path id="1" fill="black" fill-rule="nonzero" d="M67317 133394l3813 3813 -373 374 -3813 -3814 0 -373 373 0zm-373 373l-187 -186 187 -187 0 373zm4186 -3813l-3813 3813 -373 -373 3813 -3813 373 0 0 373zm-373 -373l187 -187 186 187 -373 0zm3813 4186l-3813 -3813 373 -373 3814 3813 0 373 -374 0zm374 -373l186 187 -186 186 0 -373zm-4187 3813l3813 -3813 374 373 -3814 3814 -373 0 0 -374zm373 374l-186 186 -187 -186 373 0z"/>
 <polygon fill="white" points="70944,152647 63317,145021 70944,137394 78570,145021 "/>
 <path id="1" fill="black" fill-rule="nonzero" d="M63504 144834l7626 7626 -373 374 -7627 -7627 0 -373 374 0zm-374 373l-187 -186 187 -187 0 373zm8000 -7626l-7626 7626 -374 -373 7627 -7627 373 0 0 374zm-373 -374l187 -186 186 186 -373 0zm7626 8000l-7626 -7626 373 -374 7627 7627 0 373 -374 0zm374 -373l187 187 -187 186 0 -373zm-8000 7626l7626 -7626 374 373 -7627 7627 -373 0 0 -374zm373 374l-186 187 -187 -187 373 0z"/>
 <path fill="black" fill-rule="nonzero" d="M70728 152799l-6301 -8953 432 -304 6300 8953 -431 304zm6732 -8953l-6301 8953 -431 -304 6300 -8953 432 304zm-1794 -1872l-4479 10775 -487 -203 4478 -10775 488 203zm-2097 -2166l-2366 12887 -519 -95 2366 -12888 519 96zm-2890 12839l0 -15253 529 0 0 15253 -529 0zm5 48l-2366 -12887 519 -96 2366 12888 -519 95zm16 54l-4479 -10775 488 -203 4478 10775 -487 203z"/>
 <polygon fill="white" points="70944,152647 67130,148834 70944,145021 74757,148834 "/>
 <path id="1" fill="black" fill-rule="nonzero" d="M67317 148647l3813 3813 -373 374 -3813 -3813 0 -374 373 0zm-373 374l-187 -187 187 -187 0 374zm4186 -3814l-3813 3814 -373 -374 3813 -3813 373 0 0 373zm-373 -373l187 -187 186 187 -373 0zm3813 4187l-3813 -3814 373 -373 3814 3813 0 374 -374 0zm374 -374l186 187 -186 187 0 -374zm-4187 3813l3813 -3813 374 374 -3814 3813 -373 0 0 -374zm373 374l-186 187 -187 -187 373 0z"/>
 <polygon fill="white" points="70944,167900 63317,160274 70944,152647 78570,160274 "/>
 <path id="1" fill="black" fill-rule="nonzero" d="M63504 160087l7626 7627 -373 373 -7627 -7626 0 -374 374 0zm-374 374l-187 -187 187 -187 0 374zm8000 -7627l-7626 7627 -374 -374 7627 -7627 373 0 0 374zm-373 -374l187 -186 186 186 -373 0zm7626 8001l-7626 -7627 373 -374 7627 7627 0 374 -374 0zm374 -374l187 187 -187 187 0 -374zm-8000 7627l7626 -7627 374 374 -7627 7626 -373 0 0 -373zm373 373l-186 187 -187 -187 373 0z"/>
 <path fill="black" fill-rule="nonzero" d="M70728 168052l-6301 -8953 432 -304 6300 8953 -431 304zm6732 -8953l-6301 8953 -431 -304 6300 -8953 432 304zm-1794 -1872l-4479 10775 -487 -203 4478 -10775 488 203zm-2097 -2166l-2366 12887 -519 -95 2366 -12887 519 95zm-2890 12839l0 -15253 529 0 0 15253 -529 0zm5 48l-2366 -12887 519 -95 2366 12887 -519 95zm16 54l-4479 -10775 488 -203 4478 10775 -487 203z"/>
 <polygon fill="white" points="70944,167900 67130,164087 70944,160274 74757,164087 "/>
 <path id="1" fill="black" fill-rule="nonzero" d="M67317 163900l3813 3814 -373 373 -3813 -3813 0 -374 373 0zm-373 374l-187 -187 187 -187 0 374zm4186 -3813l-3813 3813 -373 -374 3813 -3813 373 0 0 374zm-373 -374l187 -187 186 187 -373 0zm3813 4187l-3813 -3813 373 -374 3814 3813 0 374 -374 0zm374 -374l186 187 -186 187 0 -374zm-4187 3814l3813 -3814 374 374 -3814 3813 -373 0 0 -373zm373 373l-186 187 -187 -187 373 0z"/>
 <polygon fill="white" points="70944,183154 63317,175527 70944,167900 78570,175527 "/>
 <path id="1" fill="black" fill-rule="nonzero" d="M63504 175340l7626 7627 -373 373 -7627 -7626 0 -374 374 0zm-374 374l-187 -187 187 -187 0 374zm8000 -7627l-7626 7627 -374 -374 7627 -7626 373 0 0 373zm-373 -373l187 -187 186 187 -373 0zm7626 8000l-7626 -7627 373 -373 7627 7626 0 374 -374 0zm374 -374l187 187 -187 187 0 -374zm-8000 7627l7626 -7627 374 374 -7627 7626 -373 0 0 -373zm373 373l-186 187 -187 -187 373 0z"/>
 <path fill="black" fill-rule="nonzero" d="M70728 183306l-6301 -8953 432 -304 6300 8953 -431 304zm6732 -8954l-6301 8954 -431 -304 6300 -8953 432 303zm-1794 -1872l-4479 10775 -487 -203 4478 -10774 488 202zm-2097 -2166l-2366 12887 -519 -95 2366 -12887 519 95zm-2890 12840l0 -15254 529 0 0 15254 -529 0zm5 47l-2366 -12887 519 -95 2366 12887 -519 95zm16 54l-4479 -10775 488 -202 4478 10774 -487 203z"/>
 <polygon fill="white" points="70944,183154 67130,179340 70944,175527 74757,179340 "/>
 <path id="1" fill="black" fill-rule="nonzero" d="M67317 179154l3813 3813 -373 373 -3813 -3813 0 -373 373 0zm-373 373l-187 -187 187 -186 0 373zm4186 -3813l-3813 3813 -373 -373 3813 -3814 373 0 0 374zm-373 -374l187 -186 186 186 -373 0zm3813 4187l-3813 -3813 373 -374 3814 3814 0 373 -374 0zm374 -373l186 186 -186 187 0 -373zm-4187 3813l3813 -3813 374 373 -3814 3813 -373 0 0 -373zm373 373l-186 187 -187 -187 373 0z"/>
 <polygon fill="white" points="86197,122141 78570,114514 86197,106887 93823,114514 "/>
 <path id="1" fill="black" fill-rule="nonzero" d="M78757 114327l7626 7627 -373 373 -7627 -7626 0 -374 374 0zm-374 374l-186 -187 186 -187 0 374zm8000 -7627l-7626 7627 -374 -374 7627 -7626 373 0 0 373zm-373 -373l187 -187 186 187 -373 0zm7627 8000l-7627 -7627 373 -373 7627 7626 0 374 -373 0zm373 -374l187 187 -187 187 0 -374zm-8000 7627l7627 -7627 373 374 -7627 7626 -373 0 0 -373zm373 373l-186 187 -187 -187 373 0z"/>
 <path fill="black" fill-rule="nonzero" d="M85981 122293l-6300 -8953 431 -304 6301 8953 -432 304zm6732 -8953l-6300 8953 -432 -304 6300 -8953 432 304zm-1794 -1873l-4478 10775 -488 -203 4479 -10774 487 202zm-2096 -2166l-2366 12887 -520 -95 2366 -12887 520 95zm-2890 12840l0 -15254 528 0 0 15254 -528 0zm4 47l-2366 -12887 519 -95 2367 12887 -520 95zm16 54l-4479 -10775 488 -202 4479 10774 -488 203z"/>
 <polygon fill="white" points="86197,122141 82384,118327 86197,114514 90010,118327 "/>
 <path id="1" fill="black" fill-rule="nonzero" d="M82570 118141l3813 3813 -373 373 -3813 -3813 0 -373 373 0zm-373 373l-187 -187 187 -186 0 373zm4186 -3813l-3813 3813 -373 -373 3813 -3814 373 0 0 374zm-373 -374l187 -186 186 186 -373 0zm3813 4187l-3813 -3813 373 -374 3814 3814 0 373 -374 0zm374 -373l186 186 -186 187 0 -373zm-4187 3813l3813 -3813 374 373 -3814 3813 -373 0 0 -373zm373 373l-186 187 -187 -187 373 0z"/>
 <polygon fill="white" points="86197,137394 78570,129767 86197,122141 93823,129767 "/>
 <path id="1" fill="black" fill-rule="nonzero" d="M78757 129581l7626 7626 -373 374 -7627 -7627 0 -373 374 0zm-374 373l-186 -187 186 -186 0 373zm8000 -7627l-7626 7627 -374 -373 7627 -7627 373 0 0 373zm-373 -373l187 -187 186 187 -373 0zm7627 8000l-7627 -7627 373 -373 7627 7627 0 373 -373 0zm373 -373l187 186 -187 187 0 -373zm-8000 7626l7627 -7626 373 373 -7627 7627 -373 0 0 -374zm373 374l-186 186 -187 -186 373 0z"/>
 <path fill="black" fill-rule="nonzero" d="M85981 137546l-6300 -8953 431 -304 6301 8953 -432 304zm6732 -8953l-6300 8953 -432 -304 6300 -8953 432 304zm-1794 -1872l-4478 10774 -488 -202 4479 -10775 487 203zm-2096 -2166l-2366 12887 -520 -96 2366 -12887 520 96zm-2890 12839l0 -15253 528 0 0 15253 -528 0zm4 48l-2366 -12887 519 -96 2367 12887 -520 96zm16 53l-4479 -10774 488 -203 4479 10775 -488 202z"/>
 <polygon fill="white" points="86197,137394 82384,133581 86197,129767 90010,133581 "/>
 <path id="1" fill="black" fill-rule="nonzero" d="M82570 133394l3813 3813 -373 374 -3813 -3814 0 -373 373 0zm-373 373l-187 -186 187 -187 0 373zm4186 -3813l-3813 3813 -373 -373 3813 -3813 373 0 0 373zm-373 -373l187 -187 186 187 -373 0zm3813 4186l-3813 -3813 373 -373 3814 3813 0 373 -374 0zm374 -373l186 187 -186 186 0 -373zm-4187 3813l3813 -3813 374 373 -3814 3814 -373 0 0 -374zm373 374l-186 186 -187 -186 373 0z"/>
 <polygon fill="white" points="86197,152647 78570,145021 86197,137394 93823,145021 "/>
 <path id="1" fill="black" fill-rule="nonzero" d="M78757 144834l7626 7626 -373 374 -7627 -7627 0 -373 374 0zm-374 373l-186 -186 186 -187 0 373zm8000 -7626l-7626 7626 -374 -373 7627 -7627 373 0 0 374zm-373 -374l187 -186 186 186 -373 0zm7627 8000l-7627 -7626 373 -374 7627 7627 0 373 -373 0zm373 -373l187 187 -187 186 0 -373zm-8000 7626l7627 -7626 373 373 -7627 7627 -373 0 0 -374zm373 374l-186 187 -187 -187 373 0z"/>
 <path fill="black" fill-rule="nonzero" d="M85981 152799l-6300 -8953 431 -304 6301 8953 -432 304zm6732 -8953l-6300 8953 -432 -304 6300 -8953 432 304zm-1794 -1872l-4478 10775 -488 -203 4479 -10775 487 203zm-2096 -2166l-2366 12887 -520 -95 2366 -12888 520 96zm-2890 12839l0 -15253 528 0 0 15253 -528 0zm4 48l-2366 -12887 519 -96 2367 12888 -520 95zm16 54l-4479 -10775 488 -203 4479 10775 -488 203z"/>
 <polygon fill="white" points="86197,152647 82384,148834 86197,145021 90010,148834 "/>
 <path id="1" fill="black" fill-rule="nonzero" d="M82570 148647l3813 3813 -373 374 -3813 -3813 0 -374 373 0zm-373 374l-187 -187 187 -187 0 374zm4186 -3814l-3813 3814 -373 -374 3813 -3813 373 0 0 373zm-373 -373l187 -187 186 187 -373 0zm3813 4187l-3813 -3814 373 -373 3814 3813 0 374 -374 0zm374 -374l186 187 -186 187 0 -374zm-4187 3813l3813 -3813 374 374 -3814 3813 -373 0 0 -374zm373 374l-186 187 -187 -187 373 0z"/>
 <polygon fill="white" points="86197,167900 78570,160274 86197,152647 93823,160274 "/>
 <path id="1" fill="black" fill-rule="nonzero" d="M78757 160087l7626 7627 -373 373 -7627 -7626 0 -374 374 0zm-374 374l-186 -187 186 -187 0 374zm8000 -7627l-7626 7627 -374 -374 7627 -7627 373 0 0 374zm-373 -374l187 -186 186 186 -373 0zm7627 8001l-7627 -7627 373 -374 7627 7627 0 374 -373 0zm373 -374l187 187 -187 187 0 -374zm-8000 7627l7627 -7627 373 374 -7627 7626 -373 0 0 -373zm373 373l-186 187 -187 -187 373 0z"/>
 <path fill="black" fill-rule="nonzero" d="M85981 168052l-6300 -8953 431 -304 6301 8953 -432 304zm6732 -8953l-6300 8953 -432 -304 6300 -8953 432 304zm-1794 -1872l-4478 10775 -488 -203 4479 -10775 487 203zm-2096 -2166l-2366 12887 -520 -95 2366 -12887 520 95zm-2890 12839l0 -15253 528 0 0 15253 -528 0zm4 48l-2366 -12887 519 -95 2367 12887 -520 95zm16 54l-4479 -10775 488 -203 4479 10775 -488 203z"/>
 <polygon fill="white" points="86197,167900 82384,164087 86197,160274 90010,164087 "/>
 <path id="1" fill="black" fill-rule="nonzero" d="M82570 163900l3813 3814 -373 373 -3813 -3813 0 -374 373 0zm-373 374l-187 -187 187 -187 0 374zm4186 -3813l-3813 3813 -373 -374 3813 -3813 373 0 0 374zm-373 -374l187 -187 186 187 -373 0zm3813 4187l-3813 -3813 373 -374 3814 3813 0 374 -374 0zm374 -374l186 187 -186 187 0 -374zm-4187 3814l3813 -3814 374 374 -3814 3813 -373 0 0 -373zm373 373l-186 187 -187 -187 373 0z"/>
 <polygon fill="white" points="86197,183154 78570,175527 86197,167900 93823,175527 "/>
 <path id="1" fill="black" fill-rule="nonzero" d="M78757 175340l7626 7627 -373 373 -7627 -7626 0 -374 374 0zm-374 374l-186 -187 186 -187 0 374zm8000 -7627l-7626 7627 -374 -374 7627 -7626 373 0 0 373zm-373 -373l187 -187 186 187 -373 0zm7627 8000l-7627 -7627 373 -373 7627 7626 0 374 -373 0zm373 -374l187 187 -187 187 0 -374zm-8000 7627l7627 -7627 373 374 -7627 7626 -373 0 0 -373zm373 373l-186 187 -187 -187 373 0z"/>
 <path fill="black" fill-rule="nonzero" d="M85981 183306l-6300 -8953 431 -304 6301 8953 -432 304zm6732 -8954l-6300 8954 -432 -304 6300 -8953 432 303zm-1794 -1872l-4478 10775 -488 -203 4479 -10774 487 202zm-2096 -2166l-2366 12887 -520 -95 2366 -12887 520 95zm-2890 12840l0 -15254 528 0 0 15254 -528 0zm4 47l-2366 -12887 519 -95 2367 12887 -520 95zm16 54l-4479 -10775 488 -202 4479 10774 -488 203z"/>
 <polygon fill="white" points="86197,183154 82384,179340 86197,175527 90010,179340 "/>
 <path id="1" fill="black" fill-rule="nonzero" d="M82570 179154l3813 3813 -373 373 -3813 -3813 0 -373 373 0zm-373 373l-187 -187 187 -186 0 373zm4186 -3813l-3813 3813 -373 -373 3813 -3814 373 0 0 374zm-373 -374l187 -186 186 186 -373 0zm3813 4187l-3813 -3813 373 -374 3814 3814 0 373 -374 0zm374 -373l186 186 -186 187 0 -373zm-4187 3813l3813 -3813 374 373 -3814 3813 -373 0 0 -373zm373 373l-186 187 -187 -187 373 0z"/>
 <polygon fill="white" points="78570,129767 70944,122141 78570,114514 86197,122141 "/>
 <path id="1" fill="black" fill-rule="nonzero" d="M71130 121954l7627 7627 -374 373 -7626 -7627 0 -373 373 0zm-373 373l-187 -186 187 -187 0 373zm8000 -7626l-7627 7626 -373 -373 7626 -7627 374 0 0 374zm-374 -374l187 -186 187 186 -374 0zm7627 8000l-7627 -7626 374 -374 7626 7627 0 373 -373 0zm373 -373l187 187 -187 186 0 -373zm-8000 7627l7627 -7627 373 373 -7626 7627 -374 0 0 -373zm374 373l-187 187 -187 -187 374 0z"/>
 <path fill="black" fill-rule="nonzero" d="M78354 129919l-6300 -8953 432 -304 6300 8953 -432 304zm6732 -8953l-6300 8953 -432 -304 6300 -8953 432 304zm-1793 -1872l-4479 10775 -488 -203 4479 -10775 488 203zm-2097 -2166l-2366 12887 -520 -95 2367 -12887 519 95zm-2890 12839l0 -15253 528 0 0 15253 -528 0zm4 48l-2366 -12887 520 -95 2366 12887 -520 95zm16 54l-4478 -10775 487 -203 4479 10775 -488 203z"/>
 <polygon fill="white" points="78570,129767 74757,125954 78570,122141 82383,125954 "/>
 <path id="1" fill="black" fill-rule="nonzero" d="M74944 125767l3813 3814 -374 373 -3813 -3813 0 -374 374 0zm-374 374l-187 -187 187 -187 0 374zm4187 -3814l-3813 3814 -374 -374 3813 -3813 374 0 0 373zm-374 -373l187 -187 187 187 -374 0zm3814 4187l-3814 -3814 374 -373 3813 3813 0 374 -373 0zm373 -374l187 187 -187 187 0 -374zm-4187 3814l3814 -3814 373 374 -3813 3813 -374 0 0 -373zm374 373l-187 187 -187 -187 374 0z"/>
 <polygon fill="white" points="78570,145021 70944,137394 78570,129767 86197,137394 "/>
 <path id="1" fill="black" fill-rule="nonzero" d="M71130 137207l7627 7627 -374 373 -7626 -7626 0 -374 373 0zm-373 374l-187 -187 187 -187 0 374zm8000 -7627l-7627 7627 -373 -374 7626 -7626 374 0 0 373zm-374 -373l187 -187 187 187 -374 0zm7627 8000l-7627 -7627 374 -373 7626 7626 0 374 -373 0zm373 -374l187 187 -187 187 0 -374zm-8000 7627l7627 -7627 373 374 -7626 7626 -374 0 0 -373zm374 373l-187 187 -187 -187 374 0z"/>
 <path fill="black" fill-rule="nonzero" d="M78354 145173l-6300 -8954 432 -303 6300 8953 -432 304zm6732 -8954l-6300 8954 -432 -304 6300 -8954 432 304zm-1793 -1872l-4479 10775 -488 -203 4479 -10774 488 202zm-2097 -2166l-2366 12887 -520 -95 2367 -12887 519 95zm-2890 12840l0 -15254 528 0 0 15254 -528 0zm4 47l-2366 -12887 520 -95 2366 12887 -520 95zm16 54l-4478 -10775 487 -202 4479 10774 -488 203z"/>
 <polygon fill="white" points="78570,145021 74757,141207 78570,137394 82383,141207 "/>
 <path id="1" fill="black" fill-rule="nonzero" d="M74944 141020l3813 3814 -374 373 -3813 -3813 0 -374 374 0zm-374 374l-187 -187 187 -187 0 374zm4187 -3813l-3813 3813 -374 -374 3813 -3813 374 0 0 374zm-374 -374l187 -186 187 186 -374 0zm3814 4187l-3814 -3813 374 -374 3813 3813 0 374 -373 0zm373 -374l187 187 -187 187 0 -374zm-4187 3814l3814 -3814 373 374 -3813 3813 -374 0 0 -373zm374 373l-187 187 -187 -187 374 0z"/>
 <polygon fill="white" points="78570,160274 70944,152647 78570,145021 86197,152647 "/>
 <path id="1" fill="black" fill-rule="nonzero" d="M71130 152460l7627 7627 -374 374 -7626 -7627 0 -374 373 0zm-373 374l-187 -187 187 -187 0 374zm8000 -7627l-7627 7627 -373 -374 7626 -7626 374 0 0 373zm-374 -373l187 -187 187 187 -374 0zm7627 8000l-7627 -7627 374 -373 7626 7626 0 374 -373 0zm373 -374l187 187 -187 187 0 -374zm-8000 7627l7627 -7627 373 374 -7626 7627 -374 0 0 -374zm374 374l-187 186 -187 -186 374 0z"/>
 <path fill="black" fill-rule="nonzero" d="M78354 160426l-6300 -8953 432 -304 6300 8953 -432 304zm6732 -8953l-6300 8953 -432 -304 6300 -8953 432 304zm-1793 -1872l-4479 10774 -488 -203 4479 -10774 488 203zm-2097 -2167l-2366 12887 -520 -95 2367 -12887 519 95zm-2890 12840l0 -15253 528 0 0 15253 -528 0zm4 47l-2366 -12887 520 -95 2366 12887 -520 95zm16 54l-4478 -10774 487 -203 4479 10774 -488 203z"/>
 <polygon fill="white" points="78570,160274 74757,156460 78570,152647 82383,156460 "/>
 <path id="1" fill="black" fill-rule="nonzero" d="M74944 156274l3813 3813 -374 374 -3813 -3814 0 -373 374 0zm-374 373l-187 -187 187 -186 0 373zm4187 -3813l-3813 3813 -374 -373 3813 -3814 374 0 0 374zm-374 -374l187 -186 187 186 -374 0zm3814 4187l-3814 -3813 374 -374 3813 3814 0 373 -373 0zm373 -373l187 186 -187 187 0 -373zm-4187 3813l3814 -3813 373 373 -3813 3814 -374 0 0 -374zm374 374l-187 186 -187 -186 374 0z"/>
 <polygon fill="white" points="78570,175527 70944,167900 78570,160274 86197,167900 "/>
 <path id="1" fill="black" fill-rule="nonzero" d="M71130 167714l7627 7626 -374 374 -7626 -7627 0 -373 373 0zm-373 373l-187 -187 187 -186 0 373zm8000 -7626l-7627 7626 -373 -373 7626 -7627 374 0 0 374zm-374 -374l187 -187 187 187 -374 0zm7627 8000l-7627 -7626 374 -374 7626 7627 0 373 -373 0zm373 -373l187 186 -187 187 0 -373zm-8000 7626l7627 -7626 373 373 -7626 7627 -374 0 0 -374zm374 374l-187 186 -187 -186 374 0z"/>
 <path fill="black" fill-rule="nonzero" d="M78354 175679l-6300 -8953 432 -304 6300 8953 -432 304zm6732 -8953l-6300 8953 -432 -304 6300 -8953 432 304zm-1793 -1872l-4479 10774 -488 -202 4479 -10775 488 203zm-2097 -2166l-2366 12887 -520 -96 2367 -12887 519 96zm-2890 12839l0 -15253 528 0 0 15253 -528 0zm4 48l-2366 -12887 520 -96 2366 12887 -520 96zm16 53l-4478 -10774 487 -203 4479 10775 -488 202z"/>
 <polygon fill="white" points="78570,175527 74757,171714 78570,167900 82383,171714 "/>
 <path id="1" fill="black" fill-rule="nonzero" d="M74944 171527l3813 3813 -374 374 -3813 -3814 0 -373 374 0zm-374 373l-187 -186 187 -187 0 373zm4187 -3813l-3813 3813 -374 -373 3813 -3813 374 0 0 373zm-374 -373l187 -187 187 187 -374 0zm3814 4186l-3814 -3813 374 -373 3813 3813 0 373 -373 0zm373 -373l187 187 -187 186 0 -373zm-4187 3813l3814 -3813 373 373 -3813 3814 -374 0 0 -374zm374 374l-187 186 -187 -186 374 0z"/>
 <polygon fill="white" points="101450,122141 93823,114514 101450,106887 109077,114514 "/>
 <path id="1" fill="black" fill-rule="nonzero" d="M94010 114327l7627 7627 -374 373 -7626 -7626 0 -374 373 0zm-373 374l-187 -187 187 -187 0 374zm8000 -7627l-7627 7627 -373 -374 7626 -7626 374 0 0 373zm-374 -373l187 -187 187 187 -374 0zm7627 8000l-7627 -7627 374 -373 7626 7626 0 374 -373 0zm373 -374l187 187 -187 187 0 -374zm-8000 7627l7627 -7627 373 374 -7626 7626 -374 0 0 -373zm374 373l-187 187 -187 -187 374 0z"/>
 <path fill="black" fill-rule="nonzero" d="M101234 122293l-6300 -8953 432 -304 6300 8953 -432 304zm6732 -8953l-6300 8953 -432 -304 6300 -8953 432 304zm-1793 -1873l-4479 10775 -488 -203 4479 -10774 488 202zm-2097 -2166l-2366 12887 -520 -95 2366 -12887 520 95zm-2890 12840l0 -15254 528 0 0 15254 -528 0zm4 47l-2366 -12887 520 -95 2366 12887 -520 95zm16 54l-4479 -10775 488 -202 4479 10774 -488 203z"/>
 <polygon fill="white" points="101450,122141 97637,118327 101450,114514 105263,118327 "/>
 <path id="1" fill="black" fill-rule="nonzero" d="M97823 118141l3814 3813 -374 373 -3813 -3813 0 -373 373 0zm-373 373l-187 -187 187 -186 0 373zm4187 -3813l-3814 3813 -373 -373 3813 -3814 374 0 0 374zm-374 -374l187 -186 187 186 -374 0zm3814 4187l-3814 -3813 374 -374 3813 3814 0 373 -373 0zm373 -373l187 186 -187 187 0 -373zm-4187 3813l3814 -3813 373 373 -3813 3813 -374 0 0 -373zm374 373l-187 187 -187 -187 374 0z"/>
 <polygon fill="white" points="101450,137394 93823,129767 101450,122141 109077,129767 "/>
 <path id="1" fill="black" fill-rule="nonzero" d="M94010 129581l7627 7626 -374 374 -7626 -7627 0 -373 373 0zm-373 373l-187 -187 187 -186 0 373zm8000 -7627l-7627 7627 -373 -373 7626 -7627 374 0 0 373zm-374 -373l187 -187 187 187 -374 0zm7627 8000l-7627 -7627 374 -373 7626 7627 0 373 -373 0zm373 -373l187 186 -187 187 0 -373zm-8000 7626l7627 -7626 373 373 -7626 7627 -374 0 0 -374zm374 374l-187 186 -187 -186 374 0z"/>
 <path fill="black" fill-rule="nonzero" d="M101234 137546l-6300 -8953 432 -304 6300 8953 -432 304zm6732 -8953l-6300 8953 -432 -304 6300 -8953 432 304zm-1793 -1872l-4479 10774 -488 -202 4479 -10775 488 203zm-2097 -2166l-2366 12887 -520 -96 2366 -12887 520 96zm-2890 12839l0 -15253 528 0 0 15253 -528 0zm4 48l-2366 -12887 520 -96 2366 12887 -520 96zm16 53l-4479 -10774 488 -203 4479 10775 -488 202z"/>
 <polygon fill="white" points="101450,137394 97637,133581 101450,129767 105263,133581 "/>
 <path id="1" fill="black" fill-rule="nonzero" d="M97823 133394l3814 3813 -374 374 -3813 -3814 0 -373 373 0zm-373 373l-187 -186 187 -187 0 373zm4187 -3813l-3814 3813 -373 -373 3813 -3813 374 0 0 373zm-374 -373l187 -187 187 187 -374 0zm3814 4186l-3814 -3813 374 -373 3813 3813 0 373 -373 0zm373 -373l187 187 -187 186 0 -373zm-4187 3813l3814 -3813 373 373 -3813 3814 -374 0 0 -374zm374 374l-187 186 -187 -186 374 0z"/>
 <polygon fill="white" points="101450,152647 93823,145021 101450,137394 109077,145021 "/>
 <path id="1" fill="black" fill-rule="nonzero" d="M94010 144834l7627 7626 -374 374 -7626 -7627 0 -373 373 0zm-373 373l-187 -186 187 -187 0 373zm8000 -7626l-7627 7626 -373 -373 7626 -7627 374 0 0 374zm-374 -374l187 -186 187 186 -374 0zm7627 8000l-7627 -7626 374 -374 7626 7627 0 373 -373 0zm373 -373l187 187 -187 186 0 -373zm-8000 7626l7627 -7626 373 373 -7626 7627 -374 0 0 -374zm374 374l-187 187 -187 -187 374 0z"/>
 <path fill="black" fill-rule="nonzero" d="M101234 152799l-6300 -8953 432 -304 6300 8953 -432 304zm6732 -8953l-6300 8953 -432 -304 6300 -8953 432 304zm-1793 -1872l-4479 10775 -488 -203 4479 -10775 488 203zm-2097 -2166l-2366 12887 -520 -95 2366 -12888 520 96zm-2890 12839l0 -15253 528 0 0 15253 -528 0zm4 48l-2366 -12887 520 -96 2366 12888 -520 95zm16 54l-4479 -10775 488 -203 4479 10775 -488 203z"/>
 <polygon fill="white" points="101450,152647 97637,148834 101450,145021 105263,148834 "/>
 <path id="1" fill="black" fill-rule="nonzero" d="M97823 148647l3814 3813 -374 374 -3813 -3813 0 -374 373 0zm-373 374l-187 -187 187 -187 0 374zm4187 -3814l-3814 3814 -373 -374 3813 -3813 374 0 0 373zm-374 -373l187 -187 187 187 -374 0zm3814 4187l-3814 -3814 374 -373 3813 3813 0 374 -373 0zm373 -374l187 187 -187 187 0 -374zm-4187 3813l3814 -3813 373 374 -3813 3813 -374 0 0 -374zm374 374l-187 187 -187 -187 374 0z"/>
 <polygon fill="white" points="101450,167900 93823,160274 101450,152647 109077,160274 "/>
 <path id="1" fill="black" fill-rule="nonzero" d="M94010 160087l7627 7627 -374 373 -7626 -7626 0 -374 373 0zm-373 374l-187 -187 187 -187 0 374zm8000 -7627l-7627 7627 -373 -374 7626 -7627 374 0 0 374zm-374 -374l187 -186 187 186 -374 0zm7627 8001l-7627 -7627 374 -374 7626 7627 0 374 -373 0zm373 -374l187 187 -187 187 0 -374zm-8000 7627l7627 -7627 373 374 -7626 7626 -374 0 0 -373zm374 373l-187 187 -187 -187 374 0z"/>
 <path fill="black" fill-rule="nonzero" d="M101234 168052l-6300 -8953 432 -304 6300 8953 -432 304zm6732 -8953l-6300 8953 -432 -304 6300 -8953 432 304zm-1793 -1872l-4479 10775 -488 -203 4479 -10775 488 203zm-2097 -2166l-2366 12887 -520 -95 2366 -12887 520 95zm-2890 12839l0 -15253 528 0 0 15253 -528 0zm4 48l-2366 -12887 520 -95 2366 12887 -520 95zm16 54l-4479 -10775 488 -203 4479 10775 -488 203z"/>
 <polygon fill="white" points="101450,167900 97637,164087 101450,160274 105263,164087 "/>
 <path id="1" fill="black" fill-rule="nonzero" d="M97823 163900l3814 3814 -374 373 -3813 -3813 0 -374 373 0zm-373 374l-187 -187 187 -187 0 374zm4187 -3813l-3814 3813 -373 -374 3813 -3813 374 0 0 374zm-374 -374l187 -187 187 187 -374 0zm3814 4187l-3814 -3813 374 -374 3813 3813 0 374 -373 0zm373 -374l187 187 -187 187 0 -374zm-4187 3814l3814 -3814 373 374 -3813 3813 -374 0 0 -373zm374 373l-187 187 -187 -187 374 0z"/>
 <polygon fill="white" points="101450,183154 93823,175527 101450,167900 109077,175527 "/>
 <path id="1" fill="black" fill-rule="nonzero" d="M94010 175340l7627 7627 -374 373 -7626 -7626 0 -374 373 0zm-373 374l-187 -187 187 -187 0 374zm8000 -7627l-7627 7627 -373 -374 7626 -7626 374 0 0 373zm-374 -373l187 -187 187 187 -374 0zm7627 8000l-7627 -7627 374 -373 7626 7626 0 374 -373 0zm373 -374l187 187 -187 187 0 -374zm-8000 7627l7627 -7627 373 374 -7626 7626 -374 0 0 -373zm374 373l-187 187 -187 -187 374 0z"/>
 <path fill="black" fill-rule="nonzero" d="M101234 183306l-6300 -8953 432 -304 6300 8953 -432 304zm6732 -8954l-6300 8954 -432 -304 6300 -8953 432 303zm-1793 -1872l-4479 10775 -488 -203 4479 -10774 488 202zm-2097 -2166l-2366 12887 -520 -95 2366 -12887 520 95zm-2890 12840l0 -15254 528 0 0 15254 -528 0zm4 47l-2366 -12887 520 -95 2366 12887 -520 95zm16 54l-4479 -10775 488 -202 4479 10774 -488 203z"/>
 <polygon fill="white" points="101450,183154 97637,179340 101450,175527 105263,179340 "/>
 <path id="1" fill="black" fill-rule="nonzero" d="M97823 179154l3814 3813 -374 373 -3813 -3813 0 -373 373 0zm-373 373l-187 -187 187 -186 0 373zm4187 -3813l-3814 3813 -373 -373 3813 -3814 374 0 0 374zm-374 -374l187 -186 187 186 -374 0zm3814 4187l-3814 -3813 374 -374 3813 3814 0 373 -373 0zm373 -373l187 186 -187 187 0 -373zm-4187 3813l3814 -3813 373 373 -3813 3813 -374 0 0 -373zm374 373l-187 187 -187 -187 374 0z"/>
 <polygon fill="white" points="93823,129767 86197,122141 93823,114514 101450,122141 "/>
 <path id="1" fill="black" fill-rule="nonzero" d="M86383 121954l7627 7627 -373 373 -7627 -7627 0 -373 373 0zm-373 373l-187 -186 187 -187 0 373zm8000 -7626l-7627 7626 -373 -373 7627 -7627 373 0 0 374zm-373 -374l186 -186 187 186 -373 0zm7626 8000l-7626 -7626 373 -374 7627 7627 0 373 -374 0zm374 -373l186 187 -186 186 0 -373zm-8000 7627l7626 -7627 374 373 -7627 7627 -373 0 0 -373zm373 373l-187 187 -186 -187 373 0z"/>
 <path fill="black" fill-rule="nonzero" d="M93607 129919l-6300 -8953 432 -304 6300 8953 -432 304zm6733 -8953l-6301 8953 -432 -304 6301 -8953 432 304zm-1794 -1872l-4479 10775 -488 -203 4479 -10775 488 203zm-2097 -2166l-2366 12887 -519 -95 2366 -12887 519 95zm-2890 12839l0 -15253 528 0 0 15253 -528 0zm5 48l-2367 -12887 520 -95 2366 12887 -519 95zm15 54l-4478 -10775 488 -203 4478 10775 -488 203z"/>
 <polygon fill="white" points="93823,129767 90010,125954 93823,122141 97637,125954 "/>
 <path id="1" fill="black" fill-rule="nonzero" d="M90197 125767l3813 3814 -373 373 -3814 -3813 0 -374 374 0zm-374 374l-186 -187 186 -187 0 374zm4187 -3814l-3813 3814 -374 -374 3814 -3813 373 0 0 373zm-373 -373l186 -187 187 187 -373 0zm3813 4187l-3813 -3814 373 -373 3813 3813 0 374 -373 0zm373 -374l187 187 -187 187 0 -374zm-4186 3814l3813 -3814 373 374 -3813 3813 -373 0 0 -373zm373 373l-187 187 -186 -187 373 0z"/>
 <polygon fill="white" points="93823,145021 86197,137394 93823,129767 101450,137394 "/>
 <path id="1" fill="black" fill-rule="nonzero" d="M86383 137207l7627 7627 -373 373 -7627 -7626 0 -374 373 0zm-373 374l-187 -187 187 -187 0 374zm8000 -7627l-7627 7627 -373 -374 7627 -7626 373 0 0 373zm-373 -373l186 -187 187 187 -373 0zm7626 8000l-7626 -7627 373 -373 7627 7626 0 374 -374 0zm374 -374l186 187 -186 187 0 -374zm-8000 7627l7626 -7627 374 374 -7627 7626 -373 0 0 -373zm373 373l-187 187 -186 -187 373 0z"/>
 <path fill="black" fill-rule="nonzero" d="M93607 145173l-6300 -8954 432 -303 6300 8953 -432 304zm6733 -8954l-6301 8954 -432 -304 6301 -8954 432 304zm-1794 -1872l-4479 10775 -488 -203 4479 -10774 488 202zm-2097 -2166l-2366 12887 -519 -95 2366 -12887 519 95zm-2890 12840l0 -15254 528 0 0 15254 -528 0zm5 47l-2367 -12887 520 -95 2366 12887 -519 95zm15 54l-4478 -10775 488 -202 4478 10774 -488 203z"/>
 <polygon fill="white" points="93823,145021 90010,141207 93823,137394 97637,141207 "/>
 <path id="1" fill="black" fill-rule="nonzero" d="M90197 141020l3813 3814 -373 373 -3814 -3813 0 -374 374 0zm-374 374l-186 -187 186 -187 0 374zm4187 -3813l-3813 3813 -374 -374 3814 -3813 373 0 0 374zm-373 -374l186 -186 187 186 -373 0zm3813 4187l-3813 -3813 373 -374 3813 3813 0 374 -373 0zm373 -374l187 187 -187 187 0 -374zm-4186 3814l3813 -3814 373 374 -3813 3813 -373 0 0 -373zm373 373l-187 187 -186 -187 373 0z"/>
 <polygon fill="white" points="93823,160274 86197,152647 93823,145021 101450,152647 "/>
 <path id="1" fill="black" fill-rule="nonzero" d="M86383 152460l7627 7627 -373 374 -7627 -7627 0 -374 373 0zm-373 374l-187 -187 187 -187 0 374zm8000 -7627l-7627 7627 -373 -374 7627 -7626 373 0 0 373zm-373 -373l186 -187 187 187 -373 0zm7626 8000l-7626 -7627 373 -373 7627 7626 0 374 -374 0zm374 -374l186 187 -186 187 0 -374zm-8000 7627l7626 -7627 374 374 -7627 7627 -373 0 0 -374zm373 374l-187 186 -186 -186 373 0z"/>
 <path fill="black" fill-rule="nonzero" d="M93607 160426l-6300 -8953 432 -304 6300 8953 -432 304zm6733 -8953l-6301 8953 -432 -304 6301 -8953 432 304zm-1794 -1872l-4479 10774 -488 -203 4479 -10774 488 203zm-2097 -2167l-2366 12887 -519 -95 2366 -12887 519 95zm-2890 12840l0 -15253 528 0 0 15253 -528 0zm5 47l-2367 -12887 520 -95 2366 12887 -519 95zm15 54l-4478 -10774 488 -203 4478 10774 -488 203z"/>
 <polygon fill="white" points="93823,160274 90010,156460 93823,152647 97637,156460 "/>
 <path id="1" fill="black" fill-rule="nonzero" d="M90197 156274l3813 3813 -373 374 -3814 -3814 0 -373 374 0zm-374 373l-186 -187 186 -186 0 373zm4187 -3813l-3813 3813 -374 -373 3814 -3814 373 0 0 374zm-373 -374l186 -186 187 186 -373 0zm3813 4187l-3813 -3813 373 -374 3813 3814 0 373 -373 0zm373 -373l187 186 -187 187 0 -373zm-4186 3813l3813 -3813 373 373 -3813 3814 -373 0 0 -374zm373 374l-187 186 -186 -186 373 0z"/>
 <polygon fill="white" points="93823,175527 86197,167900 93823,160274 101450,167900 "/>
 <path id="1" fill="black" fill-rule="nonzero" d="M86383 167714l7627 7626 -373 374 -7627 -7627 0 -373 373 0zm-373 373l-187 -187 187 -186 0 373zm8000 -7626l-7627 7626 -373 -373 7627 -7627 373 0 0 374zm-373 -374l186 -187 187 187 -373 0zm7626 8000l-7626 -7626 373 -374 7627 7627 0 373 -374 0zm374 -373l186 186 -186 187 0 -373zm-8000 7626l7626 -7626 374 373 -7627 7627 -373 0 0 -374zm373 374l-187 186 -186 -186 373 0z"/>
 <path fill="black" fill-rule="nonzero" d="M93607 175679l-6300 -8953 432 -304 6300 8953 -432 304zm6733 -8953l-6301 8953 -432 -304 6301 -8953 432 304zm-1794 -1872l-4479 10774 -488 -202 4479 -10775 488 203zm-2097 -2166l-2366 12887 -519 -96 2366 -12887 519 96zm-2890 12839l0 -15253 528 0 0 15253 -528 0zm5 48l-2367 -12887 520 -96 2366 12887 -519 96zm15 53l-4478 -10774 488 -203 4478 10775 -488 202z"/>
 <polygon fill="white" points="93823,175527 90010,171714 93823,167900 97637,171714 "/>
 <path id="1" fill="black" fill-rule="nonzero" d="M90197 171527l3813 3813 -373 374 -3814 -3814 0 -373 374 0zm-374 373l-186 -186 186 -187 0 373zm4187 -3813l-3813 3813 -374 -373 3814 -3813 373 0 0 373zm-373 -373l186 -187 187 187 -373 0zm3813 4186l-3813 -3813 373 -373 3813 3813 0 373 -373 0zm373 -373l187 187 -187 186 0 -373zm-4186 3813l3813 -3813 373 373 -3813 3814 -373 0 0 -374zm373 374l-187 186 -186 -186 373 0z"/>
 <polygon fill="white" points="116703,122141 109077,114514 116703,106887 124330,114514 "/>
 <path id="1" fill="black" fill-rule="nonzero" d="M109263 114327l7627 7627 -373 373 -7627 -7626 0 -374 373 0zm-373 374l-187 -187 187 -187 0 374zm8000 -7627l-7627 7627 -373 -374 7627 -7626 373 0 0 373zm-373 -373l186 -187 187 187 -373 0zm7626 8000l-7626 -7627 373 -373 7627 7626 0 374 -374 0zm374 -374l186 187 -186 187 0 -374zm-8000 7627l7626 -7627 374 374 -7627 7626 -373 0 0 -373zm373 373l-187 187 -186 -187 373 0z"/>
 <path fill="black" fill-rule="nonzero" d="M116487 122293l-6300 -8953 432 -304 6300 8953 -432 304zm6732 -8953l-6300 8953 -432 -304 6301 -8953 431 304zm-1793 -1873l-4479 10775 -488 -203 4479 -10774 488 202zm-2097 -2166l-2366 12887 -520 -95 2367 -12887 519 95zm-2890 12840l0 -15254 528 0 0 15254 -528 0zm4 47l-2366 -12887 520 -95 2366 12887 -520 95zm16 54l-4478 -10775 488 -202 4478 10774 -488 203z"/>
 <polygon fill="white" points="116703,122141 112890,118327 116703,114514 120516,118327 "/>
 <path id="1" fill="black" fill-rule="nonzero" d="M113077 118141l3813 3813 -373 373 -3814 -3813 0 -373 374 0zm-374 373l-186 -187 186 -186 0 373zm4187 -3813l-3813 3813 -374 -373 3814 -3814 373 0 0 374zm-373 -374l186 -186 187 186 -373 0zm3813 4187l-3813 -3813 373 -374 3813 3814 0 373 -373 0zm373 -373l187 186 -187 187 0 -373zm-4186 3813l3813 -3813 373 373 -3813 3813 -373 0 0 -373zm373 373l-187 187 -186 -187 373 0z"/>
 <polygon fill="white" points="116703,137394 109077,129767 116703,122141 124330,129767 "/>
 <path id="1" fill="black" fill-rule="nonzero" d="M109263 129581l7627 7626 -373 374 -7627 -7627 0 -373 373 0zm-373 373l-187 -187 187 -186 0 373zm8000 -7627l-7627 7627 -373 -373 7627 -7627 373 0 0 373zm-373 -373l186 -187 187 187 -373 0zm7626 8000l-7626 -7627 373 -373 7627 7627 0 373 -374 0zm374 -373l186 186 -186 187 0 -373zm-8000 7626l7626 -7626 374 373 -7627 7627 -373 0 0 -374zm373 374l-187 186 -186 -186 373 0z"/>
 <path fill="black" fill-rule="nonzero" d="M116487 137546l-6300 -8953 432 -304 6300 8953 -432 304zm6732 -8953l-6300 8953 -432 -304 6301 -8953 431 304zm-1793 -1872l-4479 10774 -488 -202 4479 -10775 488 203zm-2097 -2166l-2366 12887 -520 -96 2367 -12887 519 96zm-2890 12839l0 -15253 528 0 0 15253 -528 0zm4 48l-2366 -12887 520 -96 2366 12887 -520 96zm16 53l-4478 -10774 488 -203 4478 10775 -488 202z"/>
 <polygon fill="white" points="116703,137394 112890,133581 116703,129767 120516,133581 "/>
 <path id="1" fill="black" fill-rule="nonzero" d="M113077 133394l3813 3813 -373 374 -3814 -3814 0 -373 374 0zm-374 373l-186 -186 186 -187 0 373zm4187 -3813l-3813 3813 -374 -373 3814 -3813 373 0 0 373zm-373 -373l186 -187 187 187 -373 0zm3813 4186l-3813 -3813 373 -373 3813 3813 0 373 -373 0zm373 -373l187 187 -187 186 0 -373zm-4186 3813l3813 -3813 373 373 -3813 3814 -373 0 0 -374zm373 374l-187 186 -186 -186 373 0z"/>
 <polygon fill="white" points="116703,152647 109077,145021 116703,137394 124330,145021 "/>
 <path id="1" fill="black" fill-rule="nonzero" d="M109263 144834l7627 7626 -373 374 -7627 -7627 0 -373 373 0zm-373 373l-187 -186 187 -187 0 373zm8000 -7626l-7627 7626 -373 -373 7627 -7627 373 0 0 374zm-373 -374l186 -186 187 186 -373 0zm7626 8000l-7626 -7626 373 -374 7627 7627 0 373 -374 0zm374 -373l186 187 -186 186 0 -373zm-8000 7626l7626 -7626 374 373 -7627 7627 -373 0 0 -374zm373 374l-187 187 -186 -187 373 0z"/>
 <path fill="black" fill-rule="nonzero" d="M116487 152799l-6300 -8953 432 -304 6300 8953 -432 304zm6732 -8953l-6300 8953 -432 -304 6301 -8953 431 304zm-1793 -1872l-4479 10775 -488 -203 4479 -10775 488 203zm-2097 -2166l-2366 12887 -520 -95 2367 -12888 519 96zm-2890 12839l0 -15253 528 0 0 15253 -528 0zm4 48l-2366 -12887 520 -96 2366 12888 -520 95zm16 54l-4478 -10775 488 -203 4478 10775 -488 203z"/>
 <polygon fill="white" points="116703,152647 112890,148834 116703,145021 120516,148834 "/>
 <path id="1" fill="black" fill-rule="nonzero" d="M113077 148647l3813 3813 -373 374 -3814 -3813 0 -374 374 0zm-374 374l-186 -187 186 -187 0 374zm4187 -3814l-3813 3814 -374 -374 3814 -3813 373 0 0 373zm-373 -373l186 -187 187 187 -373 0zm3813 4187l-3813 -3814 373 -373 3813 3813 0 374 -373 0zm373 -374l187 187 -187 187 0 -374zm-4186 3813l3813 -3813 373 374 -3813 3813 -373 0 0 -374zm373 374l-187 187 -186 -187 373 0z"/>
 <polygon fill="white" points="116703,167900 109077,160274 116703,152647 124330,160274 "/>
 <path id="1" fill="black" fill-rule="nonzero" d="M109263 160087l7627 7627 -373 373 -7627 -7626 0 -374 373 0zm-373 374l-187 -187 187 -187 0 374zm8000 -7627l-7627 7627 -373 -374 7627 -7627 373 0 0 374zm-373 -374l186 -186 187 186 -373 0zm7626 8001l-7626 -7627 373 -374 7627 7627 0 374 -374 0zm374 -374l186 187 -186 187 0 -374zm-8000 7627l7626 -7627 374 374 -7627 7626 -373 0 0 -373zm373 373l-187 187 -186 -187 373 0z"/>
 <path fill="black" fill-rule="nonzero" d="M116487 168052l-6300 -8953 432 -304 6300 8953 -432 304zm6732 -8953l-6300 8953 -432 -304 6301 -8953 431 304zm-1793 -1872l-4479 10775 -488 -203 4479 -10775 488 203zm-2097 -2166l-2366 12887 -520 -95 2367 -12887 519 95zm-2890 12839l0 -15253 528 0 0 15253 -528 0zm4 48l-2366 -12887 520 -95 2366 12887 -520 95zm16 54l-4478 -10775 488 -203 4478 10775 -488 203z"/>
 <polygon fill="white" points="116703,167900 112890,164087 116703,160274 120516,164087 "/>
 <path id="1" fill="black" fill-rule="nonzero" d="M113077 163900l3813 3814 -373 373 -3814 -3813 0 -374 374 0zm-374 374l-186 -187 186 -187 0 374zm4187 -3813l-3813 3813 -374 -374 3814 -3813 373 0 0 374zm-373 -374l186 -187 187 187 -373 0zm3813 4187l-3813 -3813 373 -374 3813 3813 0 374 -373 0zm373 -374l187 187 -187 187 0 -374zm-4186 3814l3813 -3814 373 374 -3813 3813 -373 0 0 -373zm373 373l-187 187 -186 -187 373 0z"/>
 <polygon fill="white" points="116703,183154 109077,175527 116703,167900 124330,175527 "/>
 <path id="1" fill="black" fill-rule="nonzero" d="M109263 175340l7627 7627 -373 373 -7627 -7626 0 -374 373 0zm-373 374l-187 -187 187 -187 0 374zm8000 -7627l-7627 7627 -373 -374 7627 -7626 373 0 0 373zm-373 -373l186 -187 187 187 -373 0zm7626 8000l-7626 -7627 373 -373 7627 7626 0 374 -374 0zm374 -374l186 187 -186 187 0 -374zm-8000 7627l7626 -7627 374 374 -7627 7626 -373 0 0 -373zm373 373l-187 187 -186 -187 373 0z"/>
 <path fill="black" fill-rule="nonzero" d="M116487 183306l-6300 -8953 432 -304 6300 8953 -432 304zm6732 -8954l-6300 8954 -432 -304 6301 -8953 431 303zm-1793 -1872l-4479 10775 -488 -203 4479 -10774 488 202zm-2097 -2166l-2366 12887 -520 -95 2367 -12887 519 95zm-2890 12840l0 -15254 528 0 0 15254 -528 0zm4 47l-2366 -12887 520 -95 2366 12887 -520 95zm16 54l-4478 -10775 488 -202 4478 10774 -488 203z"/>
 <polygon fill="white" points="116703,183154 112890,179340 116703,175527 120516,179340 "/>
 <path id="1" fill="black" fill-rule="nonzero" d="M113077 179154l3813 3813 -373 373 -3814 -3813 0 -373 374 0zm-374 373l-186 -187 186 -186 0 373zm4187 -3813l-3813 3813 -374 -373 3814 -3814 373 0 0 374zm-373 -374l186 -186 187 186 -373 0zm3813 4187l-3813 -3813 373 -374 3813 3814 0 373 -373 0zm373 -373l187 186 -187 187 0 -373zm-4186 3813l3813 -3813 373 373 -3813 3813 -373 0 0 -373zm373 373l-187 187 -186 -187 373 0z"/>
 <polygon fill="white" points="109077,129767 101450,122141 109077,114514 116703,122141 "/>
 <path id="1" fill="black" fill-rule="nonzero" d="M101637 121954l7626 7627 -373 373 -7627 -7627 0 -373 374 0zm-374 373l-186 -186 186 -187 0 373zm8000 -7626l-7626 7626 -374 -373 7627 -7627 373 0 0 374zm-373 -374l187 -186 186 186 -373 0zm7627 8000l-7627 -7626 373 -374 7627 7627 0 373 -373 0zm373 -373l187 187 -187 186 0 -373zm-8000 7627l7627 -7627 373 373 -7627 7627 -373 0 0 -373zm373 373l-186 187 -187 -187 373 0z"/>
 <path fill="black" fill-rule="nonzero" d="M108861 129919l-6301 -8953 432 -304 6301 8953 -432 304zm6732 -8953l-6300 8953 -432 -304 6300 -8953 432 304zm-1794 -1872l-4478 10775 -488 -203 4478 -10775 488 203zm-2096 -2166l-2367 12887 -519 -95 2366 -12887 520 95zm-2890 12839l0 -15253 528 0 0 15253 -528 0zm4 48l-2366 -12887 519 -95 2366 12887 -519 95zm16 54l-4479 -10775 488 -203 4479 10775 -488 203z"/>
 <polygon fill="white" points="109077,129767 105263,125954 109077,122141 112890,125954 "/>
 <path id="1" fill="black" fill-rule="nonzero" d="M105450 125767l3813 3814 -373 373 -3813 -3813 0 -374 373 0zm-373 374l-187 -187 187 -187 0 374zm4186 -3814l-3813 3814 -373 -374 3813 -3813 373 0 0 373zm-373 -373l187 -187 186 187 -373 0zm3813 4187l-3813 -3814 373 -373 3814 3813 0 374 -374 0zm374 -374l186 187 -186 187 0 -374zm-4187 3814l3813 -3814 374 374 -3814 3813 -373 0 0 -373zm373 373l-186 187 -187 -187 373 0z"/>
 <polygon fill="white" points="109077,145021 101450,137394 109077,129767 116703,137394 "/>
 <path id="1" fill="black" fill-rule="nonzero" d="M101637 137207l7626 7627 -373 373 -7627 -7626 0 -374 374 0zm-374 374l-186 -187 186 -187 0 374zm8000 -7627l-7626 7627 -374 -374 7627 -7626 373 0 0 373zm-373 -373l187 -187 186 187 -373 0zm7627 8000l-7627 -7627 373 -373 7627 7626 0 374 -373 0zm373 -374l187 187 -187 187 0 -374zm-8000 7627l7627 -7627 373 374 -7627 7626 -373 0 0 -373zm373 373l-186 187 -187 -187 373 0z"/>
 <path fill="black" fill-rule="nonzero" d="M108861 145173l-6301 -8954 432 -303 6301 8953 -432 304zm6732 -8954l-6300 8954 -432 -304 6300 -8954 432 304zm-1794 -1872l-4478 10775 -488 -203 4478 -10774 488 202zm-2096 -2166l-2367 12887 -519 -95 2366 -12887 520 95zm-2890 12840l0 -15254 528 0 0 15254 -528 0zm4 47l-2366 -12887 519 -95 2366 12887 -519 95zm16 54l-4479 -10775 488 -202 4479 10774 -488 203z"/>
 <polygon fill="white" points="109077,145021 105263,141207 109077,137394 112890,141207 "/>
 <path id="1" fill="black" fill-rule="nonzero" d="M105450 141020l3813 3814 -373 373 -3813 -3813 0 -374 373 0zm-373 374l-187 -187 187 -187 0 374zm4186 -3813l-3813 3813 -373 -374 3813 -3813 373 0 0 374zm-373 -374l187 -186 186 186 -373 0zm3813 4187l-3813 -3813 373 -374 3814 3813 0 374 -374 0zm374 -374l186 187 -186 187 0 -374zm-4187 3814l3813 -3814 374 374 -3814 3813 -373 0 0 -373zm373 373l-186 187 -187 -187 373 0z"/>
 <polygon fill="white" points="109077,160274 101450,152647 109077,145021 116703,152647 "/>
 <path id="1" fill="black" fill-rule="nonzero" d="M101637 152460l7626 7627 -373 374 -7627 -7627 0 -374 374 0zm-374 374l-186 -187 186 -187 0 374zm8000 -7627l-7626 7627 -374 -374 7627 -7626 373 0 0 373zm-373 -373l187 -187 186 187 -373 0zm7627 8000l-7627 -7627 373 -373 7627 7626 0 374 -373 0zm373 -374l187 187 -187 187 0 -374zm-8000 7627l7627 -7627 373 374 -7627 7627 -373 0 0 -374zm373 374l-186 186 -187 -186 373 0z"/>
 <path fill="black" fill-rule="nonzero" d="M108861 160426l-6301 -8953 432 -304 6301 8953 -432 304zm6732 -8953l-6300 8953 -432 -304 6300 -8953 432 304zm-1794 -1872l-4478 10774 -488 -203 4478 -10774 488 203zm-2096 -2167l-2367 12887 -519 -95 2366 -12887 520 95zm-2890 12840l0 -15253 528 0 0 15253 -528 0zm4 47l-2366 -12887 519 -95 2366 12887 -519 95zm16 54l-4479 -10774 488 -203 4479 10774 -488 203z"/>
 <polygon fill="white" points="109077,160274 105263,156460 109077,152647 112890,156460 "/>
 <path id="1" fill="black" fill-rule="nonzero" d="M105450 156274l3813 3813 -373 374 -3813 -3814 0 -373 373 0zm-373 373l-187 -187 187 -186 0 373zm4186 -3813l-3813 3813 -373 -373 3813 -3814 373 0 0 374zm-373 -374l187 -186 186 186 -373 0zm3813 4187l-3813 -3813 373 -374 3814 3814 0 373 -374 0zm374 -373l186 186 -186 187 0 -373zm-4187 3813l3813 -3813 374 373 -3814 3814 -373 0 0 -374zm373 374l-186 186 -187 -186 373 0z"/>
 <polygon fill="white" points="109077,175527 101450,167900 109077,160274 116703,167900 "/>
 <path id="1" fill="black" fill-rule="nonzero" d="M101637 167714l7626 7626 -373 374 -7627 -7627 0 -373 374 0zm-374 373l-186 -187 186 -186 0 373zm8000 -7626l-7626 7626 -374 -373 7627 -7627 373 0 0 374zm-373 -374l187 -187 186 187 -373 0zm7627 8000l-7627 -7626 373 -374 7627 7627 0 373 -373 0zm373 -373l187 186 -187 187 0 -373zm-8000 7626l7627 -7626 373 373 -7627 7627 -373 0 0 -374zm373 374l-186 186 -187 -186 373 0z"/>
 <path fill="black" fill-rule="nonzero" d="M108861 175679l-6301 -8953 432 -304 6301 8953 -432 304zm6732 -8953l-6300 8953 -432 -304 6300 -8953 432 304zm-1794 -1872l-4478 10774 -488 -202 4478 -10775 488 203zm-2096 -2166l-2367 12887 -519 -96 2366 -12887 520 96zm-2890 12839l0 -15253 528 0 0 15253 -528 0zm4 48l-2366 -12887 519 -96 2366 12887 -519 96zm16 53l-4479 -10774 488 -203 4479 10775 -488 202z"/>
 <polygon fill="white" points="109077,175527 105263,171714 109077,167900 112890,171714 "/>
 <path id="1" fill="black" fill-rule="nonzero" d="M105450 171527l3813 3813 -373 374 -3813 -3814 0 -373 373 0zm-373 373l-187 -186 187 -187 0 373zm4186 -3813l-3813 3813 -373 -373 3813 -3813 373 0 0 373zm-373 -373l187 -187 186 187 -373 0zm3813 4186l-3813 -3813 373 -373 3814 3813 0 373 -374 0zm374 -373l186 187 -186 186 0 -373zm-4187 3813l3813 -3813 374 373 -3814 3814 -373 0 0 -374zm373 374l-186 186 -187 -186 373 0z"/>
 <polygon fill="white" points="131956,122141 124330,114514 131956,106887 139583,114514 "/>
 <path id="1" fill="black" fill-rule="nonzero" d="M124517 114327l7626 7627 -373 373 -7627 -7626 0 -374 374 0zm-374 374l-187 -187 187 -187 0 374zm8000 -7627l-7626 7627 -374 -374 7627 -7626 373 0 0 373zm-373 -373l186 -187 187 187 -373 0zm7626 8000l-7626 -7627 373 -373 7627 7626 0 374 -374 0zm374 -374l187 187 -187 187 0 -374zm-8000 7627l7626 -7627 374 374 -7627 7626 -373 0 0 -373zm373 373l-187 187 -186 -187 373 0z"/>
 <path fill="black" fill-rule="nonzero" d="M131741 122293l-6301 -8953 432 -304 6300 8953 -431 304zm6732 -8953l-6301 8953 -431 -304 6300 -8953 432 304zm-1794 -1873l-4479 10775 -487 -203 4478 -10774 488 202zm-2097 -2166l-2366 12887 -519 -95 2366 -12887 519 95zm-2890 12840l0 -15254 529 0 0 15254 -529 0zm5 47l-2367 -12887 520 -95 2366 12887 -519 95zm16 54l-4479 -10775 488 -202 4478 10774 -487 203z"/>
 <polygon fill="white" points="131956,122141 128143,118327 131956,114514 135770,118327 "/>
 <path id="1" fill="black" fill-rule="nonzero" d="M128330 118141l3813 3813 -373 373 -3814 -3813 0 -373 374 0zm-374 373l-186 -187 186 -186 0 373zm4187 -3813l-3813 3813 -374 -373 3814 -3814 373 0 0 374zm-373 -374l186 -186 187 186 -373 0zm3813 4187l-3813 -3813 373 -374 3813 3814 0 373 -373 0zm373 -373l187 186 -187 187 0 -373zm-4186 3813l3813 -3813 373 373 -3813 3813 -373 0 0 -373zm373 373l-187 187 -186 -187 373 0z"/>
 <polygon fill="white" points="131956,137394 124330,129767 131956,122141 139583,129767 "/>
 <path id="1" fill="black" fill-rule="nonzero" d="M124517 129581l7626 7626 -373 374 -7627 -7627 0 -373 374 0zm-374 373l-187 -187 187 -186 0 373zm8000 -7627l-7626 7627 -374 -373 7627 -7627 373 0 0 373zm-373 -373l186 -187 187 187 -373 0zm7626 8000l-7626 -7627 373 -373 7627 7627 0 373 -374 0zm374 -373l187 186 -187 187 0 -373zm-8000 7626l7626 -7626 374 373 -7627 7627 -373 0 0 -374zm373 374l-187 186 -186 -186 373 0z"/>
 <path fill="black" fill-rule="nonzero" d="M131741 137546l-6301 -8953 432 -304 6300 8953 -431 304zm6732 -8953l-6301 8953 -431 -304 6300 -8953 432 304zm-1794 -1872l-4479 10774 -487 -202 4478 -10775 488 203zm-2097 -2166l-2366 12887 -519 -96 2366 -12887 519 96zm-2890 12839l0 -15253 529 0 0 15253 -529 0zm5 48l-2367 -12887 520 -96 2366 12887 -519 96zm16 53l-4479 -10774 488 -203 4478 10775 -487 202z"/>
 <polygon fill="white" points="131956,137394 128143,133581 131956,129767 135770,133581 "/>
 <path id="1" fill="black" fill-rule="nonzero" d="M128330 133394l3813 3813 -373 374 -3814 -3814 0 -373 374 0zm-374 373l-186 -186 186 -187 0 373zm4187 -3813l-3813 3813 -374 -373 3814 -3813 373 0 0 373zm-373 -373l186 -187 187 187 -373 0zm3813 4186l-3813 -3813 373 -373 3813 3813 0 373 -373 0zm373 -373l187 187 -187 186 0 -373zm-4186 3813l3813 -3813 373 373 -3813 3814 -373 0 0 -374zm373 374l-187 186 -186 -186 373 0z"/>
 <polygon fill="white" points="131956,152647 124330,145021 131956,137394 139583,145021 "/>
 <path id="1" fill="black" fill-rule="nonzero" d="M124517 144834l7626 7626 -373 374 -7627 -7627 0 -373 374 0zm-374 373l-187 -186 187 -187 0 373zm8000 -7626l-7626 7626 -374 -373 7627 -7627 373 0 0 374zm-373 -374l186 -186 187 186 -373 0zm7626 8000l-7626 -7626 373 -374 7627 7627 0 373 -374 0zm374 -373l187 187 -187 186 0 -373zm-8000 7626l7626 -7626 374 373 -7627 7627 -373 0 0 -374zm373 374l-187 187 -186 -187 373 0z"/>
 <path fill="black" fill-rule="nonzero" d="M131741 152799l-6301 -8953 432 -304 6300 8953 -431 304zm6732 -8953l-6301 8953 -431 -304 6300 -8953 432 304zm-1794 -1872l-4479 10775 -487 -203 4478 -10775 488 203zm-2097 -2166l-2366 12887 -519 -95 2366 -12888 519 96zm-2890 12839l0 -15253 529 0 0 15253 -529 0zm5 48l-2367 -12887 520 -96 2366 12888 -519 95zm16 54l-4479 -10775 488 -203 4478 10775 -487 203z"/>
 <polygon fill="white" points="131956,152647 128143,148834 131956,145021 135770,148834 "/>
 <path id="1" fill="black" fill-rule="nonzero" d="M128330 148647l3813 3813 -373 374 -3814 -3813 0 -374 374 0zm-374 374l-186 -187 186 -187 0 374zm4187 -3814l-3813 3814 -374 -374 3814 -3813 373 0 0 373zm-373 -373l186 -187 187 187 -373 0zm3813 4187l-3813 -3814 373 -373 3813 3813 0 374 -373 0zm373 -374l187 187 -187 187 0 -374zm-4186 3813l3813 -3813 373 374 -3813 3813 -373 0 0 -374zm373 374l-187 187 -186 -187 373 0z"/>
 <polygon fill="white" points="131956,167900 124330,160274 131956,152647 139583,160274 "/>
 <path id="1" fill="black" fill-rule="nonzero" d="M124517 160087l7626 7627 -373 373 -7627 -7626 0 -374 374 0zm-374 374l-187 -187 187 -187 0 374zm8000 -7627l-7626 7627 -374 -374 7627 -7627 373 0 0 374zm-373 -374l186 -186 187 186 -373 0zm7626 8001l-7626 -7627 373 -374 7627 7627 0 374 -374 0zm374 -374l187 187 -187 187 0 -374zm-8000 7627l7626 -7627 374 374 -7627 7626 -373 0 0 -373zm373 373l-187 187 -186 -187 373 0z"/>
 <path fill="black" fill-rule="nonzero" d="M131741 168052l-6301 -8953 432 -304 6300 8953 -431 304zm6732 -8953l-6301 8953 -431 -304 6300 -8953 432 304zm-1794 -1872l-4479 10775 -487 -203 4478 -10775 488 203zm-2097 -2166l-2366 12887 -519 -95 2366 -12887 519 95zm-2890 12839l0 -15253 529 0 0 15253 -529 0zm5 48l-2367 -12887 520 -95 2366 12887 -519 95zm16 54l-4479 -10775 488 -203 4478 10775 -487 203z"/>
 <polygon fill="white" points="131956,167900 128143,164087 131956,160274 135770,164087 "/>
 <path id="1" fill="black" fill-rule="nonzero" d="M128330 163900l3813 3814 -373 373 -3814 -3813 0 -374 374 0zm-374 374l-186 -187 186 -187 0 374zm4187 -3813l-3813 3813 -374 -374 3814 -3813 373 0 0 374zm-373 -374l186 -187 187 187 -373 0zm3813 4187l-3813 -3813 373 -374 3813 3813 0 374 -373 0zm373 -374l187 187 -187 187 0 -374zm-4186 3814l3813 -3814 373 374 -3813 3813 -373 0 0 -373zm373 373l-187 187 -186 -187 373 0z"/>
 <polygon fill="white" points="131956,183154 124330,175527 131956,167900 139583,175527 "/>
 <path id="1" fill="black" fill-rule="nonzero" d="M124517 175340l7626 7627 -373 373 -7627 -7626 0 -374 374 0zm-374 374l-187 -187 187 -187 0 374zm8000 -7627l-7626 7627 -374 -374 7627 -7626 373 0 0 373zm-373 -373l186 -187 187 187 -373 0zm7626 8000l-7626 -7627 373 -373 7627 7626 0 374 -374 0zm374 -374l187 187 -187 187 0 -374zm-8000 7627l7626 -7627 374 374 -7627 7626 -373 0 0 -373zm373 373l-187 187 -186 -187 373 0z"/>
 <path fill="black" fill-rule="nonzero" d="M131741 183306l-6301 -8953 432 -304 6300 8953 -431 304zm6732 -8954l-6301 8954 -431 -304 6300 -8953 432 303zm-1794 -1872l-4479 10775 -487 -203 4478 -10774 488 202zm-2097 -2166l-2366 12887 -519 -95 2366 -12887 519 95zm-2890 12840l0 -15254 529 0 0 15254 -529 0zm5 47l-2367 -12887 520 -95 2366 12887 -519 95zm16 54l-4479 -10775 488 -202 4478 10774 -487 203z"/>
 <polygon fill="white" points="131956,183154 128143,179340 131956,175527 135770,179340 "/>
 <path id="1" fill="black" fill-rule="nonzero" d="M128330 179154l3813 3813 -373 373 -3814 -3813 0 -373 374 0zm-374 373l-186 -187 186 -186 0 373zm4187 -3813l-3813 3813 -374 -373 3814 -3814 373 0 0 374zm-373 -374l186 -186 187 186 -373 0zm3813 4187l-3813 -3813 373 -374 3813 3814 0 373 -373 0zm373 -373l187 186 -187 187 0 -373zm-4186 3813l3813 -3813 373 373 -3813 3813 -373 0 0 -373zm373 373l-187 187 -186 -187 373 0z"/>
 <polygon fill="white" points="124330,129767 116703,122141 124330,114514 131956,122141 "/>
 <path id="1" fill="black" fill-rule="nonzero" d="M116890 121954l7627 7627 -374 373 -7626 -7627 0 -373 373 0zm-373 373l-187 -186 187 -187 0 373zm8000 -7626l-7627 7626 -373 -373 7626 -7627 374 0 0 374zm-374 -374l187 -186 187 186 -374 0zm7627 8000l-7627 -7626 374 -374 7626 7627 0 373 -373 0zm373 -373l187 187 -187 186 0 -373zm-8000 7627l7627 -7627 373 373 -7626 7627 -374 0 0 -373zm374 373l-187 187 -187 -187 374 0z"/>
 <path fill="black" fill-rule="nonzero" d="M124114 129919l-6300 -8953 432 -304 6300 8953 -432 304zm6732 -8953l-6300 8953 -432 -304 6300 -8953 432 304zm-1794 -1872l-4478 10775 -488 -203 4479 -10775 487 203zm-2096 -2166l-2366 12887 -520 -95 2366 -12887 520 95zm-2890 12839l0 -15253 528 0 0 15253 -528 0zm4 48l-2366 -12887 519 -95 2367 12887 -520 95zm16 54l-4479 -10775 488 -203 4479 10775 -488 203z"/>
 <polygon fill="white" points="124330,129767 120517,125954 124330,122141 128143,125954 "/>
 <path id="1" fill="black" fill-rule="nonzero" d="M120703 125767l3814 3814 -374 373 -3813 -3813 0 -374 373 0zm-373 374l-187 -187 187 -187 0 374zm4187 -3814l-3814 3814 -373 -374 3813 -3813 374 0 0 373zm-374 -373l187 -187 187 187 -374 0zm3813 4187l-3813 -3814 374 -373 3813 3813 0 374 -374 0zm374 -374l187 187 -187 187 0 -374zm-4187 3814l3813 -3814 374 374 -3813 3813 -374 0 0 -373zm374 373l-187 187 -187 -187 374 0z"/>
 <polygon fill="white" points="124330,145021 116703,137394 124330,129767 131956,137394 "/>
 <path id="1" fill="black" fill-rule="nonzero" d="M116890 137207l7627 7627 -374 373 -7626 -7626 0 -374 373 0zm-373 374l-187 -187 187 -187 0 374zm8000 -7627l-7627 7627 -373 -374 7626 -7626 374 0 0 373zm-374 -373l187 -187 187 187 -374 0zm7627 8000l-7627 -7627 374 -373 7626 7626 0 374 -373 0zm373 -374l187 187 -187 187 0 -374zm-8000 7627l7627 -7627 373 374 -7626 7626 -374 0 0 -373zm374 373l-187 187 -187 -187 374 0z"/>
 <path fill="black" fill-rule="nonzero" d="M124114 145173l-6300 -8954 432 -303 6300 8953 -432 304zm6732 -8954l-6300 8954 -432 -304 6300 -8954 432 304zm-1794 -1872l-4478 10775 -488 -203 4479 -10774 487 202zm-2096 -2166l-2366 12887 -520 -95 2366 -12887 520 95zm-2890 12840l0 -15254 528 0 0 15254 -528 0zm4 47l-2366 -12887 519 -95 2367 12887 -520 95zm16 54l-4479 -10775 488 -202 4479 10774 -488 203z"/>
 <polygon fill="white" points="124330,145021 120517,141207 124330,137394 128143,141207 "/>
 <path id="1" fill="black" fill-rule="nonzero" d="M120703 141020l3814 3814 -374 373 -3813 -3813 0 -374 373 0zm-373 374l-187 -187 187 -187 0 374zm4187 -3813l-3814 3813 -373 -374 3813 -3813 374 0 0 374zm-374 -374l187 -186 187 186 -374 0zm3813 4187l-3813 -3813 374 -374 3813 3813 0 374 -374 0zm374 -374l187 187 -187 187 0 -374zm-4187 3814l3813 -3814 374 374 -3813 3813 -374 0 0 -373zm374 373l-187 187 -187 -187 374 0z"/>
 <polygon fill="white" points="124330,160274 116703,152647 124330,145021 131956,152647 "/>
 <path id="1" fill="black" fill-rule="nonzero" d="M116890 152460l7627 7627 -374 374 -7626 -7627 0 -374 373 0zm-373 374l-187 -187 187 -187 0 374zm8000 -7627l-7627 7627 -373 -374 7626 -7626 374 0 0 373zm-374 -373l187 -187 187 187 -374 0zm7627 8000l-7627 -7627 374 -373 7626 7626 0 374 -373 0zm373 -374l187 187 -187 187 0 -374zm-8000 7627l7627 -7627 373 374 -7626 7627 -374 0 0 -374zm374 374l-187 186 -187 -186 374 0z"/>
 <path fill="black" fill-rule="nonzero" d="M124114 160426l-6300 -8953 432 -304 6300 8953 -432 304zm6732 -8953l-6300 8953 -432 -304 6300 -8953 432 304zm-1794 -1872l-4478 10774 -488 -203 4479 -10774 487 203zm-2096 -2167l-2366 12887 -520 -95 2366 -12887 520 95zm-2890 12840l0 -15253 528 0 0 15253 -528 0zm4 47l-2366 -12887 519 -95 2367 12887 -520 95zm16 54l-4479 -10774 488 -203 4479 10774 -488 203z"/>
 <polygon fill="white" points="124330,160274 120517,156460 124330,152647 128143,156460 "/>
 <path id="1" fill="black" fill-rule="nonzero" d="M120703 156274l3814 3813 -374 374 -3813 -3814 0 -373 373 0zm-373 373l-187 -187 187 -186 0 373zm4187 -3813l-3814 3813 -373 -373 3813 -3814 374 0 0 374zm-374 -374l187 -186 187 186 -374 0zm3813 4187l-3813 -3813 374 -374 3813 3814 0 373 -374 0zm374 -373l187 186 -187 187 0 -373zm-4187 3813l3813 -3813 374 373 -3813 3814 -374 0 0 -374zm374 374l-187 186 -187 -186 374 0z"/>
 <polygon fill="white" points="124330,175527 116703,167900 124330,160274 131956,167900 "/>
 <path id="1" fill="black" fill-rule="nonzero" d="M116890 167714l7627 7626 -374 374 -7626 -7627 0 -373 373 0zm-373 373l-187 -187 187 -186 0 373zm8000 -7626l-7627 7626 -373 -373 7626 -7627 374 0 0 374zm-374 -374l187 -187 187 187 -374 0zm7627 8000l-7627 -7626 374 -374 7626 7627 0 373 -373 0zm373 -373l187 186 -187 187 0 -373zm-8000 7626l7627 -7626 373 373 -7626 7627 -374 0 0 -374zm374 374l-187 186 -187 -186 374 0z"/>
 <path fill="black" fill-rule="nonzero" d="M124114 175679l-6300 -8953 432 -304 6300 8953 -432 304zm6732 -8953l-6300 8953 -432 -304 6300 -8953 432 304zm-1794 -1872l-4478 10774 -488 -202 4479 -10775 487 203zm-2096 -2166l-2366 12887 -520 -96 2366 -12887 520 96zm-2890 12839l0 -15253 528 0 0 15253 -528 0zm4 48l-2366 -12887 519 -96 2367 12887 -520 96zm16 53l-4479 -10774 488 -203 4479 10775 -488 202z"/>
 <polygon fill="white" points="124330,175527 120517,171714 124330,167900 128143,171714 "/>
 <path id="1" fill="black" fill-rule="nonzero" d="M120703 171527l3814 3813 -374 374 -3813 -3814 0 -373 373 0zm-373 373l-187 -186 187 -187 0 373zm4187 -3813l-3814 3813 -373 -373 3813 -3813 374 0 0 373zm-374 -373l187 -187 187 187 -374 0zm3813 4186l-3813 -3813 374 -373 3813 3813 0 373 -374 0zm374 -373l187 187 -187 186 0 -373zm-4187 3813l3813 -3813 374 373 -3813 3814 -374 0 0 -374zm374 374l-187 186 -187 -186 374 0z"/>
</symbol>
 <g id="Content">
  <metadata id="CorelCorpID_0Corel-Layer"/>
  <g id="_2655205663872">
   <g>
   </g>
   <g clip-path="url(#id0)">
    <g id="_2691509331184">
     <use transform="matrix(0.5 0.866025 -0.866025 0.5 149975 -62995.4)" x="62943" y="106514" width="77013" height="77013" xlink:href="#Pattern_x0020_Lines"/>
    </g>
   </g>
   <polygon fill="none" fill-rule="nonzero" points="102649,99316 68874,132385 41670,85267 87197,72551 "/>
   <g>
   </g>
   <g clip-path="url(#id1)">
    <g>
     <use x="79596" y="37930" width="77013" height="77013" xlink:href="#Pattern_x0020_Lines"/>
    </g>
   </g>
   <polygon fill="none" fill-rule="nonzero" points="133555,45786 149008,72551 133555,99316 102649,99316 87197,72551 102649,45786 "/>
   <g>
   </g>
   <g clip-path="url(#id2)">
    <g>
     <use transform="scale(-1 -1)" x="-156609" y="-61412" width="77013" height="77013" xlink:href="#Pattern_x0020_Lines"/>
    </g>
   </g>
   <polygon fill="none" fill-rule="nonzero" points="102649,45786 90898,0 145306,0 133555,45786 "/>
   <g>
   </g>
   <g clip-path="url(#id3)">
    <g>
     <use x="79595" y="83689" width="77013" height="77013" xlink:href="#Pattern_x0020_Lines"/>
    </g>
   </g>
   <polygon fill="none" fill-rule="nonzero" points="133555,99316 145306,145101 90898,145101 102649,99316 "/>
   <g>
   </g>
   <g clip-path="url(#id4)">
    <g>
     <use transform="matrix(-0.5 -0.866025 0.866025 -0.5 86229.2 208097)" x="62943" y="106514" width="77013" height="77013" xlink:href="#Pattern_x0020_Lines"/>
    </g>
   </g>
   <polygon fill="none" fill-rule="nonzero" points="133555,45786 167331,12716 194535,59835 149008,72551 "/>
   <g>
   </g>
   <g clip-path="url(#id5)">
    <g>
     <use x="79595" y="175260" width="77013" height="77013" xlink:href="#Pattern_x0020_Lines"/>
    </g>
   </g>
   <polygon fill="none" fill-rule="nonzero" points="102649,244417 87197,217652 102649,190887 133555,190887 149008,217652 133555,244417 "/>
   <g>
   </g>
   <g clip-path="url(#id6)">
    <g>
     <use transform="scale(-1 -1)" x="-156609" y="-305803" width="77013" height="77013" xlink:href="#Pattern_x0020_Lines"/>
    </g>
   </g>
   <polygon fill="none" fill-rule="nonzero" points="102649,244417 90898,290202 145306,290202 133555,244417 "/>
   <g>
   </g>
   <g clip-path="url(#id7)">
    <g>
     <use x="79596" y="129501" width="77013" height="77013" xlink:href="#Pattern_x0020_Lines"/>
    </g>
   </g>
   <polygon fill="none" fill-rule="nonzero" points="133555,190887 145306,145101 90898,145101 102649,190887 "/>
   <g>
   </g>
   <g clip-path="url(#id8)">
    <g>
     <use transform="matrix(-0.5 -0.866025 0.866025 -0.5 241.989 402843)" x="62943" y="106514" width="77013" height="77013" xlink:href="#Pattern_x0020_Lines"/>
    </g>
   </g>
   <polygon fill="none" fill-rule="nonzero" points="87197,217652 41669,230368 68873,277486 102649,244417 "/>
   <g>
   </g>
   <g clip-path="url(#id9)">
    <g>
     <use transform="matrix(0.5 -0.866025 0.866025 0.5 -101207 208177)" x="62943" y="106514" width="77013" height="77013" xlink:href="#Pattern_x0020_Lines"/>
    </g>
   </g>
   <polygon fill="none" fill-rule="nonzero" points="102649,190887 68873,157817 41669,204936 87197,217652 "/>
   <g>
   </g>
   <g clip-path="url(#id10)">
    <g>
     <use transform="matrix(0.5 0.866025 -0.866025 0.5 235962 32461.5)" x="62943" y="106514" width="77013" height="77013" xlink:href="#Pattern_x0020_Lines"/>
    </g>
   </g>
   <polygon fill="none" fill-rule="nonzero" points="149008,217652 194535,204936 167331,157817 133555,190887 "/>
   <g>
   </g>
   <g clip-path="url(#id11)">
    <g>
     <use transform="matrix(-0.5 0.866025 -0.866025 -0.5 337412 227126)" x="62943" y="106514" width="77013" height="77013" xlink:href="#Pattern_x0020_Lines"/>
    </g>
   </g>
   <polygon fill="none" fill-rule="nonzero" points="133555,244417 167331,277486 194535,230368 149008,217652 "/>
   <g>
   </g>
   <g clip-path="url(#id12)">
    <g>
     <use transform="matrix(0.5 -0.866025 0.866025 0.5 -15220.8 112721)" x="62943" y="106514" width="77013" height="77013" xlink:href="#Pattern_x0020_Lines"/>
    </g>
   </g>
   <polygon fill="none" fill-rule="nonzero" points="149008,72551 194535,85267 167331,132385 133555,99316 "/>
   <g>
   </g>
   <g clip-path="url(#id13)">
    <g>
     <use transform="matrix(-0.5 0.866025 -0.866025 -0.5 251425 32380.4)" x="62943" y="106514" width="77013" height="77013" xlink:href="#Pattern_x0020_Lines"/>
    </g>
   </g>
   <polygon fill="none" fill-rule="nonzero" points="87197,72551 41670,59835 68874,12716 102649,45786 "/>
  </g>
  <path id="Hanger" fill="none" d="M28308 276048l0 8493 -28308 0 0 -8493 8493 0c-3385,-1957 -5662,-5617 -5662,-9808 0,-4192 2277,-7851 5662,-9809 -3385,-1957 -5662,-5617 -5662,-9808 0,-4192 2277,-7851 5662,-9809l-8493 0 0 -8492 28308 0 0 8492 -8493 0c3385,1958 5663,5617 5663,9809 0,4191 -2278,7851 -5663,9808 3385,1958 5663,5617 5663,9809 0,4191 -2278,7851 -5663,9808l8493 0zm-8492 -29425c0,-3127 -2535,-5662 -5662,-5662 -3127,0 -5661,2535 -5661,5662 0,3127 2534,5661 5661,5661 3127,0 5662,-2534 5662,-5661zm0 19617c0,3127 -2535,5662 -5662,5662 -3127,0 -5661,-2535 -5661,-5662 0,-3127 2534,-5662 5661,-5662 3127,0 5662,2535 5662,5662z"/>
  <g>
  </g>
  <g clip-path="url(#id14)">
   <g>
    <use x="-30014" y="43964" width="77013" height="77013" xlink:href="#Pattern_x0020_Lines"/>
   </g>
  </g>
  <polygon id="Pulltab" fill="none" points="0,98590 0,81605 16985,81605 16985,98590 "/>
 </g>
</svg>
