<?xml version="1.0" encoding="UTF-8"?>
<!DOCTYPE svg PUBLIC "-//W3C//DTD SVG 1.1//EN" "http://www.w3.org/Graphics/SVG/1.1/DTD/svg11.dtd">
<!-- Creator: CorelDRAW 2020 (64-Bit) -->
<svg xmlns="http://www.w3.org/2000/svg" xml:space="preserve" width="2029px" height="3027px" version="1.1" shape-rendering="geometricPrecision" text-rendering="geometricPrecision" image-rendering="optimizeQuality" fill-rule="evenodd" clip-rule="evenodd"
viewBox="0 0 1945.35 2902.02"
 xmlns:xlink="http://www.w3.org/1999/xlink"
 xmlns:xodm="http://www.corel.com/coreldraw/odm/2003">
 <defs>
    <clipPath id="id0" clip-rule="nonzero">
     <path d="M1026.49 993.16l-337.75 330.69 -272.04 -471.18 455.27 -127.16 154.52 267.65z"/>
    </clipPath>
    <clipPath id="id1" clip-rule="nonzero">
     <path d="M1335.55 457.86l154.53 267.65 -154.53 267.65 -309.06 0 -154.52 -267.65 154.52 -267.65 309.06 0z"/>
    </clipPath>
    <clipPath id="id2" clip-rule="nonzero">
     <path d="M1026.49 457.86l-117.51 -457.86 544.08 0 -117.51 457.86 -309.06 0z"/>
    </clipPath>
    <clipPath id="id3" clip-rule="nonzero">
     <path d="M1335.55 993.16l117.51 457.85 -544.08 0 117.51 -457.85 309.06 0z"/>
    </clipPath>
    <clipPath id="id4" clip-rule="nonzero">
     <path d="M1335.55 457.86l337.76 -330.7 272.04 471.19 -455.27 127.16 -154.53 -267.65z"/>
    </clipPath>
    <clipPath id="id5" clip-rule="nonzero">
     <path d="M1026.49 2444.17l-154.52 -267.65 154.52 -267.65 309.06 0 154.53 267.65 -154.53 267.65 -309.06 0z"/>
    </clipPath>
    <clipPath id="id6" clip-rule="nonzero">
     <path d="M1026.49 2444.17l-117.51 457.85 544.08 0 -117.51 -457.85 -309.06 0z"/>
    </clipPath>
    <clipPath id="id7" clip-rule="nonzero">
     <path d="M1335.55 1908.87l117.51 -457.86 -544.08 0 117.51 457.86 309.06 0z"/>
    </clipPath>
    <clipPath id="id8" clip-rule="nonzero">
     <path d="M871.97 2176.52l-455.28 127.16 272.04 471.18 337.76 -330.69 -154.52 -267.65z"/>
    </clipPath>
    <clipPath id="id9" clip-rule="nonzero">
     <path d="M1026.49 1908.87l-337.76 -330.7 -272.04 471.19 455.28 127.16 154.52 -267.65z"/>
    </clipPath>
    <clipPath id="id10" clip-rule="nonzero">
     <path d="M1490.08 2176.52l455.27 -127.16 -272.04 -471.19 -337.76 330.7 154.53 267.65z"/>
    </clipPath>
    <clipPath id="id11" clip-rule="nonzero">
     <path d="M1335.55 2444.17l337.76 330.69 272.04 -471.18 -455.27 -127.16 -154.53 267.65z"/>
    </clipPath>
    <clipPath id="id12" clip-rule="nonzero">
     <path d="M1490.08 725.51l455.27 127.16 -272.04 471.18 -337.76 -330.69 154.53 -267.65z"/>
    </clipPath>
    <clipPath id="id13" clip-rule="nonzero">
     <path d="M871.97 725.51l-455.27 -127.16 272.04 -471.19 337.75 330.7 -154.52 267.65z"/>
    </clipPath>
   <clipPath id="id14">
    <path d="M283.08 2760.48l0 84.93 -283.08 0 0 -84.93 84.93 0c-33.85,-19.57 -56.62,-56.17 -56.62,-98.08 0,-41.92 22.77,-78.51 56.62,-98.09 -33.85,-19.57 -56.62,-56.17 -56.62,-98.08 0,-41.92 22.77,-78.51 56.62,-98.09l-84.93 0 0 -84.92 283.08 0 0 84.92 -84.93 0c33.85,19.58 56.63,56.17 56.63,98.09 0,41.91 -22.78,78.51 -56.63,98.08 33.85,19.58 56.63,56.17 56.63,98.09 0,41.91 -22.78,78.51 -56.63,98.08l84.93 0zm-84.92 -294.25c0,-31.27 -25.35,-56.62 -56.62,-56.62 -31.27,0 -56.61,25.35 -56.61,56.62 0,31.27 25.34,56.61 56.61,56.61 31.27,0 56.62,-25.34 56.62,-56.61zm0 196.17c0,31.27 -25.35,56.62 -56.62,56.62 -31.27,0 -56.61,-25.35 -56.61,-56.62 0,-31.27 25.34,-56.62 56.61,-56.62 31.27,0 56.62,25.35 56.62,56.62z"/>
   </clipPath>
   <clipPath id="id15">
    <path d="M0 985.9l0 -169.85 169.85 0 0 169.85 -169.85 0z"/>
   </clipPath>
 </defs>
<symbol id="Pattern" viewBox="629.43 1065.14 770.13 770.13">
 <polygon fill="#37446C" points="785.7,1755.27 709.43,1679 785.7,1602.74 861.97,1679 "/>
 <path id="1" fill="#E8F2E8" fill-rule="nonzero" d="M711.3 1677.13l76.27 76.27 -3.74 3.74 -76.26 -76.27 0 -3.74 3.73 0zm-3.73 3.74l-1.87 -1.87 1.87 -1.87 0 3.74zm80 -76.27l-76.27 76.27 -3.73 -3.74 76.26 -76.26 3.74 0 0 3.73zm-3.74 -3.73l1.87 -1.87 1.87 1.87 -3.74 0zm76.27 80l-76.27 -76.27 3.74 -3.73 76.26 76.26 0 3.74 -3.73 0zm3.73 -3.74l1.87 1.87 -1.87 1.87 0 -3.74zm-80 76.27l76.27 -76.27 3.73 3.74 -76.26 76.27 -3.74 0 0 -3.74zm3.74 3.74l-1.87 1.86 -1.87 -1.86 3.74 0z"/>
 <path fill="#E8F2E8" fill-rule="nonzero" d="M783.54 1756.79l-63 -89.53 4.32 -3.04 63 89.53 -4.32 3.04zm67.32 -89.53l-63 89.53 -4.32 -3.04 63 -89.53 4.32 3.04zm-17.93 -18.72l-44.79 107.74 -4.88 -2.03 44.79 -107.74 4.88 2.03zm-20.97 -21.67l-23.66 128.87 -5.2 -0.95 23.66 -128.87 5.2 0.95zm-28.9 128.4l0 -152.53 5.28 0 0 152.53 -5.28 0zm0.04 0.47l-23.66 -128.87 5.2 -0.95 23.66 128.87 -5.2 0.95zm0.16 0.54l-44.78 -107.74 4.87 -2.03 44.79 107.74 -4.88 2.03z"/>
 <polygon fill="#E8F2E8" points="785.7,1755.27 747.57,1717.14 785.7,1679 823.83,1717.14 "/>
 <polygon fill="#37446C" points="785.7,1602.74 709.44,1526.47 785.7,1450.21 861.97,1526.47 "/>
 <path id="1" fill="#E8F2E8" fill-rule="nonzero" d="M711.3 1524.6l76.27 76.27 -3.74 3.73 -76.26 -76.26 0 -3.74 3.73 0zm-3.73 3.74l-1.87 -1.87 1.87 -1.87 0 3.74zm80 -76.27l-76.27 76.27 -3.73 -3.74 76.26 -76.26 3.74 0 0 3.73zm-3.74 -3.73l1.87 -1.87 1.87 1.87 -3.74 0zm76.27 80l-76.27 -76.27 3.74 -3.73 76.26 76.26 0 3.74 -3.73 0zm3.73 -3.74l1.87 1.87 -1.87 1.87 0 -3.74zm-80 76.27l76.27 -76.27 3.73 3.74 -76.26 76.26 -3.74 0 0 -3.73zm3.74 3.73l-1.87 1.87 -1.87 -1.87 3.74 0z"/>
 <path fill="#E8F2E8" fill-rule="nonzero" d="M783.54 1604.26l-63 -89.53 4.32 -3.04 63 89.53 -4.32 3.04zm67.32 -89.53l-63 89.53 -4.32 -3.04 63 -89.53 4.32 3.04zm-17.93 -18.72l-44.79 107.74 -4.88 -2.03 44.79 -107.74 4.88 2.03zm-20.97 -21.67l-23.66 128.87 -5.2 -0.95 23.67 -128.87 5.19 0.95zm-28.9 128.4l0 -152.53 5.28 0 0 152.53 -5.28 0zm0.04 0.47l-23.66 -128.87 5.2 -0.95 23.66 128.87 -5.2 0.95zm0.16 0.54l-44.78 -107.74 4.87 -2.03 44.79 107.74 -4.88 2.03z"/>
 <polygon fill="#E8F2E8" points="785.7,1602.74 747.57,1564.6 785.7,1526.47 823.84,1564.6 "/>
 <polygon fill="#37446C" points="785.7,1450.21 709.44,1373.94 785.7,1297.67 861.97,1373.94 "/>
 <path id="1" fill="#E8F2E8" fill-rule="nonzero" d="M711.3 1372.07l76.27 76.27 -3.73 3.73 -76.27 -76.26 0 -3.74 3.73 0zm-3.73 3.74l-1.87 -1.87 1.87 -1.87 0 3.74zm80 -76.27l-76.27 76.27 -3.73 -3.74 76.27 -76.26 3.73 0 0 3.73zm-3.73 -3.73l1.86 -1.87 1.87 1.87 -3.73 0zm76.26 80l-76.26 -76.27 3.73 -3.73 76.27 76.26 0 3.74 -3.74 0zm3.74 -3.74l1.86 1.87 -1.86 1.87 0 -3.74zm-80 76.27l76.26 -76.27 3.74 3.74 -76.27 76.26 -3.73 0 0 -3.73zm3.73 3.73l-1.87 1.87 -1.86 -1.87 3.73 0z"/>
 <path fill="#E8F2E8" fill-rule="nonzero" d="M783.54 1451.73l-63 -89.54 4.32 -3.03 63 89.53 -4.32 3.04zm67.32 -89.54l-63 89.54 -4.32 -3.04 63.01 -89.53 4.31 3.03zm-17.93 -18.72l-44.79 107.75 -4.88 -2.03 44.79 -107.74 4.88 2.02zm-20.97 -21.66l-23.66 128.87 -5.19 -0.95 23.66 -128.87 5.19 0.95zm-28.9 128.4l0 -152.54 5.28 0 0 152.54 -5.28 0zm0.05 0.47l-23.67 -128.87 5.2 -0.95 23.66 128.87 -5.19 0.95zm0.15 0.54l-44.78 -107.75 4.88 -2.02 44.78 107.74 -4.88 2.03z"/>
 <polygon fill="#E8F2E8" points="785.7,1450.21 747.57,1412.07 785.7,1373.94 823.84,1412.07 "/>
 <polygon fill="#37446C" points="785.7,1297.67 709.44,1221.41 785.7,1145.14 861.97,1221.41 "/>
 <path id="1" fill="#E8F2E8" fill-rule="nonzero" d="M711.3 1219.54l76.27 76.27 -3.73 3.73 -76.27 -76.26 0 -3.74 3.73 0zm-3.73 3.74l-1.87 -1.87 1.87 -1.87 0 3.74zm80 -76.27l-76.27 76.27 -3.73 -3.74 76.27 -76.26 3.73 0 0 3.73zm-3.73 -3.73l1.86 -1.87 1.87 1.87 -3.73 0zm76.26 80l-76.26 -76.27 3.73 -3.73 76.27 76.26 0 3.74 -3.74 0zm3.74 -3.74l1.86 1.87 -1.86 1.87 0 -3.74zm-80 76.27l76.26 -76.27 3.74 3.74 -76.27 76.26 -3.73 0 0 -3.73zm3.73 3.73l-1.87 1.87 -1.86 -1.87 3.73 0z"/>
 <path fill="#E8F2E8" fill-rule="nonzero" d="M783.54 1299.19l-63 -89.53 4.32 -3.04 63 89.53 -4.32 3.04zm67.33 -89.53l-63.01 89.53 -4.32 -3.04 63.01 -89.53 4.32 3.04zm-17.94 -18.72l-44.79 107.75 -4.88 -2.03 44.79 -107.74 4.88 2.02zm-20.97 -21.66l-23.66 128.87 -5.19 -0.95 23.66 -128.87 5.19 0.95zm-28.9 128.39l0 -152.53 5.28 0 0 152.53 -5.28 0zm0.05 0.48l-23.67 -128.87 5.2 -0.95 23.66 128.87 -5.19 0.95zm0.15 0.54l-44.78 -107.75 4.88 -2.02 44.78 107.74 -4.88 2.03z"/>
 <polygon fill="#E8F2E8" points="785.7,1297.67 747.57,1259.54 785.7,1221.41 823.84,1259.54 "/>
 <polygon fill="#37446C" points="938.23,1755.27 861.97,1679 938.23,1602.74 1014.5,1679 "/>
 <path id="1" fill="#E8F2E8" fill-rule="nonzero" d="M863.83 1677.13l76.27 76.27 -3.73 3.74 -76.27 -76.27 0 -3.74 3.73 0zm-3.73 3.74l-1.87 -1.87 1.87 -1.87 0 3.74zm80 -76.27l-76.27 76.27 -3.73 -3.74 76.27 -76.26 3.73 0 0 3.73zm-3.73 -3.73l1.86 -1.87 1.87 1.87 -3.73 0zm76.26 80l-76.26 -76.27 3.73 -3.73 76.27 76.26 0 3.74 -3.74 0zm3.74 -3.74l1.86 1.87 -1.86 1.87 0 -3.74zm-80 76.27l76.26 -76.27 3.74 3.74 -76.27 76.27 -3.73 0 0 -3.74zm3.73 3.74l-1.87 1.86 -1.86 -1.86 3.73 0z"/>
 <path fill="#E8F2E8" fill-rule="nonzero" d="M936.07 1756.79l-63 -89.53 4.32 -3.04 63 89.53 -4.32 3.04zm67.32 -89.53l-63 89.53 -4.32 -3.04 63.01 -89.53 4.31 3.04zm-17.93 -18.72l-44.79 107.74 -4.88 -2.03 44.79 -107.74 4.88 2.03zm-20.97 -21.67l-23.66 128.87 -5.19 -0.95 23.66 -128.87 5.19 0.95zm-28.9 128.4l0 -152.53 5.28 0 0 152.53 -5.28 0zm0.05 0.47l-23.67 -128.87 5.2 -0.95 23.66 128.87 -5.19 0.95zm0.15 0.54l-44.78 -107.74 4.87 -2.03 44.79 107.74 -4.88 2.03z"/>
 <polygon fill="#E8F2E8" points="938.23,1755.27 900.1,1717.14 938.23,1679 976.37,1717.14 "/>
 <polygon fill="#37446C" points="938.23,1602.74 861.97,1526.47 938.23,1450.21 1014.5,1526.47 "/>
 <path id="1" fill="#E8F2E8" fill-rule="nonzero" d="M863.83 1524.6l76.27 76.27 -3.73 3.73 -76.27 -76.26 0 -3.74 3.73 0zm-3.73 3.74l-1.87 -1.87 1.87 -1.87 0 3.74zm80 -76.27l-76.27 76.27 -3.73 -3.74 76.27 -76.26 3.73 0 0 3.73zm-3.73 -3.73l1.86 -1.87 1.87 1.87 -3.73 0zm76.26 80l-76.26 -76.27 3.73 -3.73 76.27 76.26 0 3.74 -3.74 0zm3.74 -3.74l1.86 1.87 -1.86 1.87 0 -3.74zm-80 76.27l76.26 -76.27 3.74 3.74 -76.27 76.26 -3.73 0 0 -3.73zm3.73 3.73l-1.87 1.87 -1.86 -1.87 3.73 0z"/>
 <path fill="#E8F2E8" fill-rule="nonzero" d="M936.07 1604.26l-63 -89.53 4.32 -3.04 63 89.53 -4.32 3.04zm67.33 -89.53l-63.01 89.53 -4.32 -3.04 63.01 -89.53 4.32 3.04zm-17.94 -18.72l-44.79 107.74 -4.88 -2.03 44.79 -107.74 4.88 2.03zm-20.97 -21.67l-23.66 128.87 -5.19 -0.95 23.66 -128.87 5.19 0.95zm-28.9 128.4l0 -152.53 5.28 0 0 152.53 -5.28 0zm0.05 0.47l-23.67 -128.87 5.2 -0.95 23.66 128.87 -5.19 0.95zm0.15 0.54l-44.78 -107.74 4.88 -2.03 44.78 107.74 -4.88 2.03z"/>
 <polygon fill="#E8F2E8" points="938.23,1602.74 900.1,1564.6 938.23,1526.47 976.37,1564.6 "/>
 <polygon fill="#37446C" points="938.23,1450.21 861.97,1373.94 938.23,1297.67 1014.5,1373.94 "/>
 <path id="1" fill="#E8F2E8" fill-rule="nonzero" d="M863.84 1372.07l76.26 76.27 -3.73 3.73 -76.27 -76.26 0 -3.74 3.74 0zm-3.74 3.74l-1.87 -1.87 1.87 -1.87 0 3.74zm80 -76.27l-76.26 76.27 -3.74 -3.74 76.27 -76.26 3.73 0 0 3.73zm-3.73 -3.73l1.86 -1.87 1.87 1.87 -3.73 0zm76.26 80l-76.26 -76.27 3.73 -3.73 76.27 76.26 0 3.74 -3.74 0zm3.74 -3.74l1.87 1.87 -1.87 1.87 0 -3.74zm-80 76.27l76.26 -76.27 3.74 3.74 -76.27 76.26 -3.73 0 0 -3.73zm3.73 3.73l-1.87 1.87 -1.86 -1.87 3.73 0z"/>
 <path fill="#E8F2E8" fill-rule="nonzero" d="M936.08 1451.73l-63.01 -89.54 4.32 -3.03 63 89.53 -4.31 3.04zm67.32 -89.54l-63.01 89.54 -4.31 -3.04 63 -89.53 4.32 3.03zm-17.94 -18.72l-44.79 107.75 -4.87 -2.03 44.78 -107.74 4.88 2.02zm-20.97 -21.66l-23.66 128.87 -5.19 -0.95 23.66 -128.87 5.19 0.95zm-28.9 128.4l0 -152.54 5.29 0 0 152.54 -5.29 0zm0.05 0.47l-23.67 -128.87 5.2 -0.95 23.66 128.87 -5.19 0.95zm0.16 0.54l-44.79 -107.75 4.88 -2.02 44.78 107.74 -4.87 2.03z"/>
 <polygon fill="#E8F2E8" points="938.23,1450.21 900.1,1412.07 938.23,1373.94 976.37,1412.07 "/>
 <polygon fill="#37446C" points="938.24,1297.67 861.97,1221.41 938.24,1145.14 1014.5,1221.41 "/>
 <path id="1" fill="#E8F2E8" fill-rule="nonzero" d="M863.84 1219.54l76.26 76.27 -3.73 3.73 -76.27 -76.26 0 -3.74 3.74 0zm-3.74 3.74l-1.86 -1.87 1.86 -1.87 0 3.74zm80 -76.27l-76.26 76.27 -3.74 -3.74 76.27 -76.26 3.73 0 0 3.73zm-3.73 -3.73l1.87 -1.87 1.86 1.87 -3.73 0zm76.27 80l-76.27 -76.27 3.73 -3.73 76.27 76.26 0 3.74 -3.73 0zm3.73 -3.74l1.87 1.87 -1.87 1.87 0 -3.74zm-80 76.27l76.27 -76.27 3.73 3.74 -76.27 76.26 -3.73 0 0 -3.73zm3.73 3.73l-1.86 1.87 -1.87 -1.87 3.73 0z"/>
 <path fill="#E8F2E8" fill-rule="nonzero" d="M936.08 1299.19l-63.01 -89.53 4.32 -3.04 63.01 89.53 -4.32 3.04zm67.32 -89.53l-63 89.53 -4.32 -3.04 63 -89.53 4.32 3.04zm-17.94 -18.72l-44.78 107.75 -4.88 -2.03 44.78 -107.74 4.88 2.02zm-20.97 -21.66l-23.66 128.87 -5.19 -0.95 23.66 -128.87 5.19 0.95zm-28.89 128.39l0 -152.53 5.28 0 0 152.53 -5.28 0zm0.04 0.48l-23.66 -128.87 5.19 -0.95 23.66 128.87 -5.19 0.95zm0.16 0.54l-44.79 -107.75 4.88 -2.02 44.79 107.74 -4.88 2.03z"/>
 <polygon fill="#E8F2E8" points="938.24,1297.67 900.1,1259.54 938.24,1221.41 976.37,1259.54 "/>
 <polygon fill="#37446C" points="1090.77,1755.27 1014.5,1679 1090.77,1602.74 1167.03,1679 "/>
 <path id="1" fill="#E8F2E8" fill-rule="nonzero" d="M1016.37 1677.13l76.26 76.27 -3.73 3.74 -76.27 -76.27 0 -3.74 3.74 0zm-3.74 3.74l-1.87 -1.87 1.87 -1.87 0 3.74zm80 -76.27l-76.26 76.27 -3.74 -3.74 76.27 -76.26 3.73 0 0 3.73zm-3.73 -3.73l1.87 -1.87 1.86 1.87 -3.73 0zm76.26 80l-76.26 -76.27 3.73 -3.73 76.27 76.26 0 3.74 -3.74 0zm3.74 -3.74l1.86 1.87 -1.86 1.87 0 -3.74zm-80 76.27l76.26 -76.27 3.74 3.74 -76.27 76.27 -3.73 0 0 -3.74zm3.73 3.74l-1.86 1.86 -1.87 -1.86 3.73 0z"/>
 <path fill="#E8F2E8" fill-rule="nonzero" d="M1088.6 1756.79l-63 -89.53 4.32 -3.04 63 89.53 -4.32 3.04zm67.33 -89.53l-63.01 89.53 -4.32 -3.04 63.01 -89.53 4.32 3.04zm-17.94 -18.72l-44.79 107.74 -4.88 -2.03 44.79 -107.74 4.88 2.03zm-20.97 -21.67l-23.66 128.87 -5.19 -0.95 23.66 -128.87 5.19 0.95zm-28.9 128.4l0 -152.53 5.28 0 0 152.53 -5.28 0zm0.05 0.47l-23.66 -128.87 5.19 -0.95 23.66 128.87 -5.19 0.95zm0.15 0.54l-44.78 -107.74 4.88 -2.03 44.78 107.74 -4.88 2.03z"/>
 <polygon fill="#E8F2E8" points="1090.76,1755.27 1052.63,1717.14 1090.76,1679 1128.9,1717.14 "/>
 <polygon fill="#37446C" points="1090.77,1602.74 1014.5,1526.47 1090.77,1450.21 1167.03,1526.47 "/>
 <path id="1" fill="#E8F2E8" fill-rule="nonzero" d="M1016.37 1524.6l76.26 76.27 -3.73 3.73 -76.27 -76.26 0 -3.74 3.74 0zm-3.74 3.74l-1.86 -1.87 1.86 -1.87 0 3.74zm80 -76.27l-76.26 76.27 -3.74 -3.74 76.27 -76.26 3.73 0 0 3.73zm-3.73 -3.73l1.87 -1.87 1.86 1.87 -3.73 0zm76.26 80l-76.26 -76.27 3.73 -3.73 76.27 76.26 0 3.74 -3.74 0zm3.74 -3.74l1.87 1.87 -1.87 1.87 0 -3.74zm-80 76.27l76.26 -76.27 3.74 3.74 -76.27 76.26 -3.73 0 0 -3.73zm3.73 3.73l-1.86 1.87 -1.87 -1.87 3.73 0z"/>
 <path fill="#E8F2E8" fill-rule="nonzero" d="M1088.61 1604.26l-63.01 -89.53 4.32 -3.04 63 89.53 -4.31 3.04zm67.32 -89.53l-63.01 89.53 -4.31 -3.04 63 -89.53 4.32 3.04zm-17.94 -18.72l-44.79 107.74 -4.87 -2.03 44.78 -107.74 4.88 2.03zm-20.96 -21.67l-23.67 128.87 -5.19 -0.95 23.66 -128.87 5.2 0.95zm-28.91 128.4l0 -152.53 5.29 0 0 152.53 -5.29 0zm0.05 0.47l-23.66 -128.87 5.19 -0.95 23.66 128.87 -5.19 0.95zm0.16 0.54l-44.79 -107.74 4.88 -2.03 44.78 107.74 -4.87 2.03z"/>
 <polygon fill="#E8F2E8" points="1090.77,1602.74 1052.63,1564.6 1090.77,1526.47 1128.9,1564.6 "/>
 <polygon fill="#37446C" points="1090.77,1450.21 1014.5,1373.94 1090.77,1297.67 1167.03,1373.94 "/>
 <path id="1" fill="#E8F2E8" fill-rule="nonzero" d="M1016.37 1372.07l76.26 76.27 -3.73 3.73 -76.27 -76.26 0 -3.74 3.74 0zm-3.74 3.74l-1.86 -1.87 1.86 -1.87 0 3.74zm80 -76.27l-76.26 76.27 -3.74 -3.74 76.27 -76.26 3.73 0 0 3.73zm-3.73 -3.73l1.87 -1.87 1.86 1.87 -3.73 0zm76.27 80l-76.27 -76.27 3.73 -3.73 76.27 76.26 0 3.74 -3.73 0zm3.73 -3.74l1.87 1.87 -1.87 1.87 0 -3.74zm-80 76.27l76.27 -76.27 3.73 3.74 -76.27 76.26 -3.73 0 0 -3.73zm3.73 3.73l-1.86 1.87 -1.87 -1.87 3.73 0z"/>
 <path fill="#E8F2E8" fill-rule="nonzero" d="M1088.61 1451.73l-63 -89.54 4.31 -3.03 63.01 89.53 -4.32 3.04zm67.32 -89.54l-63 89.54 -4.32 -3.04 63 -89.53 4.32 3.03zm-17.94 -18.72l-44.78 107.75 -4.88 -2.03 44.78 -107.74 4.88 2.02zm-20.96 -21.66l-23.67 128.87 -5.19 -0.95 23.66 -128.87 5.2 0.95zm-28.9 128.4l0 -152.54 5.28 0 0 152.54 -5.28 0zm0.04 0.47l-23.66 -128.87 5.19 -0.95 23.66 128.87 -5.19 0.95zm0.16 0.54l-44.79 -107.75 4.88 -2.02 44.79 107.74 -4.88 2.03z"/>
 <polygon fill="#E8F2E8" points="1090.77,1450.21 1052.63,1412.07 1090.77,1373.94 1128.9,1412.07 "/>
 <polygon fill="#37446C" points="1090.77,1297.67 1014.5,1221.41 1090.77,1145.14 1167.03,1221.41 "/>
 <path id="1" fill="#E8F2E8" fill-rule="nonzero" d="M1016.37 1219.54l76.27 76.27 -3.74 3.73 -76.26 -76.26 0 -3.74 3.73 0zm-3.73 3.74l-1.87 -1.87 1.87 -1.87 0 3.74zm80 -76.27l-76.27 76.27 -3.73 -3.74 76.26 -76.26 3.74 0 0 3.73zm-3.74 -3.73l1.87 -1.87 1.87 1.87 -3.74 0zm76.27 80l-76.27 -76.27 3.74 -3.73 76.26 76.26 0 3.74 -3.73 0zm3.73 -3.74l1.87 1.87 -1.87 1.87 0 -3.74zm-80 76.27l76.27 -76.27 3.73 3.74 -76.26 76.26 -3.74 0 0 -3.73zm3.74 3.73l-1.87 1.87 -1.87 -1.87 3.74 0z"/>
 <path fill="#E8F2E8" fill-rule="nonzero" d="M1088.61 1299.19l-63 -89.53 4.32 -3.04 63 89.53 -4.32 3.04zm67.32 -89.53l-63 89.53 -4.32 -3.04 63 -89.53 4.32 3.04zm-17.94 -18.72l-44.78 107.75 -4.88 -2.03 44.79 -107.74 4.87 2.02zm-20.96 -21.66l-23.67 128.87 -5.19 -0.95 23.66 -128.87 5.2 0.95zm-28.9 128.39l0 -152.53 5.28 0 0 152.53 -5.28 0zm0.04 0.48l-23.66 -128.87 5.19 -0.95 23.66 128.87 -5.19 0.95zm0.16 0.54l-44.79 -107.75 4.88 -2.02 44.79 107.74 -4.88 2.03z"/>
 <polygon fill="#E8F2E8" points="1090.77,1297.67 1052.63,1259.54 1090.77,1221.41 1128.9,1259.54 "/>
 <polygon fill="#37446C" points="1243.3,1755.27 1167.03,1679 1243.3,1602.74 1319.56,1679 "/>
 <path id="1" fill="#E8F2E8" fill-rule="nonzero" d="M1168.9 1677.13l76.26 76.27 -3.73 3.74 -76.27 -76.27 0 -3.74 3.74 0zm-3.74 3.74l-1.86 -1.87 1.86 -1.87 0 3.74zm80 -76.27l-76.26 76.27 -3.74 -3.74 76.27 -76.26 3.73 0 0 3.73zm-3.73 -3.73l1.87 -1.87 1.86 1.87 -3.73 0zm76.27 80l-76.27 -76.27 3.73 -3.73 76.27 76.26 0 3.74 -3.73 0zm3.73 -3.74l1.87 1.87 -1.87 1.87 0 -3.74zm-80 76.27l76.27 -76.27 3.73 3.74 -76.27 76.27 -3.73 0 0 -3.74zm3.73 3.74l-1.86 1.86 -1.87 -1.86 3.73 0z"/>
 <path fill="#E8F2E8" fill-rule="nonzero" d="M1241.14 1756.79l-63.01 -89.53 4.32 -3.04 63.01 89.53 -4.32 3.04zm67.32 -89.53l-63 89.53 -4.32 -3.04 63 -89.53 4.32 3.04zm-17.94 -18.72l-44.78 107.74 -4.88 -2.03 44.78 -107.74 4.88 2.03zm-20.96 -21.67l-23.67 128.87 -5.19 -0.95 23.66 -128.87 5.2 0.95zm-28.9 128.4l0 -152.53 5.28 0 0 152.53 -5.28 0zm0.04 0.47l-23.66 -128.87 5.19 -0.95 23.66 128.87 -5.19 0.95zm0.16 0.54l-44.79 -107.74 4.88 -2.03 44.79 107.74 -4.88 2.03z"/>
 <polygon fill="#E8F2E8" points="1243.3,1755.27 1205.16,1717.14 1243.3,1679 1281.43,1717.14 "/>
 <polygon fill="#37446C" points="1243.3,1602.74 1167.03,1526.47 1243.3,1450.21 1319.56,1526.47 "/>
 <path id="1" fill="#E8F2E8" fill-rule="nonzero" d="M1168.9 1524.6l76.26 76.27 -3.73 3.73 -76.27 -76.26 0 -3.74 3.74 0zm-3.74 3.74l-1.86 -1.87 1.86 -1.87 0 3.74zm80 -76.27l-76.26 76.27 -3.74 -3.74 76.27 -76.26 3.73 0 0 3.73zm-3.73 -3.73l1.87 -1.87 1.86 1.87 -3.73 0zm76.27 80l-76.27 -76.27 3.73 -3.73 76.27 76.26 0 3.74 -3.73 0zm3.73 -3.74l1.87 1.87 -1.87 1.87 0 -3.74zm-80 76.27l76.27 -76.27 3.73 3.74 -76.27 76.26 -3.73 0 0 -3.73zm3.73 3.73l-1.86 1.87 -1.87 -1.87 3.73 0z"/>
 <path fill="#E8F2E8" fill-rule="nonzero" d="M1241.14 1604.26l-63 -89.53 4.31 -3.04 63.01 89.53 -4.32 3.04zm67.32 -89.53l-63 89.53 -4.32 -3.04 63 -89.53 4.32 3.04zm-17.94 -18.72l-44.78 107.74 -4.88 -2.03 44.79 -107.74 4.87 2.03zm-20.96 -21.67l-23.67 128.87 -5.19 -0.95 23.66 -128.87 5.2 0.95zm-28.9 128.4l0 -152.53 5.28 0 0 152.53 -5.28 0zm0.04 0.47l-23.66 -128.87 5.19 -0.95 23.66 128.87 -5.19 0.95zm0.16 0.54l-44.79 -107.74 4.88 -2.03 44.79 107.74 -4.88 2.03z"/>
 <polygon fill="#E8F2E8" points="1243.3,1602.74 1205.16,1564.6 1243.3,1526.47 1281.43,1564.6 "/>
 <polygon fill="#37446C" points="1243.3,1450.21 1167.03,1373.94 1243.3,1297.67 1319.56,1373.94 "/>
 <path id="1" fill="#E8F2E8" fill-rule="nonzero" d="M1168.9 1372.07l76.27 76.27 -3.74 3.73 -76.26 -76.26 0 -3.74 3.73 0zm-3.73 3.74l-1.87 -1.87 1.87 -1.87 0 3.74zm80 -76.27l-76.27 76.27 -3.73 -3.74 76.26 -76.26 3.74 0 0 3.73zm-3.74 -3.73l1.87 -1.87 1.87 1.87 -3.74 0zm76.27 80l-76.27 -76.27 3.74 -3.73 76.26 76.26 0 3.74 -3.73 0zm3.73 -3.74l1.87 1.87 -1.87 1.87 0 -3.74zm-80 76.27l76.27 -76.27 3.73 3.74 -76.26 76.26 -3.74 0 0 -3.73zm3.74 3.73l-1.87 1.87 -1.87 -1.87 3.74 0z"/>
 <path fill="#E8F2E8" fill-rule="nonzero" d="M1241.14 1451.73l-63 -89.54 4.32 -3.03 63 89.53 -4.32 3.04zm67.32 -89.54l-63 89.54 -4.32 -3.04 63 -89.53 4.32 3.03zm-17.94 -18.72l-44.78 107.75 -4.88 -2.03 44.79 -107.74 4.87 2.02zm-20.96 -21.66l-23.66 128.87 -5.2 -0.95 23.66 -128.87 5.2 0.95zm-28.9 128.4l0 -152.54 5.28 0 0 152.54 -5.28 0zm0.04 0.47l-23.66 -128.87 5.19 -0.95 23.67 128.87 -5.2 0.95zm0.16 0.54l-44.79 -107.75 4.88 -2.02 44.79 107.74 -4.88 2.03z"/>
 <polygon fill="#E8F2E8" points="1243.3,1450.21 1205.17,1412.07 1243.3,1373.94 1281.43,1412.07 "/>
 <polygon fill="#37446C" points="1243.3,1297.67 1167.03,1221.41 1243.3,1145.14 1319.57,1221.41 "/>
 <path id="1" fill="#E8F2E8" fill-rule="nonzero" d="M1168.9 1219.54l76.27 76.27 -3.74 3.73 -76.26 -76.26 0 -3.74 3.73 0zm-3.73 3.74l-1.87 -1.87 1.87 -1.87 0 3.74zm80 -76.27l-76.27 76.27 -3.73 -3.74 76.26 -76.26 3.74 0 0 3.73zm-3.74 -3.73l1.87 -1.87 1.87 1.87 -3.74 0zm76.27 80l-76.27 -76.27 3.74 -3.73 76.26 76.26 0 3.74 -3.73 0zm3.73 -3.74l1.87 1.87 -1.87 1.87 0 -3.74zm-80 76.27l76.27 -76.27 3.73 3.74 -76.26 76.26 -3.74 0 0 -3.73zm3.74 3.73l-1.87 1.87 -1.87 -1.87 3.74 0z"/>
 <path fill="#E8F2E8" fill-rule="nonzero" d="M1241.14 1299.19l-63 -89.53 4.32 -3.04 63 89.53 -4.32 3.04zm67.32 -89.53l-63 89.53 -4.32 -3.04 63 -89.53 4.32 3.04zm-17.93 -18.72l-44.79 107.75 -4.88 -2.03 44.79 -107.74 4.88 2.02zm-20.97 -21.66l-23.66 128.87 -5.2 -0.95 23.66 -128.87 5.2 0.95zm-28.9 128.39l0 -152.53 5.28 0 0 152.53 -5.28 0zm0.04 0.48l-23.66 -128.87 5.2 -0.95 23.66 128.87 -5.2 0.95zm0.16 0.54l-44.79 -107.75 4.88 -2.02 44.79 107.74 -4.88 2.03z"/>
 <polygon fill="#E8F2E8" points="1243.3,1297.67 1205.17,1259.54 1243.3,1221.41 1281.43,1259.54 "/>
 <polygon fill="#37446C" points="709.43,1831.53 633.17,1755.27 709.43,1679 785.7,1755.27 "/>
 <path id="1" fill="#FFF5DC" fill-rule="nonzero" d="M635.04 1753.4l76.26 76.27 -3.73 3.73 -76.27 -76.26 0 -3.74 3.74 0zm-3.74 3.74l-1.87 -1.87 1.87 -1.87 0 3.74zm80 -76.27l-76.26 76.27 -3.74 -3.74 76.27 -76.27 3.73 0 0 3.74zm-3.73 -3.74l1.86 -1.86 1.87 1.86 -3.73 0zm76.26 80.01l-76.26 -76.27 3.73 -3.74 76.27 76.27 0 3.74 -3.74 0zm3.74 -3.74l1.86 1.87 -1.86 1.87 0 -3.74zm-80 76.27l76.26 -76.27 3.74 3.74 -76.27 76.26 -3.73 0 0 -3.73zm3.73 3.73l-1.87 1.87 -1.86 -1.87 3.73 0z"/>
 <path fill="#FFF5DC" fill-rule="nonzero" d="M707.27 1833.05l-63 -89.53 4.32 -3.04 63 89.53 -4.32 3.04zm67.33 -89.53l-63.01 89.53 -4.32 -3.04 63.01 -89.53 4.32 3.04zm-17.94 -18.72l-44.79 107.75 -4.87 -2.03 44.78 -107.75 4.88 2.03zm-20.97 -21.66l-23.66 128.87 -5.19 -0.95 23.66 -128.87 5.19 0.95zm-28.9 128.39l0 -152.53 5.28 0 0 152.53 -5.28 0zm0.05 0.48l-23.67 -128.87 5.2 -0.95 23.66 128.87 -5.19 0.95zm0.16 0.54l-44.79 -107.75 4.88 -2.03 44.78 107.75 -4.87 2.03z"/>
 <polygon fill="#FFF5DC" points="709.43,1831.53 671.3,1793.4 709.43,1755.27 747.57,1793.4 "/>
 <polygon fill="#37446C" points="709.44,1679 633.17,1602.74 709.44,1526.47 785.7,1602.74 "/>
 <path id="1" fill="#FFF5DC" fill-rule="nonzero" d="M635.04 1600.87l76.26 76.27 -3.73 3.73 -76.27 -76.27 0 -3.73 3.74 0zm-3.74 3.73l-1.87 -1.86 1.87 -1.87 0 3.73zm80 -76.26l-76.26 76.26 -3.74 -3.73 76.27 -76.27 3.73 0 0 3.74zm-3.73 -3.74l1.87 -1.86 1.86 1.86 -3.73 0zm76.26 80l-76.26 -76.26 3.73 -3.74 76.27 76.27 0 3.73 -3.74 0zm3.74 -3.73l1.87 1.87 -1.87 1.86 0 -3.73zm-80 76.27l76.26 -76.27 3.74 3.73 -76.27 76.27 -3.73 0 0 -3.73zm3.73 3.73l-1.86 1.87 -1.87 -1.87 3.73 0z"/>
 <path fill="#FFF5DC" fill-rule="nonzero" d="M707.28 1680.52l-63.01 -89.53 4.32 -3.04 63 89.53 -4.31 3.04zm67.32 -89.53l-63.01 89.53 -4.31 -3.04 63 -89.53 4.32 3.04zm-17.94 -18.72l-44.79 107.75 -4.87 -2.03 44.78 -107.75 4.88 2.03zm-20.97 -21.66l-23.66 128.87 -5.19 -0.95 23.66 -128.87 5.19 0.95zm-28.9 128.39l0 -152.53 5.29 0 0 152.53 -5.29 0zm0.05 0.48l-23.66 -128.87 5.19 -0.95 23.66 128.87 -5.19 0.95zm0.16 0.54l-44.79 -107.75 4.88 -2.03 44.78 107.75 -4.87 2.03z"/>
 <polygon fill="#FFF5DC" points="709.44,1679 671.3,1640.87 709.44,1602.74 747.57,1640.87 "/>
 <polygon fill="#37446C" points="709.44,1526.47 633.17,1450.21 709.44,1373.94 785.7,1450.21 "/>
 <path id="1" fill="#FFF5DC" fill-rule="nonzero" d="M635.04 1448.34l76.26 76.26 -3.73 3.74 -76.27 -76.27 0 -3.73 3.74 0zm-3.74 3.73l-1.86 -1.86 1.86 -1.87 0 3.73zm80 -76.26l-76.26 76.26 -3.74 -3.73 76.27 -76.27 3.73 0 0 3.74zm-3.73 -3.74l1.87 -1.86 1.86 1.86 -3.73 0zm76.27 80l-76.27 -76.26 3.73 -3.74 76.27 76.27 0 3.73 -3.73 0zm3.73 -3.73l1.87 1.87 -1.87 1.86 0 -3.73zm-80 76.26l76.27 -76.26 3.73 3.73 -76.27 76.27 -3.73 0 0 -3.74zm3.73 3.74l-1.86 1.87 -1.87 -1.87 3.73 0z"/>
 <path fill="#FFF5DC" fill-rule="nonzero" d="M707.28 1527.99l-63 -89.53 4.31 -3.04 63.01 89.53 -4.32 3.04zm67.32 -89.53l-63 89.53 -4.32 -3.04 63 -89.53 4.32 3.04zm-17.94 -18.72l-44.78 107.75 -4.88 -2.03 44.78 -107.75 4.88 2.03zm-20.96 -21.66l-23.67 128.87 -5.19 -0.95 23.66 -128.88 5.2 0.96zm-28.9 128.39l0 -152.53 5.28 0 0 152.53 -5.28 0zm0.04 0.48l-23.66 -128.87 5.19 -0.96 23.66 128.88 -5.19 0.95zm0.16 0.54l-44.79 -107.75 4.88 -2.03 44.79 107.75 -4.88 2.03z"/>
 <polygon fill="#FFF5DC" points="709.44,1526.47 671.3,1488.34 709.44,1450.21 747.57,1488.34 "/>
 <polygon fill="#37446C" points="709.44,1373.94 633.17,1297.67 709.44,1221.41 785.7,1297.67 "/>
 <path id="1" fill="#FFF5DC" fill-rule="nonzero" d="M635.04 1295.81l76.26 76.26 -3.73 3.74 -76.27 -76.27 0 -3.73 3.74 0zm-3.74 3.73l-1.86 -1.87 1.86 -1.86 0 3.73zm80 -76.26l-76.26 76.26 -3.74 -3.73 76.27 -76.27 3.73 0 0 3.74zm-3.73 -3.74l1.87 -1.87 1.86 1.87 -3.73 0zm76.27 80l-76.27 -76.26 3.73 -3.74 76.27 76.27 0 3.73 -3.73 0zm3.73 -3.73l1.87 1.86 -1.87 1.87 0 -3.73zm-80 76.26l76.27 -76.26 3.73 3.73 -76.27 76.27 -3.73 0 0 -3.74zm3.73 3.74l-1.86 1.87 -1.87 -1.87 3.73 0z"/>
 <path fill="#FFF5DC" fill-rule="nonzero" d="M707.28 1375.46l-63 -89.53 4.31 -3.04 63.01 89.53 -4.32 3.04zm67.32 -89.53l-63 89.53 -4.32 -3.04 63 -89.53 4.32 3.04zm-17.94 -18.72l-44.78 107.74 -4.88 -2.02 44.79 -107.75 4.87 2.03zm-20.96 -21.66l-23.66 128.87 -5.2 -0.96 23.66 -128.87 5.2 0.96zm-28.9 128.39l0 -152.53 5.28 0 0 152.53 -5.28 0zm0.04 0.48l-23.66 -128.87 5.19 -0.96 23.67 128.87 -5.2 0.96zm0.16 0.53l-44.79 -107.74 4.88 -2.03 44.79 107.75 -4.88 2.02z"/>
 <polygon fill="#FFF5DC" points="709.44,1373.94 671.31,1335.81 709.44,1297.67 747.57,1335.81 "/>
 <polygon fill="#37446C" points="709.44,1221.41 633.17,1145.14 709.44,1068.88 785.7,1145.14 "/>
 <path id="1" fill="#FFF5DC" fill-rule="nonzero" d="M635.04 1143.28l76.27 76.26 -3.74 3.74 -76.26 -76.27 0 -3.73 3.73 0zm-3.73 3.73l-1.87 -1.87 1.87 -1.86 0 3.73zm80 -76.27l-76.27 76.27 -3.73 -3.73 76.26 -76.27 3.74 0 0 3.73zm-3.74 -3.73l1.87 -1.87 1.87 1.87 -3.74 0zm76.27 80l-76.27 -76.27 3.74 -3.73 76.26 76.27 0 3.73 -3.73 0zm3.73 -3.73l1.87 1.86 -1.87 1.87 0 -3.73zm-80 76.26l76.27 -76.26 3.73 3.73 -76.26 76.27 -3.74 0 0 -3.74zm3.74 3.74l-1.87 1.86 -1.87 -1.86 3.74 0z"/>
 <path fill="#FFF5DC" fill-rule="nonzero" d="M707.28 1222.93l-63 -89.53 4.32 -3.04 63 89.53 -4.32 3.04zm67.32 -89.53l-63 89.53 -4.32 -3.04 63 -89.53 4.32 3.04zm-17.94 -18.72l-44.78 107.74 -4.88 -2.02 44.79 -107.75 4.87 2.03zm-20.96 -21.66l-23.66 128.87 -5.2 -0.96 23.66 -128.87 5.2 0.96zm-28.9 128.39l0 -152.53 5.28 0 0 152.53 -5.28 0zm0.04 0.48l-23.66 -128.87 5.19 -0.96 23.67 128.87 -5.2 0.96zm0.16 0.53l-44.79 -107.74 4.88 -2.03 44.79 107.75 -4.88 2.02z"/>
 <polygon fill="#FFF5DC" points="709.44,1221.41 671.31,1183.28 709.44,1145.14 747.57,1183.28 "/>
 <polygon fill="#37446C" points="861.97,1831.53 785.7,1755.27 861.97,1679 938.23,1755.27 "/>
 <path id="1" fill="#FFF5DC" fill-rule="nonzero" d="M787.57 1753.4l76.26 76.27 -3.73 3.73 -76.27 -76.26 0 -3.74 3.74 0zm-3.74 3.74l-1.86 -1.87 1.86 -1.87 0 3.74zm80 -76.27l-76.26 76.27 -3.74 -3.74 76.27 -76.27 3.73 0 0 3.74zm-3.73 -3.74l1.87 -1.86 1.86 1.86 -3.73 0zm76.26 80.01l-76.26 -76.27 3.73 -3.74 76.27 76.27 0 3.74 -3.74 0zm3.74 -3.74l1.87 1.87 -1.87 1.87 0 -3.74zm-80 76.27l76.26 -76.27 3.74 3.74 -76.27 76.26 -3.73 0 0 -3.73zm3.73 3.73l-1.86 1.87 -1.87 -1.87 3.73 0z"/>
 <path fill="#FFF5DC" fill-rule="nonzero" d="M859.81 1833.05l-63 -89.53 4.31 -3.04 63 89.53 -4.31 3.04zm67.32 -89.53l-63.01 89.53 -4.31 -3.04 63 -89.53 4.32 3.04zm-17.94 -18.72l-44.79 107.75 -4.87 -2.03 44.78 -107.75 4.88 2.03zm-20.96 -21.66l-23.67 128.87 -5.19 -0.95 23.66 -128.87 5.2 0.95zm-28.91 128.39l0 -152.53 5.29 0 0 152.53 -5.29 0zm0.05 0.48l-23.66 -128.87 5.19 -0.95 23.66 128.87 -5.19 0.95zm0.16 0.54l-44.79 -107.75 4.88 -2.03 44.78 107.75 -4.87 2.03z"/>
 <polygon fill="#FFF5DC" points="861.97,1831.53 823.83,1793.4 861.97,1755.27 900.1,1793.4 "/>
 <polygon fill="#37446C" points="861.97,1679 785.7,1602.74 861.97,1526.47 938.23,1602.74 "/>
 <path id="1" fill="#FFF5DC" fill-rule="nonzero" d="M787.57 1600.87l76.26 76.27 -3.73 3.73 -76.27 -76.27 0 -3.73 3.74 0zm-3.74 3.73l-1.86 -1.86 1.86 -1.87 0 3.73zm80 -76.26l-76.26 76.26 -3.74 -3.73 76.27 -76.27 3.73 0 0 3.74zm-3.73 -3.74l1.87 -1.86 1.86 1.86 -3.73 0zm76.27 80l-76.27 -76.26 3.73 -3.74 76.27 76.27 0 3.73 -3.73 0zm3.73 -3.73l1.87 1.87 -1.87 1.86 0 -3.73zm-80 76.27l76.27 -76.27 3.73 3.73 -76.27 76.27 -3.73 0 0 -3.73zm3.73 3.73l-1.86 1.87 -1.87 -1.87 3.73 0z"/>
 <path fill="#FFF5DC" fill-rule="nonzero" d="M859.81 1680.52l-63 -89.53 4.31 -3.04 63.01 89.53 -4.32 3.04zm67.32 -89.53l-63 89.53 -4.32 -3.04 63 -89.53 4.32 3.04zm-17.94 -18.72l-44.78 107.75 -4.88 -2.03 44.78 -107.75 4.88 2.03zm-20.96 -21.66l-23.67 128.87 -5.19 -0.95 23.66 -128.87 5.2 0.95zm-28.9 128.39l0 -152.53 5.28 0 0 152.53 -5.28 0zm0.04 0.48l-23.66 -128.87 5.19 -0.95 23.66 128.87 -5.19 0.95zm0.16 0.54l-44.79 -107.75 4.88 -2.03 44.79 107.75 -4.88 2.03z"/>
 <polygon fill="#FFF5DC" points="861.97,1679 823.84,1640.87 861.97,1602.74 900.1,1640.87 "/>
 <polygon fill="#37446C" points="861.97,1526.47 785.7,1450.21 861.97,1373.94 938.23,1450.21 "/>
 <path id="1" fill="#FFF5DC" fill-rule="nonzero" d="M787.57 1448.34l76.27 76.26 -3.74 3.74 -76.26 -76.27 0 -3.73 3.73 0zm-3.73 3.73l-1.87 -1.86 1.87 -1.87 0 3.73zm80 -76.26l-76.27 76.26 -3.73 -3.73 76.26 -76.27 3.74 0 0 3.74zm-3.74 -3.74l1.87 -1.86 1.87 1.86 -3.74 0zm76.27 80l-76.27 -76.26 3.74 -3.74 76.26 76.27 0 3.73 -3.73 0zm3.73 -3.73l1.87 1.87 -1.87 1.86 0 -3.73zm-80 76.26l76.27 -76.26 3.73 3.73 -76.26 76.27 -3.74 0 0 -3.74zm3.74 3.74l-1.87 1.87 -1.87 -1.87 3.74 0z"/>
 <path fill="#FFF5DC" fill-rule="nonzero" d="M859.81 1527.99l-63 -89.53 4.32 -3.04 63 89.53 -4.32 3.04zm67.32 -89.53l-63 89.53 -4.32 -3.04 63 -89.53 4.32 3.04zm-17.94 -18.72l-44.78 107.75 -4.88 -2.03 44.79 -107.75 4.87 2.03zm-20.96 -21.66l-23.66 128.87 -5.2 -0.95 23.66 -128.88 5.2 0.96zm-28.9 128.39l0 -152.53 5.28 0 0 152.53 -5.28 0zm0.04 0.48l-23.66 -128.87 5.19 -0.96 23.67 128.88 -5.2 0.95zm0.16 0.54l-44.79 -107.75 4.88 -2.03 44.79 107.75 -4.88 2.03z"/>
 <polygon fill="#FFF5DC" points="861.97,1526.47 823.84,1488.34 861.97,1450.21 900.1,1488.34 "/>
 <polygon fill="#37446C" points="861.97,1373.94 785.7,1297.67 861.97,1221.41 938.23,1297.67 "/>
 <path id="1" fill="#FFF5DC" fill-rule="nonzero" d="M787.57 1295.81l76.27 76.26 -3.74 3.74 -76.26 -76.27 0 -3.73 3.73 0zm-3.73 3.73l-1.87 -1.87 1.87 -1.86 0 3.73zm80 -76.26l-76.27 76.26 -3.73 -3.73 76.26 -76.27 3.74 0 0 3.74zm-3.74 -3.74l1.87 -1.87 1.87 1.87 -3.74 0zm76.27 80l-76.27 -76.26 3.74 -3.74 76.26 76.27 0 3.73 -3.73 0zm3.73 -3.73l1.87 1.86 -1.87 1.87 0 -3.73zm-80 76.26l76.27 -76.26 3.73 3.73 -76.26 76.27 -3.74 0 0 -3.74zm3.74 3.74l-1.87 1.87 -1.87 -1.87 3.74 0z"/>
 <path fill="#FFF5DC" fill-rule="nonzero" d="M859.81 1375.46l-63 -89.53 4.32 -3.04 63 89.53 -4.32 3.04zm67.32 -89.53l-63 89.53 -4.32 -3.04 63 -89.53 4.32 3.04zm-17.93 -18.72l-44.79 107.74 -4.88 -2.02 44.79 -107.75 4.88 2.03zm-20.97 -21.66l-23.66 128.87 -5.2 -0.96 23.66 -128.87 5.2 0.96zm-28.9 128.39l0 -152.53 5.28 0 0 152.53 -5.28 0zm0.04 0.48l-23.66 -128.87 5.2 -0.96 23.66 128.87 -5.2 0.96zm0.16 0.53l-44.79 -107.74 4.88 -2.03 44.79 107.75 -4.88 2.02z"/>
 <polygon fill="#FFF5DC" points="861.97,1373.94 823.84,1335.81 861.97,1297.67 900.1,1335.81 "/>
 <polygon fill="#37446C" points="861.97,1221.41 785.7,1145.14 861.97,1068.88 938.24,1145.14 "/>
 <path id="1" fill="#FFF5DC" fill-rule="nonzero" d="M787.57 1143.28l76.27 76.26 -3.74 3.74 -76.26 -76.27 0 -3.73 3.73 0zm-3.73 3.73l-1.87 -1.87 1.87 -1.86 0 3.73zm80 -76.27l-76.27 76.27 -3.73 -3.73 76.26 -76.27 3.74 0 0 3.73zm-3.74 -3.73l1.87 -1.87 1.87 1.87 -3.74 0zm76.27 80l-76.27 -76.27 3.74 -3.73 76.26 76.27 0 3.73 -3.73 0zm3.73 -3.73l1.87 1.86 -1.87 1.87 0 -3.73zm-80 76.26l76.27 -76.26 3.73 3.73 -76.26 76.27 -3.74 0 0 -3.74zm3.74 3.74l-1.87 1.86 -1.87 -1.86 3.74 0z"/>
 <path fill="#FFF5DC" fill-rule="nonzero" d="M859.81 1222.93l-63 -89.53 4.32 -3.04 63 89.53 -4.32 3.04zm67.32 -89.53l-63 89.53 -4.32 -3.04 63 -89.53 4.32 3.04zm-17.93 -18.72l-44.79 107.74 -4.88 -2.02 44.79 -107.75 4.88 2.03zm-20.97 -21.66l-23.66 128.87 -5.2 -0.96 23.66 -128.87 5.2 0.96zm-28.9 128.39l0 -152.53 5.28 0 0 152.53 -5.28 0zm0.04 0.48l-23.66 -128.87 5.2 -0.96 23.66 128.87 -5.2 0.96zm0.16 0.53l-44.79 -107.74 4.88 -2.03 44.79 107.75 -4.88 2.02z"/>
 <polygon fill="#FFF5DC" points="861.97,1221.41 823.84,1183.28 861.97,1145.14 900.1,1183.28 "/>
 <polygon fill="#37446C" points="1014.5,1831.53 938.23,1755.27 1014.5,1679 1090.76,1755.27 "/>
 <path id="1" fill="#FFF5DC" fill-rule="nonzero" d="M940.1 1753.4l76.26 76.27 -3.73 3.73 -76.27 -76.26 0 -3.74 3.74 0zm-3.74 3.74l-1.86 -1.87 1.86 -1.87 0 3.74zm80 -76.27l-76.26 76.27 -3.74 -3.74 76.27 -76.27 3.73 0 0 3.74zm-3.73 -3.74l1.87 -1.86 1.86 1.86 -3.73 0zm76.27 80.01l-76.27 -76.27 3.73 -3.74 76.27 76.27 0 3.74 -3.73 0zm3.73 -3.74l1.87 1.87 -1.87 1.87 0 -3.74zm-80 76.27l76.27 -76.27 3.73 3.74 -76.27 76.26 -3.73 0 0 -3.73zm3.73 3.73l-1.86 1.87 -1.87 -1.87 3.73 0z"/>
 <path fill="#FFF5DC" fill-rule="nonzero" d="M1012.34 1833.05l-63 -89.53 4.32 -3.04 63 89.53 -4.32 3.04zm67.32 -89.53l-63 89.53 -4.32 -3.04 63 -89.53 4.32 3.04zm-17.94 -18.72l-44.78 107.75 -4.88 -2.03 44.79 -107.75 4.87 2.03zm-20.96 -21.66l-23.66 128.87 -5.2 -0.95 23.66 -128.87 5.2 0.95zm-28.9 128.39l0 -152.53 5.28 0 0 152.53 -5.28 0zm0.04 0.48l-23.66 -128.87 5.19 -0.95 23.67 128.87 -5.2 0.95zm0.16 0.54l-44.79 -107.75 4.88 -2.03 44.79 107.75 -4.88 2.03z"/>
 <polygon fill="#FFF5DC" points="1014.5,1831.53 976.37,1793.4 1014.5,1755.27 1052.63,1793.4 "/>
 <polygon fill="#37446C" points="1014.5,1679 938.23,1602.74 1014.5,1526.47 1090.77,1602.74 "/>
 <path id="1" fill="#FFF5DC" fill-rule="nonzero" d="M940.1 1600.87l76.27 76.27 -3.74 3.73 -76.26 -76.27 0 -3.73 3.73 0zm-3.73 3.73l-1.87 -1.86 1.87 -1.87 0 3.73zm80 -76.26l-76.27 76.26 -3.73 -3.73 76.26 -76.27 3.74 0 0 3.74zm-3.74 -3.74l1.87 -1.86 1.87 1.86 -3.74 0zm76.27 80l-76.27 -76.26 3.74 -3.74 76.26 76.27 0 3.73 -3.73 0zm3.73 -3.73l1.87 1.87 -1.87 1.86 0 -3.73zm-80 76.27l76.27 -76.27 3.73 3.73 -76.26 76.27 -3.74 0 0 -3.73zm3.74 3.73l-1.87 1.87 -1.87 -1.87 3.74 0z"/>
 <path fill="#FFF5DC" fill-rule="nonzero" d="M1012.34 1680.52l-63 -89.53 4.32 -3.04 63 89.53 -4.32 3.04zm67.32 -89.53l-63 89.53 -4.32 -3.04 63 -89.53 4.32 3.04zm-17.93 -18.72l-44.79 107.75 -4.88 -2.03 44.79 -107.75 4.88 2.03zm-20.97 -21.66l-23.66 128.87 -5.2 -0.95 23.66 -128.87 5.2 0.95zm-28.9 128.39l0 -152.53 5.28 0 0 152.53 -5.28 0zm0.04 0.48l-23.66 -128.87 5.2 -0.95 23.66 128.87 -5.2 0.95zm0.16 0.54l-44.79 -107.75 4.88 -2.03 44.79 107.75 -4.88 2.03z"/>
 <polygon fill="#FFF5DC" points="1014.5,1679 976.37,1640.87 1014.5,1602.74 1052.63,1640.87 "/>
 <polygon fill="#37446C" points="1014.5,1526.47 938.23,1450.21 1014.5,1373.94 1090.77,1450.21 "/>
 <path id="1" fill="#FFF5DC" fill-rule="nonzero" d="M940.1 1448.34l76.27 76.26 -3.74 3.74 -76.26 -76.27 0 -3.73 3.73 0zm-3.73 3.73l-1.87 -1.86 1.87 -1.87 0 3.73zm80 -76.26l-76.27 76.26 -3.73 -3.73 76.26 -76.27 3.74 0 0 3.74zm-3.74 -3.74l1.87 -1.86 1.87 1.86 -3.74 0zm76.27 80l-76.27 -76.26 3.74 -3.74 76.26 76.27 0 3.73 -3.73 0zm3.73 -3.73l1.87 1.87 -1.87 1.86 0 -3.73zm-80 76.26l76.27 -76.26 3.73 3.73 -76.26 76.27 -3.74 0 0 -3.74zm3.74 3.74l-1.87 1.87 -1.87 -1.87 3.74 0z"/>
 <path fill="#FFF5DC" fill-rule="nonzero" d="M1012.34 1527.99l-63 -89.53 4.32 -3.04 63 89.53 -4.32 3.04zm67.32 -89.53l-63 89.53 -4.32 -3.04 63 -89.53 4.32 3.04zm-17.93 -18.72l-44.79 107.75 -4.88 -2.03 44.79 -107.75 4.88 2.03zm-20.97 -21.66l-23.66 128.87 -5.2 -0.95 23.66 -128.88 5.2 0.96zm-28.9 128.39l0 -152.53 5.28 0 0 152.53 -5.28 0zm0.04 0.48l-23.66 -128.87 5.2 -0.96 23.66 128.88 -5.2 0.95zm0.16 0.54l-44.79 -107.75 4.88 -2.03 44.79 107.75 -4.88 2.03z"/>
 <polygon fill="#FFF5DC" points="1014.5,1526.47 976.37,1488.34 1014.5,1450.21 1052.63,1488.34 "/>
 <polygon fill="#37446C" points="1014.5,1373.94 938.23,1297.67 1014.5,1221.41 1090.77,1297.67 "/>
 <path id="1" fill="#FFF5DC" fill-rule="nonzero" d="M940.1 1295.81l76.27 76.26 -3.74 3.74 -76.26 -76.27 0 -3.73 3.73 0zm-3.73 3.73l-1.87 -1.87 1.87 -1.86 0 3.73zm80 -76.26l-76.27 76.26 -3.73 -3.73 76.26 -76.27 3.74 0 0 3.74zm-3.74 -3.74l1.87 -1.87 1.87 1.87 -3.74 0zm76.27 80l-76.27 -76.26 3.74 -3.74 76.26 76.27 0 3.73 -3.73 0zm3.73 -3.73l1.87 1.86 -1.87 1.87 0 -3.73zm-80 76.26l76.27 -76.26 3.73 3.73 -76.26 76.27 -3.74 0 0 -3.74zm3.74 3.74l-1.87 1.87 -1.87 -1.87 3.74 0z"/>
 <path fill="#FFF5DC" fill-rule="nonzero" d="M1012.34 1375.46l-63 -89.53 4.32 -3.04 63 89.53 -4.32 3.04zm67.32 -89.53l-63 89.53 -4.32 -3.04 63 -89.53 4.32 3.04zm-17.93 -18.72l-44.79 107.74 -4.88 -2.02 44.79 -107.75 4.88 2.03zm-20.97 -21.66l-23.66 128.87 -5.2 -0.96 23.66 -128.87 5.2 0.96zm-28.9 128.39l0 -152.53 5.28 0 0 152.53 -5.28 0zm0.04 0.48l-23.66 -128.87 5.2 -0.96 23.66 128.87 -5.2 0.96zm0.16 0.53l-44.78 -107.74 4.87 -2.03 44.79 107.75 -4.88 2.02z"/>
 <polygon fill="#FFF5DC" points="1014.5,1373.94 976.37,1335.81 1014.5,1297.67 1052.63,1335.81 "/>
 <polygon fill="#37446C" points="1014.5,1221.41 938.24,1145.14 1014.5,1068.88 1090.77,1145.14 "/>
 <path id="1" fill="#FFF5DC" fill-rule="nonzero" d="M940.1 1143.28l76.27 76.26 -3.73 3.74 -76.27 -76.27 0 -3.73 3.73 0zm-3.73 3.73l-1.87 -1.87 1.87 -1.86 0 3.73zm80 -76.27l-76.27 76.27 -3.73 -3.73 76.27 -76.27 3.73 0 0 3.73zm-3.73 -3.73l1.86 -1.87 1.87 1.87 -3.73 0zm76.26 80l-76.26 -76.27 3.73 -3.73 76.27 76.27 0 3.73 -3.74 0zm3.74 -3.73l1.86 1.86 -1.86 1.87 0 -3.73zm-80 76.26l76.26 -76.26 3.74 3.73 -76.27 76.27 -3.73 0 0 -3.74zm3.73 3.74l-1.87 1.86 -1.86 -1.86 3.73 0z"/>
 <path fill="#FFF5DC" fill-rule="nonzero" d="M1012.34 1222.93l-63 -89.53 4.32 -3.04 63 89.53 -4.32 3.04zm67.32 -89.53l-63 89.53 -4.32 -3.04 63 -89.53 4.32 3.04zm-17.93 -18.72l-44.79 107.74 -4.88 -2.02 44.79 -107.75 4.88 2.03zm-20.97 -21.66l-23.66 128.87 -5.2 -0.96 23.67 -128.87 5.19 0.96zm-28.9 128.39l0 -152.53 5.28 0 0 152.53 -5.28 0zm0.04 0.48l-23.66 -128.87 5.2 -0.96 23.66 128.87 -5.2 0.96zm0.16 0.53l-44.78 -107.74 4.88 -2.03 44.78 107.75 -4.88 2.02z"/>
 <polygon fill="#FFF5DC" points="1014.5,1221.41 976.37,1183.28 1014.5,1145.14 1052.64,1183.28 "/>
 <polygon fill="#37446C" points="1167.03,1831.53 1090.76,1755.27 1167.03,1679 1243.3,1755.27 "/>
 <path id="1" fill="#FFF5DC" fill-rule="nonzero" d="M1092.63 1753.4l76.27 76.27 -3.74 3.73 -76.26 -76.26 0 -3.74 3.73 0zm-3.73 3.74l-1.87 -1.87 1.87 -1.87 0 3.74zm80 -76.27l-76.27 76.27 -3.73 -3.74 76.26 -76.27 3.74 0 0 3.74zm-3.74 -3.74l1.87 -1.86 1.87 1.86 -3.74 0zm76.27 80.01l-76.27 -76.27 3.74 -3.74 76.26 76.27 0 3.74 -3.73 0zm3.73 -3.74l1.87 1.87 -1.87 1.87 0 -3.74zm-80 76.27l76.27 -76.27 3.73 3.74 -76.26 76.26 -3.74 0 0 -3.73zm3.74 3.73l-1.87 1.87 -1.87 -1.87 3.74 0z"/>
 <path fill="#FFF5DC" fill-rule="nonzero" d="M1164.87 1833.05l-63 -89.53 4.32 -3.04 63 89.53 -4.32 3.04zm67.32 -89.53l-63 89.53 -4.32 -3.04 63 -89.53 4.32 3.04zm-17.93 -18.72l-44.79 107.75 -4.88 -2.03 44.79 -107.75 4.88 2.03zm-20.97 -21.66l-23.66 128.87 -5.2 -0.95 23.66 -128.87 5.2 0.95zm-28.9 128.39l0 -152.53 5.28 0 0 152.53 -5.28 0zm0.04 0.48l-23.66 -128.87 5.2 -0.95 23.66 128.87 -5.2 0.95zm0.16 0.54l-44.79 -107.75 4.88 -2.03 44.79 107.75 -4.88 2.03z"/>
 <polygon fill="#FFF5DC" points="1167.03,1831.53 1128.9,1793.4 1167.03,1755.27 1205.16,1793.4 "/>
 <polygon fill="#37446C" points="1167.03,1679 1090.77,1602.74 1167.03,1526.47 1243.3,1602.74 "/>
 <path id="1" fill="#FFF5DC" fill-rule="nonzero" d="M1092.63 1600.87l76.27 76.27 -3.74 3.73 -76.26 -76.27 0 -3.73 3.73 0zm-3.73 3.73l-1.87 -1.86 1.87 -1.87 0 3.73zm80 -76.26l-76.27 76.26 -3.73 -3.73 76.26 -76.27 3.74 0 0 3.74zm-3.74 -3.74l1.87 -1.86 1.87 1.86 -3.74 0zm76.27 80l-76.27 -76.26 3.74 -3.74 76.26 76.27 0 3.73 -3.73 0zm3.73 -3.73l1.87 1.87 -1.87 1.86 0 -3.73zm-80 76.27l76.27 -76.27 3.73 3.73 -76.26 76.27 -3.74 0 0 -3.73zm3.74 3.73l-1.87 1.87 -1.87 -1.87 3.74 0z"/>
 <path fill="#FFF5DC" fill-rule="nonzero" d="M1164.87 1680.52l-63 -89.53 4.32 -3.04 63 89.53 -4.32 3.04zm67.32 -89.53l-63 89.53 -4.32 -3.04 63 -89.53 4.32 3.04zm-17.93 -18.72l-44.79 107.75 -4.88 -2.03 44.79 -107.75 4.88 2.03zm-20.97 -21.66l-23.66 128.87 -5.2 -0.95 23.66 -128.87 5.2 0.95zm-28.9 128.39l0 -152.53 5.28 0 0 152.53 -5.28 0zm0.04 0.48l-23.66 -128.87 5.2 -0.95 23.66 128.87 -5.2 0.95zm0.16 0.54l-44.78 -107.75 4.87 -2.03 44.79 107.75 -4.88 2.03z"/>
 <polygon fill="#FFF5DC" points="1167.03,1679 1128.9,1640.87 1167.03,1602.74 1205.16,1640.87 "/>
 <polygon fill="#37446C" points="1167.03,1526.47 1090.77,1450.21 1167.03,1373.94 1243.3,1450.21 "/>
 <path id="1" fill="#FFF5DC" fill-rule="nonzero" d="M1092.63 1448.34l76.27 76.26 -3.73 3.74 -76.27 -76.27 0 -3.73 3.73 0zm-3.73 3.73l-1.87 -1.86 1.87 -1.87 0 3.73zm80 -76.26l-76.27 76.26 -3.73 -3.73 76.27 -76.27 3.73 0 0 3.74zm-3.73 -3.74l1.86 -1.86 1.87 1.86 -3.73 0zm76.26 80l-76.26 -76.26 3.73 -3.74 76.27 76.27 0 3.73 -3.74 0zm3.74 -3.73l1.86 1.87 -1.86 1.86 0 -3.73zm-80 76.26l76.26 -76.26 3.74 3.73 -76.27 76.27 -3.73 0 0 -3.74zm3.73 3.74l-1.87 1.87 -1.86 -1.87 3.73 0z"/>
 <path fill="#FFF5DC" fill-rule="nonzero" d="M1164.87 1527.99l-63 -89.53 4.32 -3.04 63 89.53 -4.32 3.04zm67.32 -89.53l-63 89.53 -4.32 -3.04 63.01 -89.53 4.31 3.04zm-17.93 -18.72l-44.79 107.75 -4.88 -2.03 44.79 -107.75 4.88 2.03zm-20.97 -21.66l-23.66 128.87 -5.2 -0.95 23.67 -128.88 5.19 0.96zm-28.9 128.39l0 -152.53 5.28 0 0 152.53 -5.28 0zm0.04 0.48l-23.66 -128.87 5.2 -0.96 23.66 128.88 -5.2 0.95zm0.16 0.54l-44.78 -107.75 4.88 -2.03 44.78 107.75 -4.88 2.03z"/>
 <polygon fill="#FFF5DC" points="1167.03,1526.47 1128.9,1488.34 1167.03,1450.21 1205.16,1488.34 "/>
 <polygon fill="#37446C" points="1167.03,1373.94 1090.77,1297.67 1167.03,1221.41 1243.3,1297.67 "/>
 <path id="1" fill="#FFF5DC" fill-rule="nonzero" d="M1092.63 1295.81l76.27 76.26 -3.73 3.74 -76.27 -76.27 0 -3.73 3.73 0zm-3.73 3.73l-1.87 -1.87 1.87 -1.86 0 3.73zm80 -76.26l-76.27 76.26 -3.73 -3.73 76.27 -76.27 3.73 0 0 3.74zm-3.73 -3.74l1.86 -1.87 1.87 1.87 -3.73 0zm76.26 80l-76.26 -76.26 3.73 -3.74 76.27 76.27 0 3.73 -3.74 0zm3.74 -3.73l1.86 1.86 -1.86 1.87 0 -3.73zm-80 76.26l76.26 -76.26 3.74 3.73 -76.27 76.27 -3.73 0 0 -3.74zm3.73 3.74l-1.87 1.87 -1.86 -1.87 3.73 0z"/>
 <path fill="#FFF5DC" fill-rule="nonzero" d="M1164.87 1375.46l-63 -89.53 4.32 -3.04 63 89.53 -4.32 3.04zm67.32 -89.53l-63 89.53 -4.32 -3.04 63.01 -89.53 4.31 3.04zm-17.93 -18.72l-44.79 107.74 -4.88 -2.02 44.79 -107.75 4.88 2.03zm-20.97 -21.66l-23.66 128.87 -5.19 -0.96 23.66 -128.87 5.19 0.96zm-28.9 128.39l0 -152.53 5.28 0 0 152.53 -5.28 0zm0.05 0.48l-23.67 -128.87 5.2 -0.96 23.66 128.87 -5.19 0.96zm0.15 0.53l-44.78 -107.74 4.88 -2.03 44.78 107.75 -4.88 2.02z"/>
 <polygon fill="#FFF5DC" points="1167.03,1373.94 1128.9,1335.81 1167.03,1297.67 1205.17,1335.81 "/>
 <polygon fill="#37446C" points="1167.03,1221.41 1090.77,1145.14 1167.03,1068.88 1243.3,1145.14 "/>
 <path id="1" fill="#FFF5DC" fill-rule="nonzero" d="M1092.64 1143.28l76.26 76.26 -3.73 3.74 -76.27 -76.27 0 -3.73 3.74 0zm-3.74 3.73l-1.87 -1.87 1.87 -1.86 0 3.73zm80 -76.27l-76.26 76.27 -3.74 -3.73 76.27 -76.27 3.73 0 0 3.73zm-3.73 -3.73l1.86 -1.87 1.87 1.87 -3.73 0zm76.26 80l-76.26 -76.27 3.73 -3.73 76.27 76.27 0 3.73 -3.74 0zm3.74 -3.73l1.87 1.86 -1.87 1.87 0 -3.73zm-80 76.26l76.26 -76.26 3.74 3.73 -76.27 76.27 -3.73 0 0 -3.74zm3.73 3.74l-1.87 1.86 -1.86 -1.86 3.73 0z"/>
 <path fill="#FFF5DC" fill-rule="nonzero" d="M1164.88 1222.93l-63.01 -89.53 4.32 -3.04 63 89.53 -4.31 3.04zm67.32 -89.53l-63.01 89.53 -4.31 -3.04 63 -89.53 4.32 3.04zm-17.94 -18.72l-44.79 107.74 -4.87 -2.02 44.78 -107.75 4.88 2.03zm-20.97 -21.66l-23.66 128.87 -5.19 -0.96 23.66 -128.87 5.19 0.96zm-28.9 128.39l0 -152.53 5.29 0 0 152.53 -5.29 0zm0.05 0.48l-23.67 -128.87 5.2 -0.96 23.66 128.87 -5.19 0.96zm0.16 0.53l-44.79 -107.74 4.88 -2.03 44.78 107.75 -4.87 2.02z"/>
 <polygon fill="#FFF5DC" points="1167.03,1221.41 1128.9,1183.28 1167.03,1145.14 1205.17,1183.28 "/>
 <polygon fill="#37446C" points="1319.56,1831.53 1243.3,1755.27 1319.56,1679 1395.83,1755.27 "/>
 <path id="1" fill="#FFF5DC" fill-rule="nonzero" d="M1245.16 1753.4l76.27 76.27 -3.73 3.73 -76.27 -76.26 0 -3.74 3.73 0zm-3.73 3.74l-1.87 -1.87 1.87 -1.87 0 3.74zm80 -76.27l-76.27 76.27 -3.73 -3.74 76.27 -76.27 3.73 0 0 3.74zm-3.73 -3.74l1.86 -1.86 1.87 1.86 -3.73 0zm76.26 80.01l-76.26 -76.27 3.73 -3.74 76.26 76.27 0 3.74 -3.73 0zm3.73 -3.74l1.87 1.87 -1.87 1.87 0 -3.74zm-79.99 76.27l76.26 -76.27 3.73 3.74 -76.26 76.26 -3.73 0 0 -3.73zm3.73 3.73l-1.87 1.87 -1.86 -1.87 3.73 0z"/>
 <path fill="#FFF5DC" fill-rule="nonzero" d="M1317.4 1833.05l-63 -89.53 4.32 -3.04 63 89.53 -4.32 3.04zm67.32 -89.53l-63 89.53 -4.32 -3.04 63 -89.53 4.32 3.04zm-17.93 -18.72l-44.79 107.75 -4.88 -2.03 44.79 -107.75 4.88 2.03zm-20.97 -21.66l-23.66 128.87 -5.2 -0.95 23.67 -128.87 5.19 0.95zm-28.9 128.39l0 -152.53 5.28 0 0 152.53 -5.28 0zm0.04 0.48l-23.66 -128.87 5.2 -0.95 23.66 128.87 -5.2 0.95zm0.16 0.54l-44.78 -107.75 4.87 -2.03 44.79 107.75 -4.88 2.03z"/>
 <polygon fill="#FFF5DC" points="1319.56,1831.53 1281.43,1793.4 1319.56,1755.27 1357.69,1793.4 "/>
 <polygon fill="#37446C" points="1319.56,1679 1243.3,1602.74 1319.56,1526.47 1395.83,1602.74 "/>
 <path id="1" fill="#FFF5DC" fill-rule="nonzero" d="M1245.16 1600.87l76.27 76.27 -3.73 3.73 -76.27 -76.27 0 -3.73 3.73 0zm-3.73 3.73l-1.87 -1.86 1.87 -1.87 0 3.73zm80 -76.26l-76.27 76.26 -3.73 -3.73 76.27 -76.27 3.73 0 0 3.74zm-3.73 -3.74l1.86 -1.86 1.87 1.86 -3.73 0zm76.26 80l-76.26 -76.26 3.73 -3.74 76.27 76.27 0 3.73 -3.74 0zm3.74 -3.73l1.86 1.87 -1.86 1.86 0 -3.73zm-80 76.27l76.26 -76.27 3.74 3.73 -76.27 76.27 -3.73 0 0 -3.73zm3.73 3.73l-1.87 1.87 -1.86 -1.87 3.73 0z"/>
 <path fill="#FFF5DC" fill-rule="nonzero" d="M1317.4 1680.52l-63 -89.53 4.32 -3.04 63 89.53 -4.32 3.04zm67.32 -89.53l-63 89.53 -4.32 -3.04 63.01 -89.53 4.31 3.04zm-17.93 -18.72l-44.79 107.75 -4.88 -2.03 44.79 -107.75 4.88 2.03zm-20.97 -21.66l-23.66 128.87 -5.2 -0.95 23.67 -128.87 5.19 0.95zm-28.9 128.39l0 -152.53 5.28 0 0 152.53 -5.28 0zm0.04 0.48l-23.66 -128.87 5.2 -0.95 23.66 128.87 -5.2 0.95zm0.16 0.54l-44.78 -107.75 4.88 -2.03 44.78 107.75 -4.88 2.03z"/>
 <polygon fill="#FFF5DC" points="1319.56,1679 1281.43,1640.87 1319.56,1602.74 1357.7,1640.87 "/>
 <polygon fill="#37446C" points="1319.56,1526.47 1243.3,1450.21 1319.56,1373.94 1395.83,1450.21 "/>
 <path id="1" fill="#FFF5DC" fill-rule="nonzero" d="M1245.17 1448.34l76.26 76.26 -3.73 3.74 -76.27 -76.27 0 -3.73 3.74 0zm-3.74 3.73l-1.87 -1.86 1.87 -1.87 0 3.73zm80 -76.26l-76.26 76.26 -3.74 -3.73 76.27 -76.27 3.73 0 0 3.74zm-3.73 -3.74l1.86 -1.86 1.87 1.86 -3.73 0zm76.26 80l-76.26 -76.26 3.73 -3.74 76.27 76.27 0 3.73 -3.74 0zm3.74 -3.73l1.86 1.87 -1.86 1.86 0 -3.73zm-80 76.26l76.26 -76.26 3.74 3.73 -76.27 76.27 -3.73 0 0 -3.74zm3.73 3.74l-1.87 1.87 -1.86 -1.87 3.73 0z"/>
 <path fill="#FFF5DC" fill-rule="nonzero" d="M1317.4 1527.99l-63 -89.53 4.32 -3.04 63 89.53 -4.32 3.04zm67.32 -89.53l-63 89.53 -4.32 -3.04 63.01 -89.53 4.31 3.04zm-17.93 -18.72l-44.79 107.75 -4.88 -2.03 44.79 -107.75 4.88 2.03zm-20.97 -21.66l-23.66 128.87 -5.19 -0.95 23.66 -128.88 5.19 0.96zm-28.9 128.39l0 -152.53 5.28 0 0 152.53 -5.28 0zm0.05 0.48l-23.67 -128.87 5.2 -0.96 23.66 128.88 -5.19 0.95zm0.15 0.54l-44.78 -107.75 4.88 -2.03 44.78 107.75 -4.88 2.03z"/>
 <polygon fill="#FFF5DC" points="1319.56,1526.47 1281.43,1488.34 1319.56,1450.21 1357.7,1488.34 "/>
 <polygon fill="#37446C" points="1319.57,1373.94 1243.3,1297.67 1319.57,1221.41 1395.83,1297.67 "/>
 <path id="1" fill="#FFF5DC" fill-rule="nonzero" d="M1245.17 1295.81l76.26 76.26 -3.73 3.74 -76.27 -76.27 0 -3.73 3.74 0zm-3.74 3.73l-1.86 -1.87 1.86 -1.86 0 3.73zm80 -76.26l-76.26 76.26 -3.74 -3.73 76.27 -76.27 3.73 0 0 3.74zm-3.73 -3.74l1.87 -1.87 1.86 1.87 -3.73 0zm76.26 80l-76.26 -76.26 3.73 -3.74 76.27 76.27 0 3.73 -3.74 0zm3.74 -3.73l1.87 1.86 -1.87 1.87 0 -3.73zm-80 76.26l76.26 -76.26 3.74 3.73 -76.27 76.27 -3.73 0 0 -3.74zm3.73 3.74l-1.86 1.87 -1.87 -1.87 3.73 0z"/>
 <path fill="#FFF5DC" fill-rule="nonzero" d="M1317.41 1375.46l-63.01 -89.53 4.32 -3.04 63 89.53 -4.31 3.04zm67.32 -89.53l-63.01 89.53 -4.31 -3.04 63 -89.53 4.32 3.04zm-17.94 -18.72l-44.79 107.74 -4.87 -2.02 44.78 -107.75 4.88 2.03zm-20.97 -21.66l-23.66 128.87 -5.19 -0.96 23.66 -128.87 5.19 0.96zm-28.9 128.39l0 -152.53 5.29 0 0 152.53 -5.29 0zm0.05 0.48l-23.66 -128.87 5.19 -0.96 23.66 128.87 -5.19 0.96zm0.16 0.53l-44.79 -107.74 4.88 -2.03 44.78 107.75 -4.87 2.02z"/>
 <polygon fill="#FFF5DC" points="1319.56,1373.94 1281.43,1335.81 1319.56,1297.67 1357.7,1335.81 "/>
 <polygon fill="#37446C" points="1319.57,1221.41 1243.3,1145.14 1319.57,1068.88 1395.83,1145.14 "/>
 <path id="1" fill="#FFF5DC" fill-rule="nonzero" d="M1245.17 1143.28l76.26 76.26 -3.73 3.74 -76.27 -76.27 0 -3.73 3.74 0zm-3.74 3.73l-1.86 -1.87 1.86 -1.86 0 3.73zm80 -76.27l-76.26 76.27 -3.74 -3.73 76.27 -76.27 3.73 0 0 3.73zm-3.73 -3.73l1.87 -1.87 1.86 1.87 -3.73 0zm76.26 80l-76.26 -76.27 3.73 -3.73 76.27 76.27 0 3.73 -3.74 0zm3.74 -3.73l1.87 1.86 -1.87 1.87 0 -3.73zm-80 76.26l76.26 -76.26 3.74 3.73 -76.27 76.27 -3.73 0 0 -3.74zm3.73 3.74l-1.86 1.86 -1.87 -1.86 3.73 0z"/>
 <path fill="#FFF5DC" fill-rule="nonzero" d="M1317.41 1222.93l-63 -89.53 4.31 -3.04 63.01 89.53 -4.32 3.04zm67.32 -89.53l-63 89.53 -4.32 -3.04 63 -89.53 4.32 3.04zm-17.94 -18.72l-44.79 107.74 -4.87 -2.02 44.78 -107.75 4.88 2.03zm-20.96 -21.66l-23.67 128.87 -5.19 -0.96 23.66 -128.87 5.2 0.96zm-28.9 128.39l0 -152.53 5.28 0 0 152.53 -5.28 0zm0.04 0.48l-23.66 -128.87 5.19 -0.96 23.66 128.87 -5.19 0.96zm0.16 0.53l-44.79 -107.74 4.88 -2.03 44.78 107.75 -4.87 2.02z"/>
 <polygon fill="#FFF5DC" points="1319.57,1221.41 1281.43,1183.28 1319.57,1145.14 1357.7,1183.28 "/>
</symbol>
 <g id="Content">
  <metadata id="CorelCorpID_0Corel-Layer"/>
  <g id="_2003828756144">
   <g>
   </g>
   <g clip-path="url(#id0)">
    <g id="_2004064391712">
     <use transform="matrix(0.5 0.866025 -0.866025 0.5 1499.75 -629.957)" x="629.43" y="1065.14" width="770.13" height="770.13" xlink:href="#Pattern"/>
    </g>
   </g>
   <polygon fill="none" fill-rule="nonzero" points="1026.49,993.16 688.74,1323.85 416.7,852.67 871.97,725.51 "/>
   <g>
   </g>
   <g clip-path="url(#id1)">
    <g>
     <use x="795.95" y="379.29" width="770.13" height="770.13" xlink:href="#Pattern"/>
    </g>
   </g>
   <polygon fill="none" fill-rule="nonzero" points="1335.55,457.86 1490.08,725.51 1335.55,993.16 1026.49,993.16 871.97,725.51 1026.49,457.86 "/>
   <g>
   </g>
   <g clip-path="url(#id2)">
    <g>
     <use transform="scale(-1 -1)" x="-1566.09" y="-614.13" width="770.13" height="770.13" xlink:href="#Pattern"/>
    </g>
   </g>
   <polygon fill="none" fill-rule="nonzero" points="1026.49,457.86 908.98,0 1453.06,0 1335.55,457.86 "/>
   <g>
   </g>
   <g clip-path="url(#id3)">
    <g>
     <use x="795.95" y="836.89" width="770.13" height="770.13" xlink:href="#Pattern"/>
    </g>
   </g>
   <polygon fill="none" fill-rule="nonzero" points="1335.55,993.16 1453.06,1451.01 908.98,1451.01 1026.49,993.16 "/>
   <g>
   </g>
   <g clip-path="url(#id4)">
    <g>
     <use transform="matrix(-0.5 -0.866025 0.866025 -0.5 862.291 2080.97)" x="629.43" y="1065.14" width="770.13" height="770.13" xlink:href="#Pattern"/>
    </g>
   </g>
   <polygon fill="none" fill-rule="nonzero" points="1335.55,457.86 1673.31,127.16 1945.35,598.35 1490.08,725.51 "/>
   <g>
   </g>
   <g clip-path="url(#id5)">
    <g>
     <use x="795.95" y="1752.6" width="770.13" height="770.13" xlink:href="#Pattern"/>
    </g>
   </g>
   <polygon fill="none" fill-rule="nonzero" points="1026.49,2444.17 871.97,2176.52 1026.49,1908.87 1335.55,1908.87 1490.08,2176.52 1335.55,2444.17 "/>
   <g>
   </g>
   <g clip-path="url(#id6)">
    <g>
     <use transform="scale(-1 -1)" x="-1566.09" y="-3058.03" width="770.13" height="770.13" xlink:href="#Pattern"/>
    </g>
   </g>
   <polygon fill="none" fill-rule="nonzero" points="1026.49,2444.17 908.98,2902.02 1453.06,2902.02 1335.55,2444.17 "/>
   <g>
   </g>
   <g clip-path="url(#id7)">
    <g>
     <use x="795.95" y="1295.01" width="770.13" height="770.13" xlink:href="#Pattern"/>
    </g>
   </g>
   <polygon fill="none" fill-rule="nonzero" points="1335.55,1908.87 1453.06,1451.01 908.98,1451.01 1026.49,1908.87 "/>
   <g>
   </g>
   <g clip-path="url(#id8)">
    <g>
     <use transform="matrix(-0.5 -0.866025 0.866025 -0.5 2.42092 4028.42)" x="629.43" y="1065.14" width="770.13" height="770.13" xlink:href="#Pattern"/>
    </g>
   </g>
   <polygon fill="none" fill-rule="nonzero" points="871.97,2176.52 416.69,2303.68 688.73,2774.86 1026.49,2444.17 "/>
   <g>
   </g>
   <g clip-path="url(#id9)">
    <g>
     <use transform="matrix(0.5 -0.866025 0.866025 0.5 -1012.08 2081.77)" x="629.43" y="1065.14" width="770.13" height="770.13" xlink:href="#Pattern"/>
    </g>
   </g>
   <polygon fill="none" fill-rule="nonzero" points="1026.49,1908.87 688.73,1578.17 416.69,2049.36 871.97,2176.52 "/>
   <g>
   </g>
   <g clip-path="url(#id10)">
    <g>
     <use transform="matrix(0.5 0.866025 -0.866025 0.5 2359.62 324.611)" x="629.43" y="1065.14" width="770.13" height="770.13" xlink:href="#Pattern"/>
    </g>
   </g>
   <polygon fill="none" fill-rule="nonzero" points="1490.08,2176.52 1945.35,2049.36 1673.31,1578.17 1335.55,1908.87 "/>
   <g>
   </g>
   <g clip-path="url(#id11)">
    <g>
     <use transform="matrix(-0.5 0.866025 -0.866025 -0.5 3374.12 2271.26)" x="629.43" y="1065.14" width="770.13" height="770.13" xlink:href="#Pattern"/>
    </g>
   </g>
   <polygon fill="none" fill-rule="nonzero" points="1335.55,2444.17 1673.31,2774.86 1945.35,2303.68 1490.08,2176.52 "/>
   <g>
   </g>
   <g clip-path="url(#id12)">
    <g>
     <use transform="matrix(0.5 -0.866025 0.866025 0.5 -152.211 1127.21)" x="629.43" y="1065.14" width="770.13" height="770.13" xlink:href="#Pattern"/>
    </g>
   </g>
   <polygon fill="none" fill-rule="nonzero" points="1490.08,725.51 1945.35,852.67 1673.31,1323.85 1335.55,993.16 "/>
   <g>
   </g>
   <g clip-path="url(#id13)">
    <g>
     <use transform="matrix(-0.5 0.866025 -0.866025 -0.5 2514.25 323.803)" x="629.43" y="1065.14" width="770.13" height="770.13" xlink:href="#Pattern"/>
    </g>
   </g>
   <polygon fill="none" fill-rule="nonzero" points="871.97,725.51 416.7,598.35 688.74,127.16 1026.49,457.86 "/>
  </g>
  <g>
  </g>
  <g clip-path="url(#id14)">
   <g>
    <rect fill="#FFF5DC" y="2368.14" width="283.08" height="392.34"/>
    <rect fill="#37446C" y="2283.22" width="283.08" height="84.93"/>
    <rect fill="#37446C" y="2760.48" width="283.08" height="84.93"/>
   </g>
  </g>
  <path fill="none" d="M283.08 2760.48l0 84.93 -283.08 0 0 -84.93 84.93 0c-33.85,-19.57 -56.62,-56.17 -56.62,-98.08 0,-41.92 22.77,-78.51 56.62,-98.09 -33.85,-19.57 -56.62,-56.17 -56.62,-98.08 0,-41.92 22.77,-78.51 56.62,-98.09l-84.93 0 0 -84.92 283.08 0 0 84.92 -84.93 0c33.85,19.58 56.63,56.17 56.63,98.09 0,41.91 -22.78,78.51 -56.63,98.08 33.85,19.58 56.63,56.17 56.63,98.09 0,41.91 -22.78,78.51 -56.63,98.08l84.93 0zm-84.92 -294.25c0,-31.27 -25.35,-56.62 -56.62,-56.62 -31.27,0 -56.61,25.35 -56.61,56.62 0,31.27 25.34,56.61 56.61,56.61 31.27,0 56.62,-25.34 56.62,-56.61zm0 196.17c0,31.27 -25.35,56.62 -56.62,56.62 -31.27,0 -56.61,-25.35 -56.61,-56.62 0,-31.27 25.34,-56.62 56.61,-56.62 31.27,0 56.62,25.35 56.62,56.62z"/>
  <g>
  </g>
  <g clip-path="url(#id15)">
   <g>
    <use x="-300.14" y="439.64" width="770.13" height="770.13" xlink:href="#Pattern"/>
   </g>
  </g>
  <polygon id="Pulltab" fill="none" points="0,985.9 0,816.05 169.85,816.05 169.85,985.9 "/>
 </g>
</svg>
