<?xml version="1.0" encoding="UTF-8"?>
<!DOCTYPE svg PUBLIC "-//W3C//DTD SVG 1.1//EN" "http://www.w3.org/Graphics/SVG/1.1/DTD/svg11.dtd">
<!-- Creator: CorelDRAW 2020 (64-Bit) -->
<svg xmlns="http://www.w3.org/2000/svg" xml:space="preserve" width="2029px" height="3027px" version="1.1" shape-rendering="geometricPrecision" text-rendering="geometricPrecision" image-rendering="optimizeQuality" fill-rule="evenodd" clip-rule="evenodd"
viewBox="0 0 1945.35 2902.03"
 xmlns:xlink="http://www.w3.org/1999/xlink"
 xmlns:xodm="http://www.corel.com/coreldraw/odm/2003">
 <defs>
  <pattern id="pattern-hatch" patternUnits="userSpaceOnUse" width="17.5" height="17.5" viewBox="0 0 4 4">
    <path stroke="#9e9e9e" stroke-width="1" d="M-1,1 l2,-2 M0,4 l4,-4 M3,5 l2,-2"/>
  </pattern>
   <clipPath id="id0" clip-rule="nonzero">
    <path d="M1026.49 1908.87l-117.51 -457.86 117.51 -457.85 -337.76 330.69 -272.04 -471.18 455.28 -127.16 -455.28 -127.16 272.04 -471.19 337.76 330.7 -117.51 -457.86 544.08 0 -117.51 457.86 337.76 -330.7 272.04 471.19 -455.27 127.16 455.27 127.16 -272.04 471.18 -337.76 -330.69 117.51 457.85 -117.51 457.86 337.76 -330.7 272.04 471.19 -455.27 127.16 455.27 127.16 -272.04 471.19 -337.76 -330.7 117.51 457.86 -544.08 0 117.51 -457.86 -337.76 330.7 -272.04 -471.19 455.28 -127.16 -455.28 -127.16 272.04 -471.19 337.76 330.7z"/>
   </clipPath>
 </defs>
 <g id="Content">
  <metadata id="CorelCorpID_0Corel-Layer"/>
  <g>
  </g>
  <g clip-path="url(#id0)">
   <g>
    <path fill="none" stroke="black" stroke-width="3" stroke-miterlimit="22.9256" d="M1181.02 83.31c119.57,0 216.49,-10.22 216.49,-85.72 0,-70.15 -96.92,-171.64 -216.49,-171.64 -119.56,0 -216.49,96.14 -216.49,171.64 0,68.69 96.93,85.72 216.49,85.72z"/>
    <path fill="white" stroke="black" stroke-width="3" stroke-miterlimit="22.9256" d="M1181.02 134.19c-56.15,0 -101.67,-19.58 -101.67,-66.07 0,-43.2 45.52,-105.7 101.67,-105.7 56.15,0 101.67,59.2 101.67,105.7 0,42.3 -45.52,66.07 -101.67,66.07z"/>
    <path fill="#2B2A29" d="M1312.08 -53.32c-0.69,-8.89 4.51,-15.2 9.6,-18.86 5.09,-3.66 9.39,-4.19 19.72,-3.43 -13.83,1.75 -25.56,12.26 -29.32,22.29z"/>
    <path fill="#2B2A29" d="M1028.37 -88.67c8.67,2.07 13.07,8.97 14.99,14.93 1.92,5.97 1.1,10.23 -2.81,19.82 2.59,-13.69 -3.79,-28.09 -12.18,-34.75z"/>
    <path fill="none" stroke="#2B2A29" stroke-width="5.99" stroke-miterlimit="11.4737" d="M1323.24 -70.75c-84.37,-56.25 -191.64,-59.31 -280.8,-4.58"/>
    <g id="_2655165909712">
     <path fill="#FEFEFE" stroke="#2B2A29" stroke-width="3" stroke-miterlimit="22.9256" d="M1103.05 128.33c15.06,29.46 -2.31,127.26 -51.1,135.31 -50.16,8.28 -83.51,-37.09 -75.56,-84.08 12.92,-76.43 116.63,-70.85 126.66,-51.23z"/>
     <path fill="#2B2A29" d="M1103.05 128.33c8.03,15.69 6.84,50.79 -3.39,81.37 -7.08,9.79 -22.09,15.57 -34.2,17.57 -37.67,6.22 -62.71,-27.86 -56.74,-63.15 1.93,-11.45 7.06,-31.82 15.32,-41.4 33.54,-12.82 73.01,-6.12 79.01,5.61z"/>
     <ellipse fill="#FEFEFE" cx="1051.46" cy="181.87" rx="6.13" ry="6.77"/>
    </g>
    <g id="_2655165909424">
     <path fill="#FEFEFE" stroke="#2B2A29" stroke-width="3" stroke-miterlimit="22.9256" d="M1258.99 128.33c-15.06,29.46 2.31,127.26 51.11,135.31 50.15,8.28 83.5,-37.09 75.55,-84.08 -12.92,-76.43 -116.63,-70.85 -126.66,-51.23z"/>
     <path fill="#2B2A29" d="M1258.99 128.33c-8.02,15.69 -6.84,50.79 3.4,81.37 7.07,9.79 22.08,15.57 34.19,17.57 37.67,6.22 62.71,-27.86 56.75,-63.15 -1.94,-11.45 -7.07,-31.82 -15.33,-41.4 -33.54,-12.82 -73.01,-6.12 -79.01,5.61z"/>
     <ellipse fill="#FEFEFE" cx="1310.58" cy="181.87" rx="6.13" ry="6.77"/>
    </g>
    <path fill="none" stroke="black" stroke-width="3" stroke-miterlimit="22.9256" d="M1181.02 2985.34c119.57,0 216.49,-10.22 216.49,-85.72 0,-70.15 -96.92,-171.65 -216.49,-171.65 -119.56,0 -216.49,96.15 -216.49,171.65 0,68.69 96.93,85.72 216.49,85.72z"/>
    <path fill="white" stroke="black" stroke-width="3" stroke-miterlimit="22.9256" d="M1181.02 3036.21c-56.15,0 -101.67,-19.57 -101.67,-66.07 0,-43.2 45.52,-105.7 101.67,-105.7 56.15,0 101.67,59.21 101.67,105.7 0,42.3 -45.52,66.07 -101.67,66.07z"/>
    <path fill="#2B2A29" d="M1312.08 2848.71c-0.69,-8.89 4.51,-15.2 9.6,-18.87 5.09,-3.66 9.39,-4.19 19.72,-3.42 -13.83,1.74 -25.56,12.25 -29.32,22.29z"/>
    <path fill="#2B2A29" d="M1028.37 2813.36c8.67,2.07 13.07,8.96 14.99,14.93 1.92,5.97 1.1,10.22 -2.81,19.82 2.59,-13.7 -3.79,-28.1 -12.18,-34.75z"/>
    <path fill="none" stroke="#2B2A29" stroke-width="5.99" stroke-miterlimit="11.4737" d="M1323.24 2831.28c-84.37,-56.25 -191.64,-59.31 -280.8,-4.58"/>
   </g>
  </g>
  <line fill="none" stroke="#2B2A29" stroke-width="3" stroke-miterlimit="22.9256" x1="1511.93" y1="598.43" x2="1609.99" y2= "541.82" />
  <line fill="none" stroke="#2B2A29" stroke-width="3" stroke-miterlimit="22.9256" x1="850.12" y1="598.43" x2="752.05" y2= "541.81" />
  <g>
   <rect fill="url(#pattern-hatch)" x="191.11" y="1194.83" width="113.23" height="113.23"/>
   <rect fill="url(#pattern-hatch)" x="191.11" y="1980.03" width="113.23" height="113.23"/>
   <path fill="none" stroke="#000000" stroke-width="2.26" stroke-miterlimit="5" d="M304.34 1194.83l0 113.23c-60.74,27.12 -46.2,59.18 -42.52,76.91 5.87,28.25 9.38,31.37 28.15,29.39 13.18,-1.4 22.05,-0.85 24.35,7.54 2.32,8.44 -1.59,16.3 -16.27,19.63 -21.31,4.84 -23.81,11.39 -19.59,35.46 2.03,11.63 3.51,34.89 34.97,27.6 16.29,-3.77 28.47,-1.63 31.63,9.29 3.7,12.77 -6.22,18.76 -25.41,23.73 -21.72,5.63 -25.38,16.49 -19.73,39.63 6.21,25.43 13.87,30.33 42.95,29.22 20.16,-0.77 40.78,-4.78 44.86,16.94 1.74,9.28 -2.77,16.03 -10.6,20.64 7.83,4.62 12.34,11.37 10.6,20.65 -4.08,21.72 -24.7,17.71 -44.86,16.94 -29.08,-1.12 -36.74,3.78 -42.95,29.21 -5.65,23.14 -1.99,34.01 19.73,39.64 19.19,4.97 29.11,10.96 25.41,23.73 -3.16,10.91 -15.34,13.05 -31.63,9.28 -31.46,-7.28 -32.94,15.98 -34.97,27.61 -4.22,24.07 -1.72,30.62 19.59,35.46 14.68,3.33 18.59,11.18 16.27,19.63 -2.3,8.39 -11.17,8.93 -24.35,7.54 -18.77,-1.98 -22.28,1.14 -28.15,29.39 -3.68,17.73 -18.22,49.78 42.52,76.91l0 113.23 -113.23 0 0 -113.23c45.13,-35.39 42.52,-142.76 57.32,-228.28 10.5,-60.7 21.99,-93.69 47.35,-107.71 -25.36,-14.01 -36.85,-47 -47.35,-107.7 -14.8,-85.52 -12.19,-192.89 -57.32,-228.28l0 -113.23 113.23 0z"/>
   <line fill="none" stroke="#000000" stroke-width="2.36" stroke-miterlimit="22.9256" stroke-dasharray="20.83 10.42" x1="191.11" y1="1308.06" x2="304.34" y2= "1308.06" />
   <line fill="none" stroke="#000000" stroke-width="2.36" stroke-miterlimit="22.9256" stroke-dasharray="20.83 10.42" x1="191.11" y1="1980.03" x2="304.34" y2= "1980.03" />
   <line fill="none"  stroke="#ffffff" stroke-width="2.36" stroke-miterlimit="22.9256" stroke-dasharray="20.83 10.42"  x1="295.78" y1="1644.04" x2="377.13" y2= "1644.04" />
  </g>
  <g>
   <rect fill="url(#pattern-hatch)" x="191.11" y="1061.49" width="113.23" height="113.23"/>
   <rect fill="url(#pattern-hatch)" x="191.11" y="276.29" width="113.23" height="113.23"/>
   <path fill="none" stroke="#000000" stroke-width="2.26" stroke-miterlimit="22.9256" d="M304.34 276.29l0 113.23c-60.74,27.13 -46.2,59.18 -42.52,76.91 5.87,28.25 9.38,31.37 28.15,29.39 13.18,-1.4 22.05,-0.85 24.35,7.54 2.32,8.45 -1.59,16.3 -16.27,19.63 -21.31,4.84 -23.81,11.39 -19.59,35.46 2.03,11.63 3.51,34.89 34.97,27.6 16.29,-3.76 28.47,-1.62 31.63,9.29 3.7,12.77 -6.22,18.76 -25.41,23.73 -21.72,5.63 -25.38,16.5 -19.73,39.64 6.21,25.42 13.87,30.33 42.95,29.21 20.16,-0.77 40.78,-4.78 44.86,16.94 1.74,9.28 -2.77,16.03 -10.6,20.65 7.83,4.61 12.34,11.36 10.6,20.64 -4.08,21.72 -24.7,17.71 -44.86,16.94 -29.08,-1.11 -36.74,3.79 -42.95,29.21 -5.65,23.15 -1.99,34.01 19.73,39.64 19.19,4.97 29.11,10.96 25.41,23.73 -3.16,10.92 -15.34,13.06 -31.63,9.29 -31.46,-7.29 -32.94,15.97 -34.97,27.6 -4.22,24.07 -1.72,30.62 19.59,35.46 14.68,3.33 18.59,11.18 16.27,19.63 -2.3,8.39 -11.17,8.94 -24.35,7.54 -18.77,-1.98 -22.28,1.14 -28.15,29.39 -3.68,17.73 -18.22,49.79 42.52,76.91l0 113.23 -113.23 0 0 -113.23c45.13,-35.39 42.52,-142.76 57.32,-228.28 10.5,-60.7 21.99,-93.69 47.35,-107.7 -25.36,-14.02 -36.85,-47.01 -47.35,-107.71 -14.8,-85.52 -12.19,-192.89 -57.32,-228.28l0 -113.23 113.23 0z"/>
   <line fill="none" stroke="#000000" stroke-width="2.36" stroke-miterlimit="22.9256" stroke-dasharray="20.83 10.42" x1="191.11" y1="389.52" x2="304.34" y2= "389.52" />
   <line fill="none" stroke="#000000" stroke-width="2.36" stroke-miterlimit="22.9256" stroke-dasharray="20.83 10.42" x1="191.11" y1="1061.49" x2="304.34" y2= "1061.49" />
   <line fill="none" stroke="#ffffff" stroke-width="2.36" stroke-miterlimit="22.9256" stroke-dasharray="20.83 10.42" x1="295.78" y1="725.51" x2="377.13" y2= "725.51" />
  </g>
  <line fill="none" stroke="#000000" stroke-width="3" stroke-miterlimit="22.9256" x1="1511.93" y1="598.43" x2="1609.99" y2= "541.82" />
  <line fill="none" stroke="#000000" stroke-width="3" stroke-miterlimit="22.9256" x1="850.12" y1="598.43" x2="752.05" y2= "541.81" />
 </g>
</svg>
