<?xml version="1.0" encoding="UTF-8"?>
<svg xmlns="http://www.w3.org/2000/svg" width="76px" height="42px" shape-rendering="geometricPrecision" fill-rule="evenodd" viewBox="0 0 88.8 48.9">
  <polygon fill="#152D4F" stroke="#D4A55F" stroke-width="2.4" points="55.2,24.5 59.2,17.5 63.3,10.5 71.3,10.5 79.4,10.5 83.4,17.5 87.5,24.5 83.4,31.5 79.4,38.4 71.3,38.4 63.3,38.4 59.2,31.5 "/>
  <polygon fill="#152D4F" stroke="#D4A55F" stroke-width="2.4" points="1.4,24.5 5.4,17.5 9.5,10.5 17.5,10.5 25.6,10.5 29.6,17.5 33.6,24.5 29.6,31.5 25.6,38.4 17.5,38.4 9.5,38.4 5.4,31.5 "/>
  <polygon fill="#152D4F" stroke="#D4A55F" stroke-width="2.4" points="17.3,24.5 24,12.8 30.7,1.2 44.2,1.2 57.6,1.2 64.3,12.8 71.1,24.5 64.3,36.1 57.6,47.7 44.2,47.7 30.7,47.7 24,36.1 "/>
  <path fill="#D4A55F" d="M57.1 23.9c0.7,0.2 0.5,0.2 0.8,0.6l1.8 3.5c-1.3,-0.7 -1.2,-1.4 -2.6,-4.1zm-10.2 -13.4l0.1 -0.1c0,0 -0.1,0 -0.1,0.1zm1.2 9.3l0.1 -0.1c0,0 -0.1,0.1 -0.1,0.1zm-3.2 -16.9l0.1 -0.1c0,0 -0.1,0.1 -0.1,0.1zm17.7 25.7l0.1 -0.1c0,0 -0.1,0 -0.1,0.1zm-37.4 -1.8c0,0 0,-0.1 0,-0.1l0 0c0,0 -0.1,0.1 0,0.1zm29 -5.5l0.1 -0.1c0,0 -0.1,0 -0.1,0.1zm0.3 0.3l0.1 -0.1c0,0 -0.1,0 -0.1,0.1zm-2 -9.4l0.6 -0.5c-1.5,0.3 -0.2,0 -0.6,0.5zm-27.9 0.3c0,0.7 0.5,0.2 0.2,0 0,0 -0.2,-0.8 -0.2,0zm31.9 9.1c0.3,0.2 1.1,-0.4 0.4,-0.2 0,0 -0.9,-0.3 -0.4,0.2zm-28.4 5.2c0.2,0.3 1,-0.4 0.3,-0.2 0,0 -0.8,-0.3 -0.3,0.2zm21.7 -6.7c1.2,-0.9 0.3,-0.2 0.3,-1.8l-0.3 0 0 1.8zm-23.5 6.1c-0.6,-0.5 -1.5,-1 -2.6,-1.1 0.6,0.7 1.3,1.1 2.6,1.1zm-0.3 0.6l1.8 0c-0.4,-0.5 -0.1,-0.6 -0.9,-0.6 -0.5,0 -0.8,0.2 -0.9,0.6zm-2.6 -1.5c-0.7,0 -0.1,0.5 0,0.2 0,0 0.9,-0.2 0,-0.2zm17.7 -17.2c1.4,0.8 2.2,-0.2 2.3,-0.6 0.5,-1.7 -2.7,-0.8 -2.8,-0.7 -0.3,0.8 0,0.4 0.4,1.1l0.1 0.2zm18.9 28.6c0,2 -0.4,1.2 0,2.9 1.5,-0.1 1.1,-0.3 1.5,-1.7 0.3,-1.4 0.5,-1.1 0.3,-2.3l-0.6 0c-0.3,1.2 -0.2,0.6 -1.2,1.1zm-31.1 -28c0,-1.6 -0.1,-0.9 -0.8,-2 0.8,0.3 0.3,0.3 1.1,0.9 0.4,-0.7 0.5,-0.8 0.6,-1.8 -1.1,-0.3 -0.4,-0.3 -1.4,-0.6 -0.5,1.7 -1.5,1.6 -1.5,3.5 0.6,0.3 0.7,0.4 1.5,0.6l0.1 -0.4c0.1,0 0.1,0 0.1,0l0.3 -0.2zm-0.3 0.9c0.1,0 0.1,-0.1 0.1,-0.1l0 0c0,0 -0.1,0.1 -0.1,0.1zm11.7 -6.7l0.6 0.5c-1.5,-0.3 -0.2,0 -0.6,-0.5zm-8.7 -1.5l8.9 0c1.1,0.1 0.4,0.1 0.5,0.4 0.8,1.4 0.4,-0.3 0.4,0.8 0,0.8 -0.9,1.9 -1.5,2.2 -0.4,0.2 -1.1,0.3 -1.4,0.4 -1,0.6 -0.2,0.1 -0.8,1 -0.7,0.9 -0.6,0.4 -1.2,0.8 -1.1,0.7 -0.3,-0.2 -0.7,1.1 -0.2,0.8 -0.5,1.6 -0.8,2.7 -1.7,-1.2 -1.5,-0.3 -2.4,-2.8 -0.6,-1.8 -1.2,-2.8 0.1,-3.4 -0.4,-1.2 0.1,0.1 -1.1,-0.5 0.4,-1.9 0,-0.9 0,-2.7zm0.6 1.4l0.2 -0.3 0.3 0.4 -0.2 0.3 -0.3 -0.4zm-8.2 15.8l0.1 0.1c0,0 -0.1,0 -0.1,-0.1zm-1.7 -0.3c0,-0.6 0.4,-0.1 0.1,0 0,0.1 -0.1,0.9 -0.1,0zm2.9 -0.2l0 0c0,0 -0.1,0 0,0zm-1.8 -0.6l0.9 -0.1 -0.6 0.4c-1,-1 0.9,0.1 -0.3,-0.3zm-0.9 0l0.4 -0.3 0.3 0.2 -0.4 0.3 -0.3 -0.2zm5.9 -2.1c0.8,0.3 0.4,0.1 1.1,0.6 0.3,-0.5 -0.1,-0.5 1.5,-0.9 -0.3,0.6 -0.4,0.7 -0.6,1.5 1.3,0 0.9,0.2 2,0.3 -0.3,-1.3 -0.2,-1 -1.1,-1.5 0.3,-0.8 0.3,-0.5 0.3,-1.7 -1.5,-0.6 0.6,0.5 -0.5,-0.2 0,0 -0.1,-0.1 -0.1,-0.1l-0.4 -0.3c-1.6,-1.2 -0.5,-1.9 -2,-2.9 0,0.9 0,0.5 -0.2,1.1 -1.4,-0.9 -0.4,-1.2 -2.1,-2.3 -2.5,3.8 0.6,3.5 -1.7,4.1l0.3 1.7 -0.6 0c-0.1,-0.7 -0.1,-0.7 -0.3,-1.4 -1,0.8 -0.2,0.3 -1.2,1.7l-0.4 0.5c0,0 -0.1,0.1 -0.1,0.1l0.9 1.1c-1.7,0 -1.2,-0.5 -2,1.1 -3.5,6.2 -4.8,6 -2.9,8.7 1,1.4 2.3,0.6 4.2,2 1,0.8 0.5,1 2.1,1.4 -0.3,-0.7 0,-0.2 -0.5,-0.7 -0.5,-0.5 -0.4,0.2 -0.5,-0.7 -0.2,-1.2 0.4,-1.2 -1.3,-1.2l0.3 -1.7c-1.2,0 -0.9,-0.2 -1.2,0.8 -2.4,0 -1.8,-0.4 -1.8,-2.9 2.8,-0.6 2.2,-0.5 4.1,-0.3 0.1,1.2 0.1,1 0.9,1.5 -0.1,-2.6 -1.1,-1.2 0.6,-3.2 0.8,-0.8 0.3,-0.6 0.8,-1.5 0.3,-0.6 0.5,-0.6 1,-1.1l1.1 -1.2 0.8 0.6c0.6,-0.8 0.4,-0.7 1.5,-0.9l0 -0.6c-1.1,0.2 -0.3,0.2 -1.5,0 0.4,-1.8 0.3,-0.4 -0.5,-1.5zm-3.2 15.2c0,1.1 -2,1.6 -0.6,3.7 1.4,2.1 0.4,1.5 2.6,3 0,4.8 -1.1,2.8 0.9,6.1 0.5,1 0.1,0.8 1.1,1.5 0.3,-0.2 0.6,-0.6 0.6,-0.6l0.4 -0.2c0.1,0 0.4,-0.1 0.4,-0.1 0.9,-0.5 0.9,-0.4 0.4,-1.4 1.7,-0.1 0.9,-0.1 2,-1.5 0.4,-0.5 0.5,-0.1 0.6,-1.7 0.4,-0.1 1.3,-0.5 1.7,-0.7 0.7,-0.3 0.7,-0.4 0.9,-1.4 0.2,-0.6 0.2,-1.3 0.5,-1.8 0.3,-0.4 0.2,-0.1 0.5,-0.6 0.2,-0.2 0.4,-0.6 0.4,-0.8 -0.4,-0.6 -1,-1.2 -1.8,-1.4 -5.1,-1.5 -1.3,-1.7 -4,-2.4 -1.1,-0.3 -1.4,-0.2 -1.7,-1.5 -0.5,0.3 -0.6,0.2 -1.2,0.2 -0.5,-0.1 -1,-0.3 -1.6,-0.3 -0.1,0 -0.4,-0.1 -0.5,-0.1 -1.9,0.2 -0.1,1 -2.2,0.5 0.2,0.4 0.6,1 0.6,1.5zm36 -7.6c1.4,0.4 1,1.8 5.5,1.8 0.9,1.4 0.4,1 1.4,1.1 0.1,1.6 0.3,1.1 0.6,2.4l0.6 0c0.3,-1.5 1.8,-2.9 1.8,-3.8l-5.5 -9.4c-0.5,-0.8 -0.8,-1.4 -1.3,-2.2l-4.3 -7.1c-0.6,1.4 -1,-0.3 -1.1,1.8 -0.4,-0.3 -0.4,-0.2 -0.9,-0.3 0.3,1.4 0.2,0.4 0,0.8 -0.5,-0.6 -0.6,-0.5 -0.6,-1.7 1.1,0.5 1.2,0.3 2,-0.3 -0.7,-1.4 -1.6,-2 -3.2,-2.3 -0.2,-0.5 0.2,-0.9 -0.8,-1.1 -0.5,-0.1 -0.2,0 -0.5,0l-2.4 1.1c-0.5,0.8 -0.2,0.3 0,0.5l-0.9 0c-0.2,0.9 0,1 -0.2,1.4 -0.4,1.5 -1.5,2.8 -2.7,3.6l0.6 2.3c0.8,-0.2 0.4,-0.1 1.1,-0.5 0.5,1 0.8,1.2 0,1.7l0 -1.2c-1,0.8 -0.7,0.7 -0.6,2.1 -1.3,0.3 -0.8,0.3 -1.6,1.2 -0.7,0.8 -0.9,1 -2.1,1.1l0 0.6c1.1,0.3 0.8,0.1 0.8,1.5 -3,0 -1.8,-0.1 -2.3,2l1.2 0.9c-0.9,1.3 -3.1,3.8 -3.2,4.9 0,0.9 0.5,0.5 -0.3,2.1 2.9,3.3 1.6,3.1 6.7,2.2 0.3,0.9 -0.6,0.7 1.1,0.7 0,1.6 -0.4,1 0.3,2.1 2.4,3.8 -0.7,1.3 0.9,5.2 0.4,0.9 0.1,0.8 0.4,1.7 0.1,0.7 0.3,0.4 0.6,1.3 0.4,0.9 -0.1,1.1 0.8,1.3 0.3,0.1 1.8,0 2.6,-0.7 2,-1.8 0.1,-1.9 2,-2.4 0,-1.2 0.1,-0.7 -0.3,-1.5 1.3,-0.9 2.6,-1.4 1.2,-4.4 0,0 0.1,-0.2 0.1,-0.1 0,0.1 0.2,-0.3 0.3,-0.4 0.2,-0.3 0.2,-0.3 0.5,-0.6 1.3,-1.3 2.5,-2 2.5,-3.8 -1.1,0.1 -0.7,0.2 -2,0.2 1.1,-1.5 3.1,-0.5 4.7,-3.5 -1.3,-0.6 -0.6,0.1 -0.9,-0.8 -0.7,0.1 -0.7,0.2 -1.5,0.3 -0.4,-1.4 0,0.3 -1.1,-1.8zm-14.5 -11.9c-0.6,0.2 -0.4,0.2 -1.2,0.2 0,0.9 0.1,1.1 0.3,1.8 -0.9,0.1 -0.6,0 -1.2,0.3 0,1.1 0.1,0.7 -0.3,1.4 0.8,0 0.8,-0.1 1.5,-0.2l0 0.8c0.6,0 1.3,0 1.7,-0.3 1.2,-0.8 -0.3,-1.4 -0.6,-2.5 -0.2,-0.4 0,-0.6 -0.2,-1.5zm8.7 7.8c0.2,-0.9 0.4,-1.1 0.8,-1.7 3.1,1.1 2.8,0.8 2.9,2 -1.1,-0.1 -1.1,-0.4 -1.7,-0.5 -0.4,0 -1.1,0.2 -2,0.2zm-4.4 -1.4c3.6,2.4 1.1,1.9 2.9,3.2 1.6,-1.2 -1,-0.1 0.9,-1.5 0.4,1.8 -0.2,1.8 2.9,1.8 -0.5,1.9 -0.1,1.5 -1.6,1.6 -1.4,0 -1.3,-0.5 -3.1,-0.5l0 0.6c-1.8,-0.1 -0.1,-0.3 -2.6,-0.9 0.9,-1.7 0.1,-1.2 -1.1,-1.1 -3.5,0.2 -1.4,0.4 -3.2,0.6 0.5,-0.5 1.8,-1.2 2.3,-3 1.3,0 0.9,-0.1 2,-0.2 0.5,1.9 1,0.3 1.5,2 -1.5,0.1 -0.5,-0.3 -0.9,0.6 1.6,-0.2 1.1,-0.7 1.6,-1.3 0,-0.1 0.1,-0.1 0.2,-0.2 -1.6,-0.4 -1.6,-1.4 -1.8,-1.7zm10.8 0.6c0.5,0.3 0,0 0.4,0.4 0.5,0.4 0.1,0.2 0.7,0.4 0,0.1 -0.1,0.1 -0.1,0.2 -0.1,0.3 -0.7,-0.2 0.1,1.6 -2.5,-0.1 -0.2,0.4 -2,-2.9 0.9,-0.7 0.4,-0.8 1.7,-0.9 -0.2,0.6 0,0.2 -0.3,0.6 0,0 -0.5,0.1 -0.5,0.6zm-4.1 -1.2l0.6 0 0 0.6 -0.6 0 0 -0.6zm-3.8 -5.3c0,-0.6 0.5,-0.1 0.2,0 0,0 -0.2,0.9 -0.2,0zm-0.3 -0.5c-0.2,2.6 -0.2,1.9 -1.7,2.3 -0.8,0.2 -0.3,0.5 -0.9,-0.3 2.1,-0.6 0.2,-1.1 2,-2.3 -1.7,-2.6 0.6,-1.1 0.6,-3.8l0.9 0c-0.3,1.1 -0.3,1.2 -1.2,1.7l0.1 1.1c0.2,0.9 0.3,0.8 2.3,0.4 -0.6,0.8 -0.9,0.6 -2.1,0.9zm-0.6 -0.9l0.1 0.1c0,0 0,-0.1 -0.1,-0.1z"/>
</svg>
